<?xml version="1.0" encoding="utf-8"?>
<!-- Generator: Adobe Illustrator 21.1.0, SVG Export Plug-In . SVG Version: 6.00 Build 0)  -->
<svg version="1.1" id="レイヤー_1" xmlns="http://www.w3.org/2000/svg" xmlns:xlink="http://www.w3.org/1999/xlink" x="0px"
	 y="0px" viewBox="0 0 256 216" style="enable-background:new 0 0 256 216;" xml:space="preserve">
<style type="text/css">
	.st0{fill:#003366;}
	.st1{fill:#221815;}
	.st2{fill:#221714;}
	.st3{fill:none;stroke:#003366;stroke-width:2;stroke-miterlimit:10;}
</style>
<g>
	<g>
		<g>
			<g>
				<g>
					<path class="st0" d="M49.7,7.9l0.5,0.2c0,0.1-0.1,0.1-0.1,0.2c-0.2,1.8-0.6,3.2-1.1,4.4c1.3,1.3,3.1,1.6,5.4,1.6
						c0.5,0,3.4,0,4,0c-0.1,0.2-0.3,0.6-0.4,0.9h-3.7c-2.5,0-4.4-0.3-5.8-1.7c-0.5,0.9-1.1,1.5-1.8,2c-0.1-0.2-0.5-0.5-0.7-0.6
						c0.7-0.5,1.4-1.2,1.8-2.1c-0.5-0.7-0.9-1.5-1.2-2.6l0.9-0.4c0.2,0.8,0.6,1.5,1,2.1c0.4-0.9,0.6-2,0.8-3.2h-1.7l-0.3,0.5L46.5,9
						c0.7-1.2,1.5-2.9,2-4.1h-2.2V4.1H49h0.2l0.6,0.2c0,0.1-0.1,0.1-0.1,0.2c-0.4,0.8-1,2.1-1.7,3.4h1.5H49.7z M53.6,7.9v-1h-3.7
						V6.2h3.7v-1h-2.7V4.4h2.7V3.2l1.1,0.1c0,0.1-0.1,0.2-0.2,0.2v0.9h2.9v1.7h1.1v0.7h-1.1v1.8h-2.9v1.1h3v0.7h-3.1v1.1h3.7v0.7
						h-3.7v1.4h-0.9v-1.4H50v-0.7h3.5v-1.1h-2.9V9.7h2.9V8.6h-2.8V7.9H53.6z M54.4,5.1v1h2v-1H54.4z M56.4,7.9v-1h-2v1H56.4z"/>
					<path class="st0" d="M71.4,12.1h-4.7c1.2,0.9,3.2,1.7,5,2.1c-0.2,0.2-0.4,0.5-0.6,0.8c-1.8-0.5-3.9-1.4-5.2-2.6v2.9H65v-2.9
						c-1.3,1.2-3.4,2.1-5.1,2.6c-0.1-0.2-0.4-0.5-0.6-0.7c1.7-0.4,3.7-1.2,4.9-2.2h-4.6v-0.7H65v-1.1c-0.4,0.3-0.8,0.6-1.4,0.8
						c-0.1-0.2-0.4-0.5-0.6-0.6c1.8-0.7,2.2-1.6,2.2-2.5V6.7h4.6v2.8c0,0.5,0,0.5,0.3,0.5h0.4c0.4,0,0.4-0.1,0.5-1.4
						c0.2,0.1,0.4,0.3,0.6,0.3c0,1.3-0.1,1.7-1.1,1.7h-0.6c-0.9,0-0.9-0.5-0.9-1.2v-2h-3v0.7c0,0.7-0.2,1.5-1,2.2l1.1,0.1
						c0,0.1-0.1,0.2-0.2,0.2v0.9h5.5V12.1z M62.5,6.4c-0.1-0.4-0.4-0.9-0.6-1.3h-0.6c-0.4,0.5-0.8,1-1.2,1.4
						c-0.2-0.1-0.5-0.4-0.7-0.5c0.7-0.6,1.4-1.7,1.9-2.8l1,0.3c0,0.1-0.1,0.1-0.3,0.1c-0.1,0.2-0.2,0.4-0.3,0.6h3.6v0.7h-2.6
						c0.2,0.4,0.4,0.8,0.5,1.1L62.5,6.4z M64.4,9.6c-1.7,0.3-3.4,0.6-4.5,0.8c0,0.1-0.1,0.2-0.2,0.2l-0.2-1c0.6-0.1,1.3-0.2,2.2-0.3
						V7.5h-1.9V6.8h4.6v0.7h-1.9v1.8L64.4,9V9.6z M68.4,6.4C68.2,6,67.9,5.5,67.5,5h-1.1c-0.4,0.5-0.8,0.9-1.2,1.3
						C65,6.2,64.7,6,64.5,5.9c0.8-0.6,1.6-1.6,2-2.7l1,0.3c0,0.1-0.1,0.1-0.3,0.1C67.1,3.8,67,4,66.8,4.3h4.7V5h-3.1
						c0.3,0.4,0.6,0.8,0.7,1.1L68.4,6.4z M66.8,8c0.7,0.4,1.5,1,1.9,1.4l-0.5,0.5c-0.4-0.4-1.2-1-1.9-1.4L66.8,8z"/>
					<path class="st0" d="M76.7,12.2c0,0.1-0.1,0.1-0.3,0.1c-0.8,1-2,2-3.1,2.7c-0.2-0.2-0.5-0.4-0.7-0.6c1.1-0.6,2.3-1.7,3-2.7
						L76.7,12.2z M81.4,8.3c1.2,0.9,2.6,2.2,3.3,3.1l-0.8,0.5c-0.2-0.3-0.5-0.7-0.9-1c-1.3,0-2.7,0.1-4,0.1v4.4h-0.9v-4.3
						c-1.9,0-3.6,0.1-4.9,0.1c0,0.1-0.1,0.2-0.2,0.2l-0.3-1.1c0.8,0,1.8,0,3,0c0.4-0.3,0.8-0.6,1.2-0.9c-0.8-0.7-2-1.6-3.1-2.3
						l0.6-0.6c0.3,0.2,0.6,0.4,0.9,0.6c0.6-0.6,1.3-1.4,1.8-2c-1.3,0.1-2.6,0.1-3.8,0.2c0-0.2-0.1-0.6-0.2-0.8
						c3.5-0.1,7.7-0.4,10-0.9l0.7,0.8h-0.1c-0.1,0-0.1,0-0.2,0c-1.4,0.3-3.3,0.5-5.4,0.6l0.3,0.1c-0.1,0.1-0.2,0.1-0.3,0.1
						c-0.6,0.7-1.4,1.6-2.2,2.3c0.6,0.4,1.2,0.9,1.6,1.2c1.2-1.1,2.5-2.3,3.3-3.3l1,0.6c-0.1,0.1-0.2,0.1-0.3,0.1
						c-1.2,1.3-3,2.9-4.6,4.1c1.7,0,3.5,0,5.3-0.1c-0.5-0.5-1.1-1-1.6-1.4L81.4,8.3z M81.2,11.7c1.1,0.8,2.6,2,3.3,2.8L83.8,15
						c-0.7-0.8-2.1-2-3.3-2.8L81.2,11.7z"/>
					<path class="st0" d="M88.3,8.5v4.3c1,1.5,3,1.5,5.3,1.5c1.4,0,3.1,0,4.1-0.1c-0.1,0.2-0.2,0.6-0.3,0.9c-0.9,0-2.3,0.1-3.6,0.1
						c-2.7,0-4.6,0-5.9-1.6c-0.6,0.6-1.2,1.2-1.7,1.6c0,0.1,0,0.2-0.1,0.2l-0.5-1c0.6-0.4,1.3-1,1.9-1.6V9.3h-1.7V8.5H88.3z
						 M86.5,3.6c0.8,0.6,1.8,1.5,2.2,2.1L88,6.3c-0.4-0.7-1.3-1.6-2.1-2.2L86.5,3.6z M92.8,10.1c0-0.2,0-0.3,0-0.5V6.3h-3.7V5.6h2.4
						c-0.2-0.6-0.7-1.3-1.1-1.9l0.7-0.3c0.5,0.6,1,1.4,1.2,1.9l-0.6,0.3h3.2c-0.2-0.1-0.5-0.2-0.6-0.2c0.4-0.6,0.9-1.4,1.2-2l1,0.2
						c0,0.1-0.2,0.1-0.3,0.1c-0.3,0.5-0.8,1.3-1.3,1.8h2.6v0.8h-3.8v3.3c0,0.2,0,0.3,0,0.5h2.2v-3L97,7.2c0,0.1-0.1,0.2-0.3,0.2v4.4
						h-0.8V11h-2.3c-0.2,1.2-0.9,2.4-2.6,3.1c-0.1-0.2-0.4-0.5-0.5-0.7c1.5-0.5,2.1-1.5,2.3-2.5h-2v0.8H90V7.1l1.1,0.1
						c0,0.1-0.1,0.2-0.3,0.2v2.8L92.8,10.1L92.8,10.1z"/>
					<path class="st0" d="M98.5,13.3c1.1-0.6,2.9-1.5,4.5-2.5l0.3,0.8c-1.4,0.9-3,1.8-4,2.3c0,0.1,0,0.2-0.1,0.3L98.5,13.3z
						 M105,6.6c0.4,1.1,0.9,2.2,1.5,3.1c0.9-0.8,1.9-1.9,2.5-2.7l0.9,0.7c-0.1,0.1-0.2,0.1-0.3,0.1c-0.7,0.8-1.8,1.9-2.7,2.6
						c1,1.5,2.3,2.6,3.8,3.3c-0.2,0.2-0.5,0.5-0.6,0.8c-2.2-1.1-3.9-3.2-5.1-5.8v5.6c0,1.2-0.6,1.3-3,1.3c-0.1-0.3-0.2-0.7-0.3-0.9
						c0.4,0,0.8,0,1.1,0c1.3,0,1.3,0,1.3-0.4V6.4h-5.3V5.5h5.3V3.3l1.1,0.1c0,0.1-0.1,0.2-0.2,0.2v2h5.3v0.9L105,6.6
						C105,6.5,105,6.6,105,6.6z M100.3,7.2c0.8,0.7,1.8,1.7,2.2,2.4l-0.7,0.5c-0.4-0.7-1.3-1.8-2.1-2.5L100.3,7.2z M106.8,3.4
						c0.8,0.4,1.9,1.1,2.4,1.5l-0.5,0.6c-0.5-0.5-1.6-1.1-2.4-1.6L106.8,3.4z"/>
					<path class="st0" d="M118.1,3.8c0,0.1-0.1,0.2-0.3,0.2v0.4c0.1,1.8,0.9,7.9,5.9,10.2c-0.2,0.2-0.5,0.5-0.7,0.7
						c-3.5-1.7-5-5.2-5.6-7.9l0,0c-0.5,2.6-1.9,6-5.4,7.9c-0.2-0.2-0.4-0.5-0.7-0.7c5.4-2.7,5.5-9.1,5.6-10.9L118.1,3.8z"/>
				</g>
			</g>
			<g>
				<path class="st0" d="M6.9,11.6c0.4-0.4,0.7-0.6,1.2-0.7c0.8-0.1,1.9,0.4,1.7,2.3S8.4,15.9,7.6,16c-0.4,0.1-0.7,0-1-0.2L6.5,18
					l-0.7,0.1l0.4-5c0.1-0.6,0.1-1.2-0.1-1.8l0.6-0.2L6.9,11.6z M6.7,15.2c0.3,0.2,0.6,0.3,0.9,0.3c0.8-0.1,1.4-0.9,1.5-2.1
					c0.2-1.7-0.6-1.9-1-1.9c-0.5,0.1-0.9,0.5-1.1,1L6.7,15.2z"/>
				<path class="st0" d="M12,15.4l-0.7,0.1l0.2-2.8c0.1-0.8,0.1-1.5,0-2.1l0.7-0.1l0.1,0.9c0.4-0.6,0.9-1.1,1.6-1.2
					c0.9-0.1,1,0.8,1,1.5l-0.7,0.1c0-0.4,0.1-1.1-0.4-1s-1.5,0.9-1.6,2.6L12,15.4z"/>
				<path class="st0" d="M15.9,12.5c0.2-1.9,1.2-2.7,2.1-2.8c1.7-0.2,1.8,1.5,1.7,2.3c-0.2,1.9-1.2,2.7-2.2,2.8
					C16.7,14.9,15.7,14.5,15.9,12.5z M19,12.1c0.1-0.8,0-2-1.1-1.8s-1.3,1.3-1.4,2.1c-0.1,0.8,0,1.9,1.1,1.8S18.9,12.9,19,12.1z"/>
				<path class="st0" d="M21.1,13.8c-0.1,0.9,0.1,1.4,0.7,1.3c0.7-0.1,0.9-0.9,0.9-1l0.4-4.4l-1.4,0.2l0.1-0.6L23.9,9l-0.4,4.8
					c-0.1,1.1-1,1.7-1.6,1.8c-1,0.1-1.5-0.6-1.4-1.8H21.1z M24.1,7.8c0,0.3-0.3,0.6-0.6,0.6c-0.3,0-0.5-0.2-0.5-0.5
					c0-0.3,0.3-0.6,0.6-0.7C23.9,7.2,24.1,7.4,24.1,7.8z"/>
				<path class="st0" d="M26.3,11.3c-0.1,1.3,0.5,1.7,1.2,1.6c0.5-0.1,1.1-0.4,1.5-0.7l0.2,0.6c-0.6,0.4-1.2,0.6-1.9,0.7
					c-1.4,0.2-1.9-1-1.8-2.3s0.8-2.7,2.2-2.8c1.7-0.2,1.8,1.6,1.8,2.1v0.4L26.3,11.3z M28.8,10.4c0-0.8-0.3-1.5-1.1-1.4
					c-0.8,0.1-1.2,0.7-1.4,1.7L28.8,10.4z"/>
				<path class="st0" d="M34.3,11.8c-0.5,0.6-1,1-1.8,1.1c-0.9,0.1-2-0.3-1.9-2.2c0.2-2,1.3-2.7,2.2-2.9c0.8-0.1,1.3,0.3,1.7,0.9
					l-0.6,0.5c-0.2-0.5-0.5-0.8-1.1-0.8c-0.7,0.1-1.4,0.7-1.5,2.1c-0.1,1.5,0.6,1.9,1.2,1.8c0.5-0.1,1-0.5,1.3-1L34.3,11.8z"/>
				<path class="st0" d="M38.9,7.7l-1.7,0.2L37,10.7c0,0.5-0.1,1.1,0.5,1c0.5-0.1,0.9-0.5,1.1-1l0.6,0.1c-0.4,0.7-1,1.4-1.8,1.5
					s-1.2-0.2-1.1-1.7L36.5,8l-1,0.1l0.1-0.6l1-0.1l0.1-1.5l0.7-0.1l-0.1,1.5L39,7.1L38.9,7.7z"/>
			</g>
		</g>
		<g>
			<g>
				<g>
					<path class="st1" d="M49.3,35.8c-0.2,0.7-0.5,1.4-0.8,2.1v7.8h-1.2v-5.5c-0.2,0.3-0.5,0.6-0.7,0.9c-0.1-0.3-0.4-1.1-0.6-1.4
						c0.9-1,1.7-2.6,2.2-4.2L49.3,35.8z M55.6,43c-0.3,0.5-0.8,1-1.5,1.3c0.7,0.1,1.6,0.2,2.4,0.3c-0.2,0.3-0.5,0.7-0.7,1
						c-1.2-0.1-2.3-0.3-3.2-0.7c-0.9,0.3-1.9,0.5-3.1,0.7c-0.1-0.3-0.4-0.7-0.6-0.9c0.9-0.1,1.7-0.2,2.5-0.4
						c-0.3-0.2-0.5-0.4-0.8-0.6c-0.3,0.2-0.6,0.3-1,0.4c-0.2-0.3-0.5-0.6-0.7-0.8c1.1-0.3,2-0.8,2.6-1.3c-0.2-0.1-0.3-0.4-0.3-0.7
						c-0.3,0.4-0.6,0.8-1.1,1.1l-0.8-0.6c0.2-0.1,0.4-0.3,0.6-0.4h-0.8v-1.6h1v-2.7h1.8c0-0.1,0.1-0.3,0.1-0.4h-2.5v-0.9h6.7v0.9
						h-2.9l-0.2,0.4h2.4v2.7h0.9v1.6h-0.7c0.2,0.2,0.3,0.4,0.4,0.6l-0.8,0.5c-0.1-0.3-0.4-0.6-0.7-0.9c-0.1,0.6-0.4,0.7-1,0.7h-0.9
						c-0.1,0.1-0.2,0.2-0.3,0.3h2.2h0.2L55.6,43z M52.2,40.8v0.5c0,0.2,0.1,0.3,0.4,0.3h1c0.2,0,0.3-0.1,0.3-0.4
						c0.2,0.1,0.5,0.2,0.7,0.2c-0.1-0.1-0.2-0.2-0.3-0.3l0.8-0.4c0.1,0.1,0.2,0.1,0.2,0.2v-0.4h-1.9c0.2,0.2,0.3,0.3,0.4,0.4
						L53,41.5c-0.2-0.3-0.6-0.6-0.9-0.9h-1.9v0.5c0.1-0.1,0.2-0.2,0.3-0.3l0.7,0.4v-0.4H52.2z M51.2,37.8v0.3h3v-0.3H51.2z
						 M54.3,38.6h-3V39h3V38.6z M51.2,39.9h3v-0.4h-3V39.9z M51.7,43.4c0.3,0.2,0.7,0.4,1.1,0.6c0.5-0.2,0.8-0.4,1.1-0.6H51.7z"/>
					<path class="st1" d="M64,38.9c0.9,0.7,2,1.3,3.2,1.6c-0.3,0.3-0.7,0.8-0.9,1.1c-1.4-0.5-2.7-1.4-3.7-2.4v1.6h-1.3v-1.6
						c-0.6,0.7-1.4,1.4-2.3,1.9h4.9c-0.1,0.4-0.1,0.7-0.2,1.1h2.6c0,0,0,0.3-0.1,0.5c-0.2,1.6-0.3,2.3-0.7,2.7
						c-0.3,0.3-0.6,0.4-1,0.4s-1,0-1.6,0c0-0.4-0.2-0.9-0.4-1.2c0.6,0.1,1.2,0.1,1.5,0.1c0.2,0,0.3,0,0.5-0.1s0.3-0.5,0.4-1.2h-1.4
						c0,0.2-0.1,0.3-0.1,0.5l-1.3-0.4c0.1-0.4,0.2-0.9,0.3-1.4h-1.2c-0.3,1.6-1.1,2.9-3.4,3.6c-0.1-0.3-0.5-0.9-0.8-1.1
						c1.9-0.5,2.5-1.4,2.8-2.5h-1.3v-0.8c-0.3,0.2-0.6,0.3-0.9,0.4c-0.2-0.3-0.6-0.8-0.8-1c1.2-0.4,2.3-1,3.1-1.7h-2.8v-1.2h4.2
						v-0.7c-1.1,0.1-2.3,0.1-3.3,0.2c0-0.3-0.2-0.8-0.3-1.1c2.5-0.1,5.4-0.3,7.1-0.7l0.9,1c-0.9,0.2-2,0.3-3.2,0.4v0.8h4.2v1.2H64z"
						/>
					<path class="st1" d="M73.5,38.3c-0.5,0.1-1.2,0.3-1.9,0.4c-0.5,1.5-1.5,3.4-2.3,4.7L68,42.7c0.9-1.1,1.7-2.7,2.2-3.9
						c-0.2,0-0.4,0-0.6,0c-0.5,0-0.9,0-1.4,0v-1.3c0.5,0.1,1.1,0.1,1.5,0.1c0.3,0,0.6,0,1,0c0.2-0.6,0.3-1.3,0.3-1.8l1.5,0.2
						c-0.1,0.4-0.2,0.9-0.4,1.5c0.5-0.1,1-0.2,1.5-0.3L73.5,38.3z M75,39.3c0,0.5,0,0.9,0,1.4c0,0.3,0,0.8,0.1,1.4
						c0.9,0.4,1.7,0.9,2.3,1.4l-0.7,1.2c-0.4-0.4-0.9-0.8-1.5-1.2l0,0c0,1-0.6,1.8-2.1,1.8c-1.4,0-2.4-0.6-2.4-1.8
						c0-1.1,0.9-1.9,2.4-1.9c0.3,0,0.5,0,0.7,0c0-0.8-0.1-1.8-0.1-2.4L75,39.3C75,39.2,75,39.3,75,39.3z M73.8,42.9
						c-0.3-0.1-0.6-0.1-0.9-0.1c-0.6,0-1,0.3-1,0.6c0,0.4,0.3,0.7,0.9,0.7c0.7,0,1-0.4,1-1V42.9z M76.8,39.9
						c-0.6-0.5-1.9-1.2-2.6-1.6l0.7-1.1c0.8,0.3,2.1,1.1,2.7,1.5L76.8,39.9z"/>
					<path class="st1" d="M81.8,39.2c-0.1,1.6-0.4,2.9-0.8,3.9c1,0.8,2.4,1,4,1c0.6,0,2.9,0,3.7,0c-0.2,0.3-0.4,0.9-0.5,1.3H85
						c-1.9,0-3.4-0.2-4.5-1.1c-0.3,0.6-0.7,1.1-1.2,1.4c-0.2-0.3-0.7-0.7-1-0.9c0.5-0.4,0.9-0.8,1.3-1.5c-0.4-0.6-0.7-1.3-1-2.1
						l1-0.4c0.1,0.5,0.3,0.9,0.5,1.2c0.2-0.6,0.3-1.2,0.4-1.8h-0.7l-0.3,0.4l-1.2-0.3c0.5-1,1-2.2,1.4-3.1h-1.4v-1.1h2h0.2l0.9,0.2
						c-0.3,0.9-0.8,1.9-1.2,2.9h0.6H81L81.8,39.2z M84.2,37.1h-2v-1h2v-0.6h1.3v0.6h2.3v1.4h0.7v1h-0.8v1.4h-2.3v0.6h2.4v0.9h-2.4
						v0.5h2.9v1h-2.9v0.9h-1.3v-0.9h-2.6v-1h2.6v-0.5H82v-0.9h2.1V40H82v-1h2.1v-0.5h-2.8v-1h2.8L84.2,37.1L84.2,37.1z M85.4,37.1
						v0.4h1V37L85.4,37.1L85.4,37.1z M86.4,38.5h-1V39h1V38.5z"/>
					<path class="st1" d="M90.9,37.2c-0.3,0.4-0.6,0.7-0.9,1c-0.2-0.2-0.8-0.6-1.1-0.7c0.7-0.5,1.3-1.3,1.6-2.2l1.2,0.3
						c-0.1,0.2-0.2,0.4-0.3,0.5h2.4v0.8c0.4-0.5,0.8-1.1,1-1.7l1.2,0.3c-0.1,0.2-0.2,0.4-0.3,0.6h3.2v1H97c0.2,0.2,0.3,0.5,0.4,0.7
						l-1.1,0.3c-0.1-0.3-0.4-0.7-0.6-1h-0.6c-0.3,0.4-0.6,0.7-0.9,1c-0.3-0.2-0.8-0.5-1.1-0.6c0.1-0.1,0.3-0.2,0.4-0.4H92
						c0.1,0.3,0.3,0.5,0.3,0.7l-0.8,0.4C91.4,37.9,91.2,37.5,90.9,37.2L90.9,37.2z M95.6,43.1c0.9,0.6,2.4,1,3.7,1.2
						c-0.3,0.3-0.6,0.8-0.8,1.1c-1.3-0.3-2.7-0.9-3.7-1.7v2h-1.3v-2c-1,0.8-2.4,1.4-3.7,1.7c-0.2-0.3-0.5-0.8-0.8-1.1
						c1.3-0.2,2.7-0.7,3.6-1.2h-3.4v-1h4.3v-0.3c-0.1,0-0.1,0.1-0.2,0.1c-0.1-0.2-0.6-0.6-0.8-0.8c-1.1,0.2-2.3,0.3-3.2,0.5l-0.1-1
						c0.5-0.1,1-0.1,1.6-0.2v-1.1h-1.3v-0.9h3.9v0.9H92v0.9l1.4-0.2v0.5c0.4-0.4,0.5-0.7,0.5-1.1v-1.1h4v1.9c0,0.2,0,0.3,0,0.3
						l0.1,0.1h0.2c0.1,0,0.1,0,0.1,0s0.1-0.1,0.1-0.2c0-0.1,0-0.4,0-0.8c0.2,0.2,0.6,0.4,0.8,0.5c0,0.4-0.1,0.9-0.1,1
						c-0.1,0.2-0.2,0.3-0.4,0.4c-0.2,0.1-0.4,0.1-0.6,0.1h-0.5c-0.3,0-0.6-0.1-0.8-0.3c-0.1-0.2-0.2-0.3-0.2-0.7L96,41.2
						c-0.2-0.3-0.7-0.7-1.1-1c-0.1,0.5-0.4,0.9-0.8,1.3h0.6v0.7h4.4v1h-3.5V43.1z M95.1,39.1v0.3c0,0.2,0,0.3,0,0.5l0.6-0.5
						c0.4,0.2,0.8,0.6,1.1,0.9v-1.1h-1.7V39.1z"/>
					<path class="st1" d="M103.4,43.2c-0.7,0.9-1.7,1.8-2.6,2.3c-0.3-0.3-0.8-0.7-1.2-0.9c0.9-0.5,1.8-1.2,2.4-1.9L103.4,43.2z
						 M108.9,42.9c-0.1-0.2-0.4-0.5-0.6-0.8c-0.9,0-1.8,0.1-2.8,0.1v3.4h-1.4v-3.4c-1.5,0.1-3,0.1-4.1,0.1L99.9,41
						c0.7,0,1.5,0,2.3,0c0.2-0.2,0.5-0.4,0.7-0.6c-0.6-0.5-1.5-1.2-2.2-1.7l0.9-0.8c0.2,0.1,0.4,0.2,0.6,0.3c0.3-0.3,0.7-0.7,1-1.1
						c-0.9,0-1.8,0.1-2.6,0.1c0-0.3-0.2-0.9-0.3-1.2c2.8-0.1,6.1-0.3,8-0.7l0.9,1.1c-1.2,0.3-2.7,0.4-4.2,0.6l0,0
						c-0.5,0.6-1.2,1.3-1.8,1.8c0.3,0.2,0.6,0.4,0.8,0.6c0.9-0.8,1.8-1.6,2.4-2.4l1.3,0.7c-1,1.1-2.3,2.1-3.5,3c1,0,2,0,3-0.1
						c-0.3-0.3-0.5-0.5-0.8-0.7l1.1-0.4c0.9,0.7,2,1.8,2.6,2.6L108.9,42.9z M107.3,42.6c0.9,0.6,2,1.4,2.6,2l-1.2,0.8
						c-0.5-0.6-1.6-1.5-2.5-2.1L107.3,42.6z"/>
					<path class="st1" d="M120.5,42.8h-4.2v1.5c0,0.7-0.1,1-0.7,1.2c-0.5,0.2-1.2,0.2-2.1,0.2c-0.1-0.4-0.3-0.9-0.5-1.3
						c0.7,0,1.5,0,1.7,0s0.3,0,0.3-0.2v-1.4h-4.2v-1.2h4.2v-0.7h0.6c0.3-0.2,0.6-0.4,0.8-0.6h-3.7v-1.1h4.9l0.3-0.1l0.8,0.6
						c-0.6,0.7-1.5,1.4-2.4,1.9h4.1L120.5,42.8L120.5,42.8z M112.1,39.8h-1.2v-2.7h1.5c-0.2-0.4-0.5-0.8-0.8-1.1l1.1-0.5
						c0.4,0.4,0.8,1,1,1.4l-0.4,0.2h1.7c-0.2-0.4-0.4-1-0.7-1.4l1.2-0.4c0.4,0.5,0.7,1.1,0.9,1.6l-0.5,0.2h1.7
						c0.4-0.5,0.7-1.2,0.9-1.7l1.4,0.4c-0.3,0.4-0.6,0.9-0.9,1.2h1.5v2.7h-1.3v-1.5h-7L112.1,39.8L112.1,39.8z"/>
					<path class="st1" d="M131.3,44.1v1.3h-9.9v-1.3h4.2v-2.2h-3v-1.3h3v-1.9h-2.3c-0.3,0.6-0.7,1.2-1,1.6c-0.3-0.2-0.8-0.6-1.2-0.8
						c0.9-0.9,1.6-2.4,1.9-3.9l1.4,0.3c-0.2,0.5-0.3,1-0.5,1.6h1.7v-2h1.4v2h3.7v1.3H127v1.9h3.3V42H127v2.2L131.3,44.1L131.3,44.1z
						"/>
					<path class="st1" d="M140.4,38.3c-0.3,0.2-0.7,0.4-1.1,0.6c-0.7,0.3-2,1-3,1.6c-0.9,0.6-1.5,1.2-1.5,2s0.8,1.2,2.3,1.2
						c1.1,0,2.6-0.2,3.6-0.4v1.6c-0.9,0.2-2.1,0.3-3.5,0.3c-2.2,0-3.8-0.6-3.8-2.5c0-1.2,0.8-2.1,1.8-2.9c-0.5-0.9-1-2.1-1.5-3.2
						l1.4-0.6c0.4,1.1,0.9,2.2,1.4,3c0.9-0.5,1.8-1,2.4-1.3c0.4-0.2,0.7-0.4,1-0.7L140.4,38.3z"/>
					<path class="st1" d="M150.9,44.5c0.8,0,0.9-0.1,1-0.8c0.3,0.2,0.7,0.3,1.1,0.4c-0.2,1.2-0.5,1.5-2,1.5h-3.5
						c-1.9,0-2.4-0.3-2.4-1.6v-3h-0.4v0.4c0,1.1-0.2,3-1.5,4.4c-0.2-0.3-0.5-0.7-0.7-0.9c1-1.1,1.2-2.6,1.2-3.5V41H143v-4.4h1.4
						c0.1-0.4,0.2-0.9,0.3-1.2l1.3,0.2c-0.1,0.4-0.3,0.8-0.4,1.1h2v4.4h-1.3v2h0.1c0.1-0.6,0.2-1.3,0.3-1.9l0.9,0.2
						c-0.2,0.5-0.3,1.1-0.4,1.6l0.5-0.1c-0.1-0.2-0.1-0.4-0.2-0.6l0.6-0.2c0.2,0.5,0.4,1.2,0.5,1.7L148,44c0-0.1-0.1-0.3-0.1-0.5
						c-0.5,0.1-0.9,0.2-1.4,0.4l-0.2-0.4v0.6c0,0.5,0.2,0.6,1.3,0.6h3.3L150.9,44.5L150.9,44.5z M143.9,38.3h0.8v-0.7h-0.8V38.3z
						 M143.9,39.9h0.8v-0.7h-0.8V39.9z M146.4,37.6h-0.8v0.7h0.8V37.6z M146.4,39.2h-0.8v0.7h0.8V39.2z M149.7,41.2
						c-0.3,0.8-0.7,1.5-1.2,2c-0.1-0.3-0.3-0.9-0.5-1.2c0.4-0.5,0.9-1.3,1.2-2h-1.3v-1.1h1.7v-1h-1.5v-1.1h1.5v-1.3h1.2v1.3h1.5v1.1
						h-1.5v1h1.7V40h-1.2c0.4,0.8,0.9,1.7,1.5,2.2c-0.3,0.2-0.7,0.6-0.9,0.9c-0.4-0.5-0.8-1.4-1.2-2.2v3h-1.2v-2.7
						C149.5,41.2,149.7,41.2,149.7,41.2z"/>
					<path class="st1" d="M163,37.7c0,0,0,0.5,0,0.6c-0.2,4.4-0.4,6-0.9,6.6c-0.3,0.4-0.6,0.5-1.1,0.6c-0.4,0.1-1.1,0.1-1.8,0
						c0-0.4-0.2-1-0.5-1.4c0.7,0.1,1.3,0.1,1.6,0.1c0.2,0,0.4,0,0.5-0.2c0.3-0.3,0.5-1.8,0.7-5h-3c-0.2,2.3-0.9,5-4,6.7
						c-0.2-0.3-0.7-0.8-1-1.1c2.7-1.5,3.5-3.7,3.7-5.6h-3.3v-1.3h3.4v-2.3h1.4v2.3C158.7,37.7,163,37.7,163,37.7z"/>
					<path class="st1" d="M174,37.1c0,0,0,0.4,0,0.6c-0.1,4.9-0.3,6.7-0.7,7.2c-0.3,0.4-0.6,0.5-1.1,0.6c-0.4,0.1-1.1,0-1.7,0
						c0-0.4-0.2-0.9-0.4-1.3c0.7,0.1,1.4,0.1,1.6,0.1c0.2,0,0.3,0,0.5-0.2c0.3-0.4,0.5-2,0.6-5.9h-2.4c-0.3,0.7-0.6,1.3-1,1.7
						c-0.2-0.2-0.5-0.4-0.8-0.6v5.2h-2.9v0.8h-1.2v-8.2h1.2c0.1-0.6,0.3-1.3,0.3-1.8l1.4,0.2c-0.2,0.5-0.4,1.1-0.6,1.6h1.7v1.8
						c0.6-0.9,1.2-2.3,1.5-3.5l1.2,0.3c-0.1,0.5-0.3,0.9-0.4,1.4H174z M167.4,38.3h-1.7v1.8h1.7V38.3z M167.4,43.4v-2.2h-1.7v2.2
						H167.4z M171.1,42.8c-0.3-0.7-1-1.7-1.5-2.5l1-0.6c0.6,0.8,1.3,1.8,1.6,2.4L171.1,42.8z"/>
					<path class="st1" d="M180.7,38.3c-0.5,0.1-1.2,0.3-1.9,0.4c-0.5,1.5-1.5,3.4-2.3,4.7l-1.3-0.7c0.9-1.1,1.7-2.7,2.2-3.9
						c-0.2,0-0.4,0-0.6,0c-0.5,0-0.9,0-1.4,0l-0.1-1.3c0.5,0.1,1.1,0.1,1.5,0.1c0.3,0,0.6,0,1,0c0.2-0.6,0.3-1.3,0.3-1.8l1.5,0.2
						c-0.1,0.4-0.2,0.9-0.4,1.5c0.5-0.1,1-0.2,1.5-0.3V38.3z M182.1,39.3c0,0.5,0,0.9,0,1.4c0,0.3,0,0.8,0.1,1.4
						c0.9,0.4,1.7,0.9,2.3,1.4l-0.7,1.2c-0.4-0.4-0.9-0.8-1.5-1.2l0,0c0,1-0.6,1.8-2.1,1.8c-1.4,0-2.4-0.6-2.4-1.8
						c0-1.1,0.9-1.9,2.4-1.9c0.3,0,0.5,0,0.7,0c0-0.8-0.1-1.8-0.1-2.4L182.1,39.3L182.1,39.3z M180.9,42.9c-0.3-0.1-0.6-0.1-0.9-0.1
						c-0.6,0-1,0.3-1,0.6c0,0.4,0.3,0.7,0.9,0.7c0.7,0,1-0.4,1-1V42.9z M184,39.9c-0.6-0.5-1.9-1.2-2.6-1.6l0.7-1.1
						c0.8,0.3,2.1,1.1,2.7,1.5L184,39.9z"/>
					<path class="st1" d="M191.1,35.3c1.2,1.7,3,3.2,4.8,4c-0.3,0.3-0.6,0.8-0.9,1.2c-1.7-0.9-3.5-2.5-4.5-3.9
						c-0.9,1.3-2.6,2.9-4.4,3.9c-0.2-0.3-0.5-0.8-0.8-1.1c1.9-1,3.7-2.7,4.5-4.1C189.8,35.3,191.1,35.3,191.1,35.3z M191.3,44.2h3.9
						v1.2h-9.4v-1.2h1.2v-3.8h1.3v3.8h1.6v-5.7h1.4v2.4h2.9v1.2h-2.9V44.2z"/>
					<path class="st1" d="M203,43.2c0.9,0.6,2.2,1,3.5,1.2c-0.3,0.3-0.7,0.8-0.9,1.2c-1.4-0.3-2.7-1-3.7-1.9v2h-1.3v-1.9
						c-1,0.8-2.4,1.4-3.7,1.8c-0.2-0.3-0.6-0.8-0.8-1.1c1.2-0.3,2.5-0.7,3.5-1.3h-3.2v-1.1h4.2v-0.5h-3.2v-0.9h3.2v-0.5h-3.7v-1h2.1
						c-0.1-0.3-0.2-0.6-0.4-0.9h0.1h-2.3v-1.1h1.5c-0.2-0.4-0.4-0.9-0.7-1.4l1.1-0.4c0.3,0.5,0.7,1.1,0.8,1.6l-0.5,0.2h1v-1.8h1.2
						v1.8h0.8v-1.8h1.2v1.8h1l-0.4-0.1c0.3-0.5,0.5-1.1,0.7-1.6l1.4,0.3c-0.3,0.5-0.6,1-0.9,1.4h1.4v1.1h-2.1
						c-0.2,0.3-0.4,0.6-0.5,0.9h2.2v1h-3.8v0.5h3.3v0.9h-3.3v0.5h4.3v1.1H203z M200,38.2c0.2,0.3,0.3,0.6,0.4,0.8h-0.2h2.1
						c0.1-0.3,0.3-0.6,0.4-0.9H200V38.2z"/>
					<path class="st1" d="M211.7,43.9c0.4-0.1,0.7-0.1,1-0.2c1.4-0.3,2.5-1.3,2.5-2.9c0-1.5-0.8-2.6-2.3-2.9c-0.2,0.9-0.3,1.9-0.6,3
						c-0.6,2.2-1.6,3.5-2.8,3.5s-2.2-1.3-2.2-3.2c0-2.5,2.2-4.7,5-4.7c2.7,0,4.4,1.9,4.4,4.3c0,2.3-1.4,3.9-4.2,4.3L211.7,43.9z
						 M210.8,40.6c0.3-0.8,0.5-1.7,0.6-2.6c-1.8,0.4-2.8,2-2.8,3.2c0,1.1,0.4,1.6,0.8,1.6C209.9,42.7,210.4,42,210.8,40.6z"/>
					<path class="st1" d="M56.3,51c-0.2,0.2-0.3,0.3-0.4,0.5c-0.8,1.3-2.2,3-3.8,4.3c0.6,0.6,1.3,1.3,1.7,1.9l-1.3,1
						c-0.5-0.6-1.4-1.6-2.1-2.4c-0.6-0.6-1.8-1.6-2.4-2.1l1.2-0.9c0.4,0.3,1.2,0.9,1.9,1.5c1.2-1,2.3-2.3,2.8-3.2h-5.8
						c-0.4,0-1,0.1-1.3,0.1v-1.5c0.3,0,0.9,0.1,1.3,0.1h6.1c0.4,0,0.8,0,1-0.1L56.3,51z"/>
					<path class="st1" d="M60.5,54.5L59.2,55c-0.2-0.6-0.7-2.1-1-2.5l1.3-0.5C59.8,52.5,60.3,53.8,60.5,54.5z M66.1,52.2
						c-0.1,0.4-0.2,0.6-0.3,0.8c-0.3,1.1-0.7,2.3-1.5,3.2c-1,1.3-2.4,2.2-3.7,2.7l-1.1-1.2c1.2-0.3,2.7-1.2,3.7-2.3
						c0.7-0.9,1.3-2.4,1.4-3.8L66.1,52.2z M63,53.8l-1.3,0.5c-0.1-0.5-0.6-1.9-0.9-2.4l1.3-0.4C62.3,51.8,62.8,53.3,63,53.8z"/>
					<path class="st1" d="M76.4,52.7c0.2,0,0.8,0,1-0.1V54c-0.3,0-0.7,0-1,0h-2.8c-0.2,1.8-1,3.4-2.8,4.5l-1.4-0.9
						c1.7-0.8,2.6-1.9,2.8-3.6h-3c-0.3,0-0.7,0-1,0v-1.4c0.3,0,0.7,0.1,1,0.1h3.1v-1.6c-1.1,0.1-2.2,0.1-2.9,0.1l-0.3-1.3
						c0.8,0,2.5,0,3.8-0.2c1.1-0.2,2.2-0.4,2.8-0.7l0.9,1.2c-0.6,0.3-0.9,0.3-1.1,0.4c-0.5,0.1-1.2,0.3-1.8,0.4v1.7H76.4z"/>
					<path class="st1" d="M83.4,55.4c1.9-1.1,3.3-2.8,4-4.3l0.9,1.6c-0.8,1.5-2.3,3-4.1,4.1c-1.1,0.7-2.5,1.3-4.1,1.6l-0.9-1.5
						C80.9,56.6,82.4,56.1,83.4,55.4z M83.4,51.9l-1.1,1.2c-0.6-0.6-1.9-1.8-2.8-2.4l1-1.1C81.4,50.1,82.8,51.2,83.4,51.9z"/>
					<path class="st1" d="M97.3,50.7l0.9,0.6c-0.1,0.2-0.3,0.5-0.4,0.8c-0.3,1-0.9,2.5-1.9,3.7c-1,1.3-2.4,2.3-4.4,3.1l-1.3-1.2
						c2.2-0.7,3.5-1.6,4.4-2.7c0.7-0.8,1.4-2.2,1.6-3h-3.1c-0.7,1-1.7,1.9-2.8,2.7l-1.2-0.9c1.9-1.2,2.9-2.6,3.4-3.5
						c0.2-0.3,0.4-0.8,0.5-1.2l1.6,0.5c-0.3,0.4-0.5,0.9-0.7,1.1v0.1h2.2c0.3,0,0.7-0.1,1-0.1h0.1c-0.2-0.4-0.5-1-0.8-1.4l0.9-0.4
						c0.3,0.4,0.7,1.1,0.9,1.5L97.3,50.7z M98.5,48.4c0.3,0.4,0.7,1.1,0.9,1.5l-0.9,0.4c-0.2-0.5-0.6-1.1-0.9-1.5L98.5,48.4z"/>
					<path class="st1" d="M109.4,55.6c-0.3,0.6-0.7,1.2-1.2,1.7c0.2,0.3,0.5,0.5,0.7,0.5s0.4-0.2,0.4-1.1c0.2,0.3,0.6,0.5,0.8,0.6
						c-0.2,1.2-0.5,1.6-1.4,1.6c-0.6,0-1.1-0.3-1.5-0.9c-0.5,0.4-1.1,0.6-1.7,0.9c-0.1-0.2-0.5-0.6-0.7-0.8c0.7-0.3,1.3-0.6,1.8-1
						c-0.2-0.5-0.4-1.1-0.5-1.8h-1.2c0,0.1,0,0.3-0.1,0.4c0.5,0.3,1,0.7,1.3,1l-0.7,0.9c-0.2-0.2-0.5-0.5-0.8-0.7
						c-0.3,0.8-0.7,1.6-1.5,2.1c-0.1-0.3-0.5-0.7-0.7-0.9c1-0.6,1.2-1.7,1.4-2.8h-0.7v-0.5l-0.4,0.6c-0.1-0.3-0.3-0.8-0.6-1.3v4.8
						h-1.2v-4.1c-0.3,0.8-0.6,1.5-0.9,2.1c-0.1-0.3-0.4-0.8-0.5-1.1c0.6-0.9,1.1-2.4,1.3-3.7h-1.1v-1.2h1.2v-2.3h1.2v2.3h1
						c-0.1-0.1-0.2-0.1-0.2-0.2l0.5-0.7l0.2,0.1c0.2-0.5,0.4-1,0.5-1.4l1,0.4c-0.3,0.5-0.6,1.1-0.9,1.6c0.1,0.1,0.2,0.2,0.3,0.3
						c0.2-0.4,0.4-0.7,0.6-1.1l0.7,0.4c0-0.5,0-1,0-1.6h1.2c0,0.6,0,1.2,0,1.8l0.3-0.5l0.2,0.1c0.2-0.5,0.4-1,0.5-1.4l1,0.4
						c-0.3,0.5-0.6,1.1-0.9,1.6c0.1,0.1,0.2,0.2,0.3,0.3c0.2-0.4,0.4-0.7,0.6-1.1l0.9,0.4c-0.4,0.7-1,1.5-1.5,2.1h0.7
						c-0.1-0.2-0.1-0.3-0.2-0.5l0.7-0.3c0.3,0.5,0.5,1.2,0.6,1.6l-0.8,0.3c0-0.1,0-0.3-0.1-0.4l-0.8,0.1c0.3,0.2,0.7,0.5,0.8,0.7
						l-0.2,0.2h0.8v1h-1.5L109.4,55.6z M106.1,54.2c0-0.2-0.1-0.5-0.1-0.7l-0.7,0.3c0-0.1,0-0.2,0-0.3c-0.7,0.1-1.4,0.2-2,0.2
						l-0.2-1h0.3c0.2-0.3,0.4-0.6,0.7-1c-0.2-0.3-0.5-0.6-0.8-0.8v1.2h-1v0.4c0.2,0.3,0.8,1.2,1,1.6h2.8
						C106.1,54.1,106.1,54.2,106.1,54.2z M105.6,51.8c0.2,0.4,0.3,0.8,0.4,1.2c-0.1-0.8-0.1-1.6-0.2-2.5c-0.4,0.7-1,1.5-1.4,2.1h0.6
						c-0.1-0.2-0.1-0.3-0.2-0.5L105.6,51.8z M107.3,52.5c0.2-0.2,0.4-0.5,0.6-0.8c-0.2-0.3-0.6-0.6-0.9-0.9c0,0.6,0,1.2,0.1,1.7
						H107.3z M108.2,54.2c-0.2-0.1-0.4-0.3-0.5-0.4l0.5-0.4c-0.3,0-0.7,0.1-1,0.1l-0.1-0.3c0,0.4,0.1,0.7,0.1,1
						C107.2,54.2,108.2,54.2,108.2,54.2z M107.4,55.2c0.1,0.4,0.2,0.7,0.3,1c0.3-0.3,0.5-0.6,0.6-1H107.4z"/>
					<path class="st1" d="M113,52.3c-0.6,0.4-1.2,0.8-1.9,1.1c-0.2-0.3-0.5-0.8-0.8-1.1c1.9-0.8,3.6-2.4,4.4-3.7h1.4
						c1.2,1.6,2.9,2.9,4.7,3.5c-0.3,0.3-0.6,0.8-0.8,1.2c-0.6-0.3-1.2-0.6-1.8-1.1v0.9h-5.1L113,52.3L113,52.3z M111.1,54h9.1v1.2
						h-4.9c-0.3,0.6-0.7,1.3-1,1.9c1.1,0,2.2-0.1,3.3-0.1c-0.3-0.4-0.7-0.8-1.1-1.1l1.2-0.6c1,0.9,2,2,2.5,2.8l-1.2,0.7
						c-0.1-0.2-0.3-0.4-0.4-0.7c-2.6,0.1-5.3,0.3-7.2,0.3l-0.2-1.3l1.7-0.1c0.3-0.6,0.6-1.3,0.8-2h-2.6C111.1,55,111.1,54,111.1,54z
						 M117.7,51.9c-0.8-0.6-1.6-1.4-2.1-2c-0.5,0.7-1.2,1.4-2,2H117.7z"/>
					<path class="st1" d="M125.8,49.3c-0.1,0.3-0.1,0.6-0.2,0.9c-0.1,0.3-0.2,0.7-0.2,1.1c0.4,0,0.7,0,0.9,0c1.2,0,2,0.5,2,2.1
						c0,1.3-0.2,3-0.6,4c-0.4,0.8-1,1-1.8,1c-0.4,0-0.9-0.1-1.3-0.2l-0.2-1.4c0.4,0.1,1.1,0.2,1.3,0.2c0.4,0,0.6-0.1,0.8-0.5
						c0.3-0.6,0.4-1.9,0.4-3c0-0.9-0.4-1-1.1-1c-0.2,0-0.4,0-0.7,0c-0.4,1.7-1.2,4.2-2.2,5.8l-1.4-0.6c1.1-1.4,1.8-3.6,2.2-5.1
						c-0.4,0-0.7,0.1-0.9,0.1c-0.3,0-0.9,0.1-1.2,0.2l-0.1-1.5c0.4,0,0.8,0,1.2,0c0.3,0,0.9,0,1.4-0.1c0.2-0.8,0.2-1.6,0.2-2.3
						L125.8,49.3z M129.7,50.6c0.6,1,1.5,2.8,1.8,3.8l-1.4,0.6c-0.3-1.2-1.1-3.1-1.8-4.1l1-0.4c-0.2-0.4-0.5-0.9-0.7-1.3l0.9-0.4
						c0.3,0.4,0.7,1.1,0.9,1.5L129.7,50.6z M130.7,50.3c-0.2-0.5-0.6-1.1-0.9-1.5l0.9-0.4c0.3,0.4,0.7,1.1,0.9,1.5L130.7,50.3z"/>
					<path class="st1" d="M135.3,50.3c-0.5,1.4-1.3,3-2.3,3.9c-0.3-0.2-0.9-0.6-1.2-0.8c0.9-0.9,1.7-2.4,2-3.5L135.3,50.3z
						 M140.6,53.6c-1.1,3.4-3.3,4.7-7.2,5.3c-0.1-0.4-0.4-1-0.7-1.3c3.6-0.4,5.6-1.5,6.5-4.4L140.6,53.6z M137.7,48.6v5.3
						c0,0.7-0.1,1.1-0.6,1.3s-1.1,0.3-2,0.3c-0.1-0.4-0.3-1-0.5-1.4c0.6,0,1.3,0,1.5,0s0.3,0,0.3-0.2v-5.3
						C136.4,48.6,137.7,48.6,137.7,48.6z M139.9,49.8c0.9,1.1,1.9,2.6,2.3,3.6l-1.3,0.7c-0.3-1-1.3-2.6-2.2-3.7L139.9,49.8z"/>
					<path class="st1" d="M148.5,51.5c-0.5,0.1-1.2,0.3-1.9,0.4c-0.5,1.5-1.5,3.4-2.3,4.7l-1.3-0.7c0.9-1.1,1.7-2.7,2.2-3.9
						c-0.2,0-0.4,0-0.6,0c-0.5,0-0.9,0-1.4,0l-0.1-1.3c0.5,0.1,1.1,0.1,1.5,0.1c0.3,0,0.6,0,1,0c0.2-0.6,0.3-1.3,0.3-1.8l1.5,0.2
						c-0.1,0.4-0.2,0.9-0.4,1.5c0.5-0.1,1-0.2,1.5-0.3V51.5z M150,52.5c0,0.5,0,0.9,0,1.4c0,0.3,0,0.8,0.1,1.4
						c0.9,0.4,1.7,0.9,2.3,1.4l-0.7,1.2c-0.4-0.4-0.9-0.8-1.5-1.2v0.1c0,1-0.6,1.8-2.1,1.8c-1.4,0-2.4-0.6-2.4-1.8
						c0-1.1,0.9-1.9,2.4-1.9c0.3,0,0.5,0,0.7,0c0-0.8-0.1-1.8-0.1-2.4H150z M148.8,56.1c-0.3-0.1-0.6-0.1-0.9-0.1
						c-0.6,0-1,0.3-1,0.6c0,0.4,0.3,0.7,0.9,0.7c0.7,0,1-0.4,1-1V56.1z M151.8,53.1c-0.6-0.5-1.9-1.2-2.6-1.6l0.7-1.1
						c0.8,0.3,2.1,1.1,2.7,1.5L151.8,53.1z"/>
					<path class="st1" d="M155.7,51.4c0,0.7,0,1.5,0.1,2.3c0.2,1.6,0.5,2.6,1.2,2.6c0.5,0,0.9-1.3,1.2-2.1l1.1,1.3
						c-0.7,1.9-1.4,2.6-2.3,2.6c-1.2,0-2.2-1.1-2.5-4c-0.1-1-0.1-2.3-0.1-2.9c0-0.3,0-0.8-0.1-1.1h1.7
						C155.7,50.5,155.7,51.1,155.7,51.4z M163.2,55.9l-1.4,0.5c-0.2-1.7-0.7-4.3-1.9-5.7l1.4-0.5C162.3,51.6,163.1,54.2,163.2,55.9z
						"/>
				</g>
			</g>
			<g>
				<path class="st0" d="M7.5,40.4v0.5H4.3v-0.5H7.5z M7.3,44.1v2.6H5.2v0.4H4.7V44L7.3,44.1L7.3,44.1z M7.3,41.7v0.5H4.7v-0.5H7.3z
					 M4.7,43.4v-0.5h2.6v0.5H4.7z M7.2,39.2v0.5H4.8v-0.5H7.2z M6.8,44.6H5.2v1.6h1.5v-1.6H6.8z M12.6,44.2h-1.8
					c0.5,0.8,1.3,1.7,2,2.1c-0.1,0.1-0.3,0.3-0.4,0.5c-0.7-0.5-1.4-1.4-1.9-2.3v2.7H9.8v-2.6c-0.5,0.9-1.3,1.8-2.1,2.2
					c0-0.1-0.2-0.3-0.3-0.4C8.2,46,9,45.1,9.5,44.2H7.7v-0.5h2.2v-0.8H8v-3.5h4.3v3.5h-1.9v0.8h2.2C12.6,43.7,12.6,44.2,12.6,44.2z
					 M8.6,39.8v1h1.3v-1H8.6z M8.6,41.3v1h1.3v-1H8.6z M11.7,40.8v-1h-1.3v1H11.7z M11.7,42.3v-1h-1.3v1H11.7z"/>
				<path class="st0" d="M15.3,44.8v1.3c0.8,0.3,1.7,0.4,2.9,0.4c0.4,0,2.6,0,3.1,0c-0.1,0.1-0.2,0.4-0.2,0.5h-2.9
					c-2,0-3.4-0.2-4.3-1.5c-0.1,0.6-0.3,1.3-0.7,1.7c-0.1-0.1-0.2-0.3-0.4-0.3c0.6-0.7,0.7-1.9,0.8-3.1l0.7,0.1
					c0,0.1-0.1,0.1-0.2,0.1c0,0.3,0,0.6-0.1,0.9c0.2,0.4,0.4,0.7,0.7,0.9v-2.5h-1.8v-0.5H17v0.5h-1.7v1h1.6v0.5
					C16.9,44.8,15.3,44.8,15.3,44.8z M16.5,39.3v2.8h-3v-2.8H16.5z M15.9,40.5v-0.7H14v0.7H15.9z M15.9,41.7V41H14v0.7H15.9z
					 M18.7,45c0,0.1-0.1,0.1-0.2,0.1c-0.4,0.4-1,0.9-1.6,1.2c-0.1-0.1-0.3-0.3-0.4-0.4c0.5-0.2,1.2-0.7,1.5-1.1L18.7,45z M17.4,40.7
					h1.1c0.1-0.2,0.2-0.5,0.3-0.8h-1.7v-0.5h4.2v0.5h-1.9c-0.1,0.2-0.2,0.5-0.3,0.8h1.7v4h-3.3v-4H17.4z M20.1,41.8v-0.7h-2.2v0.7
					H20.1z M20.1,43v-0.7h-2.2V43H20.1z M20.1,44.2v-0.7h-2.2v0.7H20.1z M20.7,46.2c-0.3-0.3-0.9-0.8-1.4-1.2l0.4-0.3
					c0.5,0.4,1.1,0.8,1.5,1.2L20.7,46.2z"/>
			</g>
		</g>
		<g>
			<g>
				<g>
					<path d="M49.3,77.1h1.3l-0.1,0.6h-3.4l0.1-0.6h1.3l1.3-6l-1.5,0.4l0.1-0.6l2.3-0.7L49.3,77.1z"/>
					<path d="M52.7,76.3c0.4,0,0.7,0.3,0.6,0.8c-0.1,0.4-0.5,0.8-1,0.8c-0.4,0-0.7-0.3-0.6-0.8C51.8,76.7,52.3,76.3,52.7,76.3z"/>
					<path class="st2" d="M56.7,75.2c-0.1,0.9-0.4,1.9-0.7,2.5c-0.1-0.1-0.4-0.2-0.6-0.3c0.3-0.6,0.5-1.5,0.6-2.4L56.7,75.2z
						 M58.5,72.6c0.4,0.6,0.8,1.5,1,2l-0.6,0.3c0-0.2-0.1-0.4-0.2-0.6l-0.9,0.1v4.1h-0.7v-4.1l-1.5,0.1l-0.1-0.7c0.2,0,0.4,0,0.7,0
						c0.2-0.3,0.4-0.6,0.7-0.9c-0.3-0.4-0.8-1-1.3-1.4L56,71c0.1,0.1,0.2,0.2,0.3,0.3c0.3-0.6,0.7-1.3,0.9-1.9l0.7,0.2
						c-0.3,0.7-0.8,1.5-1.1,2c0.2,0.2,0.4,0.5,0.6,0.7c0.4-0.6,0.8-1.3,1.1-1.8l0.6,0.3c-0.6,0.9-1.4,2.1-2.1,3c0.5,0,1,0,1.6-0.1
						c-0.1-0.3-0.3-0.6-0.5-0.9L58.5,72.6z M58.8,75c0.3,0.6,0.6,1.4,0.7,1.9l-0.6,0.2c-0.1-0.5-0.4-1.3-0.6-1.9L58.8,75z
						 M64.5,71.5c-0.2,4.5-0.3,6-0.7,6.5c-0.2,0.3-0.5,0.4-0.8,0.4s-0.9,0-1.5,0c0-0.2-0.1-0.5-0.2-0.7c0.7,0.1,1.3,0.1,1.5,0.1
						s0.3,0,0.4-0.1c0.3-0.3,0.5-1.9,0.6-5.8h-3.3c-0.3,0.5-0.6,1-0.9,1.4c-0.1-0.1-0.5-0.3-0.6-0.4c0.8-0.8,1.4-2.1,1.8-3.5
						l0.7,0.2c-0.2,0.6-0.4,1.1-0.6,1.6h3.6V71.5z M61.6,75.9c-0.2-0.6-0.8-1.6-1.3-2.3l0.6-0.3c0.6,0.7,1.2,1.6,1.4,2.3L61.6,75.9z
						"/>
					<path class="st2" d="M64.6,77h1.6v-5.5h-1.3v-0.6c0.6-0.1,1.1-0.3,1.5-0.5h0.7V77h1.5v0.8h-4C64.6,77.8,64.6,77,64.6,77z"/>
					<path class="st2" d="M68.3,74c0-2.5,0.9-3.8,2.3-3.8s2.3,1.2,2.3,3.8c0,2.5-0.9,3.8-2.3,3.8C69.2,77.9,68.3,76.6,68.3,74z
						 M72,74c0-2.1-0.6-3-1.4-3s-1.4,0.9-1.4,3c0,2.2,0.6,3.1,1.4,3.1C71.5,77.1,72,76.2,72,74z"/>
					<path class="st2" d="M72.9,74c0-2.5,0.9-3.8,2.3-3.8s2.3,1.2,2.3,3.8c0,2.5-0.9,3.8-2.3,3.8C73.8,77.9,72.9,76.6,72.9,74z
						 M76.6,74c0-2.1-0.6-3-1.4-3s-1.4,0.9-1.4,3c0,2.2,0.6,3.1,1.4,3.1C76.1,77.1,76.6,76.2,76.6,74z"/>
					<path class="st2" d="M77.6,74c0-2.5,0.9-3.8,2.3-3.8s2.3,1.2,2.3,3.8c0,2.5-0.9,3.8-2.3,3.8C78.4,77.9,77.6,76.6,77.6,74z
						 M81.2,74c0-2.1-0.6-3-1.4-3s-1.4,0.9-1.4,3c0,2.2,0.6,3.1,1.4,3.1C80.7,77.1,81.2,76.2,81.2,74z"/>
					<path class="st2" d="M86.4,69.7c0,0.1,0,0.3,0,0.5c0.1,1.3,0.6,5.9,4.4,7.7c-0.2,0.2-0.4,0.4-0.5,0.6c-2.6-1.2-3.7-3.8-4.2-5.8
						c-0.4,2-1.5,4.4-4,5.8c-0.1-0.2-0.4-0.4-0.6-0.6c4-2.1,4-6.8,4.1-8.2H86.4z"/>
					<path class="st2" d="M94,77.2c0.3,0,0.6-0.1,0.8-0.1c1.3-0.3,2.5-1.2,2.5-2.9c0-1.5-0.9-2.7-2.6-2.9c-0.1,0.9-0.3,1.9-0.6,2.8
						c-0.6,2-1.4,3.1-2.3,3.1s-1.8-1-1.8-2.6c0-2.1,1.9-4,4.3-4c2.3,0,3.8,1.6,3.8,3.6c0,2.1-1.4,3.5-3.7,3.8L94,77.2z M93.4,74
						c0.2-0.8,0.4-1.8,0.5-2.7c-1.9,0.2-3.1,1.9-3.1,3.2c0,1.2,0.6,1.8,1,1.8C92.3,76.3,92.9,75.7,93.4,74z"/>
					<path class="st2" d="M100.1,73.7c-0.4-0.3-1.1-0.8-1.8-1l0.4-0.5c0.6,0.2,1.4,0.6,1.8,1L100.1,73.7z M98.6,77.9
						c0.5-0.8,1.2-2.1,1.7-3.2l0.6,0.4c-0.5,1.1-1.1,2.3-1.6,3.2L98.6,77.9z M100.5,71.1c-0.4-0.4-1.1-0.8-1.7-1.1l0.4-0.5
						c0.6,0.3,1.4,0.7,1.8,1L100.5,71.1z M103.4,73.9c-0.2-0.2-0.5-0.6-0.8-0.9c-0.2,0.6-0.7,1.1-1.4,1.6c-0.1-0.1-0.3-0.4-0.5-0.5
						c0.9-0.5,1.2-1.2,1.4-1.9h-1.2v-0.6h1.3c0-0.2,0-0.3,0-0.5v-0.3h-1.1v-0.6h1.1v-0.9h0.7v0.9h1v0.6h-1v0.3c0,0.1,0,0.3,0,0.5h1
						v0.6h-1.1c0,0.1,0,0.2-0.1,0.2c0.3,0.2,1,0.8,1.1,0.9L103.4,73.9z M101.6,74.6h5v3.9h-0.7v-0.4h-3.6v0.4h-0.7
						C101.6,78.5,101.6,74.6,101.6,74.6z M102.3,75.2V76h3.6v-0.8H102.3z M105.9,77.4v-0.9h-3.6v0.9H105.9z M106.1,72.3
						c0.3,0.7,0.8,1.3,1.4,1.6c-0.2,0.1-0.4,0.4-0.5,0.5c-0.6-0.3-1.1-0.9-1.4-1.7c-0.2,0.6-0.7,1.2-1.4,1.6
						c-0.1-0.1-0.3-0.4-0.4-0.5c0.8-0.4,1.2-1.1,1.4-1.7h-1v-0.6h1.1c0-0.2,0-0.4,0-0.5v-0.2h-1.1v-0.6h1.1v-0.9h0.7v0.9h1.2v0.6
						H106V71c0,0.2,0,0.3,0,0.5h1.4v0.6h-1.3C106.1,72.1,106.1,72.3,106.1,72.3z"/>
					<path class="st2" d="M116.1,70.9v0.7h-5.4c-0.4,0.7-0.7,1.4-1.2,2v4.9h-0.7v-4c-0.4,0.4-0.7,0.7-1.2,1
						c-0.1-0.2-0.3-0.5-0.4-0.7c1.1-0.8,2-2,2.6-3.3h-2.4v-0.7h2.7c0.2-0.5,0.4-1,0.5-1.5l0.8,0.2c-0.1,0.4-0.3,0.9-0.5,1.4H116.1z
						 M113.5,77.6h2.6v0.7h-6v-0.7h2.6v-2.8h-2.2v-0.7h2.2v-1.9h0.7v1.9h2.2v0.7h-2.1V77.6z"/>
					<path class="st2" d="M115.9,73.8c0.3-0.7,0.4-1.7,0.5-2.6l0.6,0.1c0,0.8-0.2,1.9-0.5,2.7L115.9,73.8z M117.3,69.4h0.7v9.1h-0.7
						V69.4z M118.6,71c0.3,0.5,0.6,1.2,0.7,1.7l-0.6,0.3c-0.1-0.4-0.4-1.1-0.7-1.7L118.6,71z M125,77.4v0.7h-6.1v-0.7h2.9v-2.5h-2.1
						v-0.7h2.1v-2.1h-1.5c-0.2,0.6-0.4,1.1-0.7,1.5c-0.1-0.1-0.5-0.3-0.7-0.3c0.6-0.9,1-2.2,1.2-3.6l0.7,0.1c-0.1,0.5-0.2,1-0.4,1.5
						h1.2v-2.1h0.7v2.3h2.3v0.7h-2.1v2.1h2V75h-2v2.5L125,77.4L125,77.4z"/>
					<path class="st2" d="M128.9,77.2c0.3,0,0.6-0.1,0.8-0.1c1.3-0.3,2.5-1.2,2.5-2.9c0-1.5-0.9-2.7-2.6-2.9
						c-0.1,0.9-0.3,1.9-0.6,2.8c-0.6,2-1.4,3.1-2.3,3.1s-1.8-1-1.8-2.6c0-2.1,1.9-4,4.3-4c2.3,0,3.8,1.6,3.8,3.6
						c0,2.1-1.4,3.5-3.7,3.8L128.9,77.2z M128.3,74c0.3-0.8,0.4-1.8,0.5-2.7c-1.9,0.2-3.1,1.9-3.1,3.2c0,1.2,0.6,1.8,1,1.8
						C127.2,76.3,127.8,75.7,128.3,74z"/>
					<path class="st2" d="M141.8,70.3v0.6h-8.6v-0.6h3.9v-0.9h0.7v0.9H141.8z M141.5,77.6c0,0.4-0.1,0.6-0.4,0.8
						c-0.3,0.1-0.8,0.1-1.7,0.1c0-0.2-0.1-0.5-0.2-0.7c0.6,0,1.2,0,1.4,0s0.2,0,0.2-0.2v-2.8h-6.3v3.7h-0.7v-4.3h7.8v3.4H141.5z
						 M140.2,71.5v2h-5.3v-2H140.2z M139.5,72.1h-3.9v1h3.9V72.1z M136.3,77.6v0.5h-0.7v-2.6h3.8v2.1H136.3z M136.3,76v1h2.5v-1
						H136.3z"/>
					<path class="st2" d="M143.2,71.7c0,0.6,0,1.5,0.1,2.3c0.2,1.7,0.6,2.7,1.3,2.7c0.5,0,1-1,1.2-2l0.7,0.8
						c-0.6,1.7-1.2,2.2-1.9,2.2c-0.9,0-1.8-0.9-2.1-3.5c-0.1-0.9-0.1-2.1-0.1-2.6c0-0.2,0-0.6-0.1-0.9h1
						C143.3,71,143.2,71.5,143.2,71.7z M150.2,75.9l-0.8,0.3c-0.2-1.8-0.8-3.7-1.7-4.9l0.8-0.3C149.3,72.2,150.1,74.2,150.2,75.9z"
						/>
					<path class="st2" d="M152.8,69.6c-0.2,0.7-0.5,1.3-0.8,1.9v7h-0.7v-5.6c-0.3,0.5-0.6,0.9-0.9,1.3c-0.1-0.2-0.3-0.6-0.4-0.7
						c0.9-1,1.6-2.5,2.1-4.1L152.8,69.6z M158.4,76.1c-0.4,0.5-0.9,1-1.6,1.3c0.8,0.2,1.7,0.4,2.6,0.5c-0.1,0.1-0.3,0.4-0.4,0.6
						c-1.1-0.1-2.2-0.4-3-0.7c-0.9,0.3-1.9,0.6-3.1,0.7c-0.1-0.2-0.2-0.4-0.4-0.6c1-0.1,1.9-0.3,2.7-0.5c-0.4-0.2-0.7-0.5-1-0.8
						c-0.4,0.2-0.7,0.4-1.2,0.6c-0.1-0.1-0.3-0.4-0.4-0.5c1.1-0.4,1.9-0.9,2.4-1.3c-0.3-0.1-0.4-0.3-0.4-0.6v-0.6h0.6v0.6
						c0,0.2,0.1,0.2,0.4,0.2h1.2c0.2,0,0.3-0.1,0.3-0.4c0.1,0.1,0.4,0.1,0.5,0.2c-0.1,0.6-0.2,0.7-0.7,0.7h-1.2
						c-0.1,0.1-0.3,0.3-0.4,0.4h2.5h0.1L158.4,76.1z M155.4,70.9c0-0.2,0.1-0.4,0.1-0.5h-2.6v-0.6h6.2v0.6h-2.8
						c-0.1,0.2-0.1,0.4-0.2,0.5h2.3v2.5h0.9v1.3h-0.7v-0.9h-2.5c0.3,0.2,0.5,0.4,0.6,0.5l-0.5,0.3c-0.2-0.2-0.6-0.6-1-0.8l0.1-0.1
						h-2v0.9h-0.6v-1.3h1v-2.5L155.4,70.9L155.4,70.9z M152.9,75.2c0.4-0.2,0.8-0.7,1.1-1l0.5,0.3c-0.3,0.4-0.6,0.8-1.1,1.1
						L152.9,75.2z M157.7,71.3h-3.3v0.4h3.3V71.3z M157.7,72.1h-3.3v0.4h3.3V72.1z M157.7,73.4V73h-3.3v0.4H157.7z M154.7,76.4
						c0.3,0.3,0.8,0.6,1.3,0.8c0.6-0.2,1-0.5,1.3-0.8H154.7z M157.9,74.1c0.4,0.3,0.9,0.8,1.2,1.1l-0.5,0.3
						c-0.2-0.3-0.7-0.8-1.1-1.2L157.9,74.1z"/>
					<path class="st2" d="M165.1,72.2c0.9,0.8,2.2,1.6,3.4,1.9c-0.2,0.1-0.4,0.4-0.5,0.6c-1.4-0.5-2.8-1.4-3.8-2.5v1.9h-0.7v-1.9
						c-0.9,1.1-2.4,2.1-3.8,2.6c-0.1-0.2-0.3-0.4-0.5-0.6c1.2-0.4,2.5-1.2,3.4-2h-3.1v-0.7h3.9v-1c-1.1,0.1-2.2,0.2-3.2,0.2
						c0-0.2-0.1-0.4-0.2-0.6c2.3-0.1,5.1-0.3,6.6-0.7l0.6,0.6c-0.8,0.2-1.9,0.3-3,0.4v1.1h4v0.7H165.1z M167.5,75.5c0,0,0,0.2,0,0.3
						c-0.2,1.5-0.3,2.2-0.6,2.4c-0.2,0.2-0.4,0.2-0.7,0.2s-0.8,0-1.4,0c0-0.2-0.1-0.5-0.2-0.7c0.6,0.1,1.2,0.1,1.4,0.1
						s0.3,0,0.4-0.1c0.2-0.2,0.3-0.6,0.4-1.7h-1.6c0,0.2-0.1,0.3-0.1,0.4l-0.7-0.1c0.1-0.4,0.2-0.9,0.3-1.5h-1.6
						c-0.3,1.6-0.9,2.9-3,3.5c-0.1-0.2-0.3-0.5-0.4-0.6c1.9-0.6,2.4-1.6,2.7-2.9h-1.5v-0.6h4.7c-0.1,0.4-0.1,0.7-0.2,1.1h2.1
						L167.5,75.5L167.5,75.5z"/>
					<path class="st2" d="M173.2,71.7c-0.5,0.1-1.1,0.3-1.8,0.4c-0.5,1.4-1.4,3.1-2.2,4.2l-0.8-0.4c0.8-1,1.7-2.5,2.1-3.7
						c-0.3,0-0.6,0-0.9,0c-0.4,0-0.8,0-1.1,0l-0.1-0.7c0.4,0,0.8,0.1,1.2,0.1c0.3,0,0.7,0,1.1,0c0.1-0.5,0.3-1.2,0.3-1.7l0.9,0.1
						c-0.1,0.4-0.2,1-0.4,1.5c0.5-0.1,1-0.2,1.5-0.4L173.2,71.7z M174.4,72.9c0,0.4,0,0.7,0,1.1s0,1,0.1,1.6c0.8,0.3,1.5,0.8,2,1.2
						l-0.4,0.7c-0.4-0.4-0.9-0.8-1.6-1.1c0,0.1,0,0.3,0,0.4c0,0.8-0.5,1.4-1.7,1.4c-1.1,0-2-0.5-2-1.4s0.9-1.5,2-1.5
						c0.3,0,0.6,0,0.9,0.1c0-0.8-0.1-1.8-0.1-2.5C173.6,72.9,174.4,72.9,174.4,72.9z M173.7,76.1c-0.3-0.1-0.6-0.1-1-0.1
						c-0.7,0-1.2,0.3-1.2,0.8s0.4,0.8,1.1,0.8c0.8,0,1.1-0.4,1.1-0.9C173.7,76.4,173.7,76.2,173.7,76.1z M176.3,73.2
						c-0.5-0.4-1.6-1.1-2.3-1.4l0.4-0.6c0.7,0.3,1.8,1,2.3,1.3L176.3,73.2z"/>
					<path class="st2" d="M185.6,75.7h-4v1.9c0,0.4-0.1,0.7-0.5,0.8c-0.4,0.1-0.9,0.1-1.8,0.1c0-0.2-0.2-0.5-0.3-0.7
						c0.8,0,1.4,0,1.6,0c0.2,0,0.3-0.1,0.3-0.2v-1.9h-4V75h4v-0.7h0.4c0.5-0.2,1-0.6,1.4-0.9h-4.2v-0.7h4.9h0.1l0.5,0.4
						c-0.6,0.6-1.5,1.3-2.4,1.7V75h4V75.7z M177.8,73.2h-0.7V71h1.5c-0.2-0.4-0.5-0.9-0.8-1.2l0.6-0.3c0.4,0.4,0.8,1,1,1.4l-0.3,0.2
						h2c-0.1-0.4-0.4-1-0.7-1.5l0.6-0.2c0.3,0.5,0.7,1.1,0.8,1.5l-0.4,0.2h1.8c0.4-0.5,0.8-1.1,1.1-1.6l0.8,0.3
						c-0.3,0.4-0.7,0.9-1,1.3h1.5v2.2h-0.7v-1.5h-7v1.4C177.9,73.2,177.8,73.2,177.8,73.2z"/>
					<path class="st2" d="M194.5,77.5v0.7h-8.9v-0.7h4V75h-3v-0.7h3v-2.2h-2.3c-0.3,0.6-0.7,1.2-1,1.6c-0.1-0.1-0.5-0.3-0.7-0.4
						c0.8-0.9,1.5-2.3,1.8-3.7l0.8,0.2c-0.2,0.5-0.3,1.1-0.6,1.6h2v-1.9h0.8v1.9h3.6v0.7h-3.6v2.2h3.2V75h-3.2v2.5H194.5z"/>
					<path class="st2" d="M200.9,71.8c-0.2,0.1-0.5,0.3-0.8,0.4c-0.7,0.3-2,1-3,1.6c-0.9,0.6-1.5,1.2-1.5,2s0.8,1.3,2.3,1.3
						c1.1,0,2.4-0.1,3.2-0.3v0.9c-0.7,0.1-1.9,0.2-3.1,0.2c-1.9,0-3.2-0.6-3.2-2c0-1,0.6-1.8,1.7-2.6c-0.5-0.8-1-2-1.4-3l0.8-0.3
						c0.4,1.1,0.9,2.1,1.3,2.9c0.9-0.6,2-1.1,2.5-1.4c0.3-0.2,0.5-0.3,0.7-0.5L200.9,71.8z"/>
					<path class="st2" d="M206.4,70.7c-0.1,0.4-0.3,0.9-0.4,1.2h4v6.6h-0.8V78h-6.4v0.5h-0.7V72h3.1c0.1-0.4,0.2-0.8,0.3-1.2h-3.8
						v-0.7h8.8v0.7h-4.1L206.4,70.7L206.4,70.7z M202.9,77.3h1.4v-4.6h-1.4V77.3z M207.1,72.7H205v1.1h2.1V72.7z M207.1,74.4H205
						v1.1h2.1V74.4z M205,77.3h2.1v-1.2H205V77.3z M209.3,72.7h-1.5v4.6h1.5V72.7z"/>
					<path class="st2" d="M214.1,71.6h-3.7V71h3.7V71.6z M213.8,77.9h-2.3v0.5h-0.6v-3.3h2.9L213.8,77.9L213.8,77.9z M213.8,73h-2.9
						v-0.6h2.9V73z M210.9,73.7h2.9v0.6h-2.9V73.7z M213.7,70.3h-2.8v-0.6h2.8V70.3z M211.5,75.6v1.7h1.6v-1.7H211.5z M217.2,74.9
						c0,0.5,0.3,2.2,2.4,2.9c-0.1,0.2-0.3,0.5-0.4,0.6c-1.5-0.6-2.2-1.9-2.3-2.5c-0.1,0.6-0.8,1.9-2.6,2.5c-0.1-0.2-0.3-0.4-0.4-0.6
						c2.3-0.8,2.7-2.4,2.7-3v-1.3h0.7L217.2,74.9L217.2,74.9z M214,76c0.5-0.4,0.8-1,0.9-1.7l0.7,0.1c-0.1,0.7-0.5,1.5-1,1.9L214,76
						z M219,73.8c-0.5-0.4-1.4-1.1-2.3-1.6c-0.4,0.8-1,1.3-2.2,1.7c-0.1-0.2-0.3-0.4-0.4-0.6c2-0.6,2.3-1.8,2.4-3.9h0.7
						c0,0.8-0.1,1.5-0.3,2.1c0.9,0.5,2,1.2,2.5,1.7L219,73.8z M215.7,70.2c-0.1,0.7-0.4,1.4-0.8,1.8l-0.6-0.3c0.4-0.3,0.7-1,0.8-1.6
						L215.7,70.2z M219.3,70.2c-0.3,0.6-0.7,1.2-1,1.6l-0.5-0.2c0.3-0.4,0.7-1.1,0.8-1.6L219.3,70.2z M217.8,76
						c0.3-0.5,0.7-1.2,0.9-1.7l0.7,0.2c-0.3,0.6-0.7,1.3-1.1,1.7L217.8,76z"/>
					<path class="st2" d="M223.8,76.4c0-0.4,0-1,0-1.5c-0.9,0.5-1.6,1-1.6,1.7c0,0.8,0.8,0.9,1.8,0.9c0.8,0,1.8-0.1,2.7-0.2v0.8
						c-0.7,0.1-1.8,0.2-2.7,0.2c-1.4,0-2.6-0.3-2.6-1.5s1.2-1.9,2.3-2.5c-0.1-0.4-0.5-0.6-0.9-0.6c-0.6,0-1.2,0.3-1.7,0.7
						c-0.3,0.3-0.6,0.6-0.9,1l-0.7-0.5c1.3-1.2,1.9-2.2,2.3-3h-0.3c-0.4,0-1.1,0-1.6-0.1v-0.7c0.5,0.1,1.2,0.1,1.7,0.1
						c0.2,0,0.4,0,0.6,0c0.1-0.4,0.2-0.9,0.2-1.2l0.8,0.1c-0.1,0.3-0.2,0.7-0.3,1.1c1,0,2.1-0.1,3-0.3v0.7c-1,0.1-2.2,0.2-3.3,0.3
						c-0.2,0.5-0.5,1.1-0.9,1.5c0.4-0.2,0.9-0.4,1.4-0.4c0.6,0,1.2,0.3,1.3,0.9c0.7-0.3,1.3-0.6,1.8-0.8c0.3-0.1,0.5-0.2,0.8-0.4
						l0.3,0.7c-0.2,0.1-0.6,0.2-0.9,0.3c-0.6,0.2-1.3,0.5-2,0.9c0,0.6,0,1.4,0,1.9L223.8,76.4L223.8,76.4z"/>
					<path class="st2" d="M57.2,87.1c-0.1,0.9-0.3,1.9-0.6,2.5c-0.1-0.1-0.4-0.2-0.6-0.3c0.3-0.6,0.5-1.5,0.6-2.4L57.2,87.1z
						 M58.3,86.3v4.2h-0.6v-4.1c-0.5,0-1.1,0.1-1.5,0.1l-0.1-0.7h0.7c0.2-0.3,0.4-0.6,0.7-0.9c-0.3-0.4-0.8-1-1.2-1.5l0.4-0.5
						c0.1,0.1,0.2,0.2,0.3,0.3c0.3-0.6,0.6-1.3,0.8-1.9l0.7,0.2c-0.3,0.7-0.7,1.5-1.1,2c0.2,0.2,0.4,0.4,0.5,0.6
						c0.4-0.6,0.7-1.2,1-1.8l0.6,0.3c-0.6,0.9-1.3,2.1-2,2.9l1.3-0.1c-0.1-0.3-0.3-0.6-0.4-0.9l0.5-0.2c0.4,0.7,0.7,1.5,0.8,2.1
						l-0.6,0.2c0-0.2-0.1-0.4-0.2-0.6L58.3,86.3z M59.1,89c-0.1-0.5-0.3-1.3-0.6-1.9l0.5-0.2c0.3,0.6,0.5,1.4,0.6,1.9L59.1,89z
						 M63.2,87.8c0.5,0.7,1.4,1.4,2.1,1.7c-0.2,0.1-0.4,0.4-0.5,0.6c-0.8-0.4-1.6-1.3-2.2-2.1v2.5h-0.7V88c-0.6,0.9-1.4,1.7-2.3,2.1
						c-0.1-0.2-0.3-0.4-0.5-0.6c0.8-0.3,1.7-1,2.2-1.8h-1.8v-0.6h2.4v-0.8h-2.2v-2.1H62v2.1h0.6v-2.1H65v2.1h-2.3v0.8h2.4v0.6h-1.9
						C63.2,87.7,63.2,87.8,63.2,87.8z M61.4,84.8h-1.1v1h1.1V84.8z M64,83.8h-3.4v-2.1H64V83.8z M63.3,82.2h-2v1h2V82.2z M63.1,85.8
						h1.2v-1h-1.2V85.8z"/>
					<path class="st2" d="M67.2,81.9c-0.2,0.7-0.4,2.1-0.5,2.7c0.4-1,1.4-2.2,2.7-2.2c1.3,0,2.3,1.3,2.3,3.4c0,2.7-1.7,4-4.2,4.4
						L67,89.5c2.1-0.3,3.8-1.2,3.8-3.7c0-1.6-0.5-2.7-1.6-2.7c-1.2,0-2.4,1.8-2.5,3.1c0,0.4,0,0.7,0,1.2L66,87.5
						c0-0.4-0.1-0.9-0.1-1.6c0-0.9,0.2-2.4,0.3-3.2c0-0.3,0.1-0.6,0.1-0.8H67.2z"/>
					<path class="st2" d="M74.5,88.5c0.5,0.7,1.4,1.1,2.6,1.1c1.1,0,3.3,0,4.5-0.1c-0.1,0.2-0.2,0.5-0.2,0.8c-1.1,0-3.2,0.1-4.3,0
						c-1.3-0.1-2.3-0.4-2.9-1.2c-0.4,0.4-0.9,0.8-1.4,1.3l-0.4-0.7c0.4-0.3,1-0.7,1.4-1.1v-2.5h-1.3v-0.7h2V88.5z M74.2,83.7
						c-0.3-0.5-1-1.2-1.6-1.6l0.5-0.4c0.6,0.4,1.3,1.1,1.6,1.6L74.2,83.7z M76.5,84.6c0,1.3-0.3,3-1.2,4.2c-0.1-0.1-0.4-0.4-0.6-0.4
						c1-1.2,1.1-3,1.1-4.3v-2.3h5.4v0.7h-4.7v1.4h3.7h0.1l0.5,0.2c-0.3,1.3-0.9,2.4-1.6,3.2c0.6,0.6,1.4,1,2.3,1.2
						c-0.2,0.1-0.4,0.4-0.5,0.6c-0.9-0.3-1.7-0.8-2.4-1.4c-0.6,0.6-1.4,1-2.1,1.3c-0.1-0.2-0.3-0.5-0.4-0.6c0.7-0.2,1.4-0.6,2-1.2
						c-0.6-0.7-1.1-1.6-1.4-2.6H76.5L76.5,84.6z M77.4,84.6c0.3,0.8,0.7,1.5,1.2,2.2c0.5-0.6,1-1.3,1.3-2.2H77.4z"/>
					<path class="st2" d="M83.4,82c0,0.3-0.1,0.7-0.1,1c0,1.1-0.1,3.5-0.1,4.9c0,1.1,0.7,1.5,1.6,1.5c1.8,0,2.8-1,3.6-2l0.5,0.7
						c-0.7,0.9-1.9,2.2-4.1,2.2c-1.4,0-2.4-0.6-2.4-2.2c0-1.5,0.1-4,0.1-5c0-0.4,0-0.7-0.1-1L83.4,82z"/>
					<path class="st2" d="M91.4,90.3c-0.6-0.8-1.5-1.6-2.2-2.2l0.6-0.6c0.7,0.6,1.6,1.5,2.2,2.2L91.4,90.3z"/>
					<path class="st2" d="M95.8,87.9v0.9h-0.7V82h3.3v5.9H95.8z M95.8,82.7v1.8h1.9v-1.9L95.8,82.7L95.8,82.7z M97.6,87.2v-2h-1.9v2
						H97.6z M103.5,89.5c0,0.5-0.1,0.7-0.4,0.8c-0.3,0.1-0.9,0.1-1.7,0.1c0-0.2-0.2-0.5-0.3-0.7c0.6,0,1.3,0,1.4,0
						c0.2,0,0.3-0.1,0.3-0.2v-2.2h-2.9c-0.2,1.2-0.7,2.4-1.9,3.2c-0.1-0.2-0.4-0.4-0.5-0.5c1.7-1.3,1.8-3.2,1.8-4.7v-3.5h4.2V89.5z
						 M102.8,86.6v-1.7H100v0.4c0,0.4,0,0.8-0.1,1.3C99.9,86.6,102.8,86.6,102.8,86.6z M100,82.5v1.7h2.8v-1.7H100z"/>
					<path class="st2" d="M112.8,90.1h-4.1v0.4H108v-4.7c-0.2,0.2-0.4,0.3-0.5,0.5c-0.1-0.1-0.3-0.3-0.4-0.5v3.5h-1.9v0.8h-0.7v-3.2
						c-0.2,0.3-0.3,0.7-0.6,1c-0.1-0.2-0.3-0.5-0.4-0.7c0.7-1.1,1.1-2.7,1.4-4.4h-1.1v-0.7h3.5v0.7h-1.7c-0.1,0.8-0.3,1.5-0.4,2.2
						h1.8v0.7c0.8-0.6,1.5-1.5,2-2.6h-1.1v1.1h-0.6v-1.7h2c0.1-0.3,0.2-0.7,0.3-1l0.7,0.1c-0.1,0.3-0.2,0.6-0.3,0.9h2.7v1.7H112
						v-1.1h-2.2c-0.2,0.5-0.5,1-0.8,1.5h1.2c0.2-0.4,0.4-0.8,0.4-1.2l0.7,0.2c-0.2,0.3-0.3,0.7-0.5,1h1.6v0.6h-1.7v1h1.6v0.6h-1.6
						v1.1h1.6v0.6h-1.6v1h2L112.8,90.1L112.8,90.1z M106.4,85.6h-1.3v3h1.3V85.6z M110,85.1h-1.3v1h1.3V85.1z M110,86.7h-1.3v1.1
						h1.3V86.7z M108.7,89.4h1.3v-1h-1.3V89.4z"/>
					<path class="st2" d="M117.6,83.7c-0.5,0.1-1.1,0.3-1.8,0.4c-0.5,1.4-1.4,3.1-2.2,4.2l-0.8-0.4c0.8-1,1.7-2.5,2.1-3.7
						c-0.3,0-0.6,0-0.9,0c-0.4,0-0.8,0-1.1,0l-0.1-0.7c0.4,0,0.8,0.1,1.2,0.1c0.3,0,0.7,0,1.1,0c0.1-0.5,0.3-1.2,0.3-1.7l0.9,0.1
						c-0.1,0.4-0.2,1-0.4,1.5c0.5-0.1,1-0.2,1.5-0.4L117.6,83.7z M118.8,84.9c0,0.4,0,0.7,0,1.1s0,1,0.1,1.6c0.8,0.3,1.5,0.8,2,1.2
						l-0.4,0.7c-0.4-0.4-0.9-0.8-1.6-1.1c0,0.1,0,0.3,0,0.4c0,0.8-0.5,1.4-1.7,1.4c-1.1,0-2-0.5-2-1.4s0.9-1.5,2-1.5
						c0.3,0,0.6,0,0.9,0.1c0-0.8-0.1-1.8-0.1-2.5H118.8z M118.1,88.1c-0.3-0.1-0.6-0.1-1-0.1c-0.7,0-1.2,0.3-1.2,0.8
						s0.4,0.8,1.1,0.8c0.8,0,1.1-0.4,1.1-0.9C118.1,88.4,118.1,88.2,118.1,88.1z M120.8,85.2c-0.5-0.4-1.6-1.1-2.3-1.4l0.4-0.6
						c0.7,0.3,1.8,1,2.3,1.3L120.8,85.2z"/>
					<path class="st2" d="M123.6,88.1h1.8v0.7h-1.8v1.7h-0.7v-1.7h-1.8v-0.7h1.8v-0.8h-1.4v-3.4h1.5v-0.7h-1.7v-0.7h1.7v-1.1h0.7
						v1.1h1.7v0.6h-1.7v0.7h1.5v3.4h-1.5L123.6,88.1L123.6,88.1z M122.1,85.3h0.9v-0.9h-0.9V85.3z M122.1,86.7h0.9v-0.9h-0.9V86.7z
						 M124.6,84.4h-1v0.9h1V84.4z M124.6,85.8h-1v0.9h1V85.8z M130,83.5v6.9h-0.7v-0.5h-3v0.6h-0.6v-7h1.8v-2.1h0.7v2.1H130z
						 M126.3,84.2v2.1h1.1v-2.1H126.3z M126.3,89.3h1.1V87h-1.1V89.3z M129.3,84.2h-1.2v2.1h1.2V84.2z M129.3,89.3V87h-1.2v2.3
						H129.3z"/>
					<path class="st2" d="M134.3,89.2c0.3,0,0.6-0.1,0.8-0.1c1.3-0.3,2.5-1.2,2.5-2.9c0-1.5-0.9-2.7-2.6-2.9
						c-0.1,0.9-0.3,1.9-0.6,2.8c-0.6,2-1.4,3.1-2.3,3.1c-0.9,0-1.8-1-1.8-2.6c0-2.1,1.9-4,4.3-4c2.3,0,3.8,1.6,3.8,3.6
						c0,2.1-1.4,3.5-3.7,3.8L134.3,89.2z M133.6,86c0.2-0.8,0.4-1.8,0.5-2.7c-1.9,0.2-3.1,1.9-3.1,3.2c0,1.2,0.6,1.8,1,1.8
						C132.6,88.3,133.1,87.7,133.6,86z"/>
					<path class="st2" d="M140.8,85.3c-0.5,0.5-1.1,1-1.7,1.3c-0.1-0.1-0.3-0.4-0.4-0.5c0.6-0.2,1.3-0.8,1.8-1.2h-1.4v-1.8h1.7v-0.5
						h-2v-0.5h2v-0.6h0.7v0.6h1.9v0.5h-1.9v0.5h1.7v0.8c0.7-0.6,1.2-1.5,1.5-2.5l0.7,0.1c-0.1,0.3-0.2,0.6-0.4,1h2.7v0.6h-0.6
						c-0.2,0.8-0.6,1.4-1.1,2c0.5,0.4,1.1,0.8,1.9,1c-0.1,0.1-0.3,0.4-0.4,0.6c-0.8-0.3-1.4-0.7-1.9-1.2c-0.6,0.5-1.2,0.8-2,1.1
						c-0.1-0.1-0.3-0.4-0.4-0.5c0.8-0.2,1.5-0.6,2-1.1c-0.4-0.4-0.6-0.9-0.8-1.3c-0.2,0.3-0.4,0.5-0.6,0.7c-0.1-0.1-0.3-0.4-0.5-0.5
						v0.9h-1.8c0.4,0.2,1.4,0.7,1.7,0.9l-0.4,0.5c-0.3-0.2-0.9-0.6-1.4-0.8v1.2h-0.7L140.8,85.3L140.8,85.3z M143.6,89.7h4.2v0.6h-9
						v-0.6h1.6V88h0.7v1.7h1.8v-2.2h-3.4v-0.6h7.7v0.6h-3.5v0.8h2.9v0.6h-2.9L143.6,89.7C143.7,89.7,143.6,89.7,143.6,89.7z
						 M139.7,84.4h1.1v-0.8h-1.1V84.4z M141.4,83.6v0.8h1.1v-0.8H141.4z M144.6,83.1L144.6,83.1c0.2,0.5,0.5,1,0.9,1.5
						c0.4-0.4,0.6-0.9,0.8-1.5H144.6z"/>
					<path class="st2" d="M150.8,88.4c-1.1,0.4-2.2,0.7-3.1,1l-0.2-0.7c0.4-0.1,0.8-0.2,1.3-0.4v-2.7h-1.1v-0.7h1.1v-2.2h-1.2V82
						h3.1v0.7h-1.1v2.2h1v0.7h-1v2.5l1.1-0.4L150.8,88.4z M156.8,89.5v0.7h-6.4v-0.7h3v-1.4h-2.3v-0.7h2.3v-1.2h-2.1v-4.4h5.1v4.4
						h-2.2v1.2h2.3v0.7h-2.3v1.4H156.8z M151.9,83.7h1.5v-1.2h-1.5V83.7z M151.9,85.6h1.5v-1.3h-1.5V85.6z M155.6,82.5h-1.5v1.3h1.5
						V82.5z M155.6,84.3h-1.5v1.3h1.5V84.3z"/>
				</g>
				<g>
					<path d="M51,102.4l-0.1,0.6h-4l0.1-0.3c0.3-1.6,1.1-2.3,2.5-3.2c0.7-0.5,1.7-1.2,1.9-2c0.1-0.7-0.1-1.1-0.8-1.1
						c-0.9,0-1.4,0.7-1.6,1.5h-0.8c0.3-1.2,1.2-2.1,2.5-2.1c1.1,0,1.7,0.6,1.4,1.7c-0.2,1.1-1.2,1.7-2.1,2.4l-0.6,0.5
						c-0.8,0.6-1.3,1.2-1.6,2.1L51,102.4L51,102.4z"/>
					<path d="M55.1,101.6c0.4,0,0.7,0.3,0.6,0.8c-0.1,0.4-0.5,0.8-1,0.8c-0.4,0-0.7-0.3-0.6-0.8S54.7,101.6,55.1,101.6z"/>
					<path class="st2" d="M65.5,103c0.7,0,0.8-0.1,0.9-0.9c0.2,0.1,0.4,0.2,0.6,0.2c-0.1,1-0.4,1.2-1.5,1.2h-3.6
						c-1.5,0-1.8-0.2-1.8-1.1v-2.9h-0.6v0.3c0,1.1-0.2,2.7-1.4,3.9c-0.1-0.1-0.3-0.4-0.4-0.5c1.1-1.1,1.2-2.5,1.2-3.5v-0.3h-0.8
						v-3.9h1.4c0.1-0.3,0.3-0.8,0.3-1.1l0.7,0.1c-0.1,0.3-0.2,0.7-0.4,1h1.8v3.9h-1.3v2h0.2c0.1-0.5,0.3-1.3,0.3-1.8l0.5,0.1
						c-0.1,0.5-0.3,1.1-0.4,1.6c0.2,0,0.5-0.1,0.7-0.1c-0.1-0.2-0.2-0.4-0.3-0.6l0.4-0.1c0.2,0.5,0.5,1.1,0.5,1.5l-0.4,0.2
						c0-0.1-0.1-0.3-0.1-0.4c-0.5,0.1-1,0.2-1.4,0.3l-0.1-0.4v0.8c0,0.4,0.2,0.5,1.2,0.5H65.5z M58.6,97.3h1v-1h-1V97.3z M58.6,99h1
						v-1.1h-1V99z M61.4,96.3h-1.1v1h1.1V96.3z M61.4,97.9h-1.1V99h1.1V97.9z M64.3,99.2c-0.4,0.9-0.9,1.8-1.4,2.3
						c-0.1-0.2-0.2-0.5-0.3-0.7c0.5-0.5,1.1-1.4,1.4-2.2h-1.5V98h1.8v-1.2h-1.5v-0.6h1.5v-1.3H65v1.3h1.5v0.6H65V98h1.8v0.6h-1.4
						c0.4,0.9,1.1,1.9,1.7,2.4c-0.2,0.1-0.4,0.4-0.5,0.5C66,101,65.5,100,65.1,99v3.3h-0.7L64.3,99.2L64.3,99.2z"/>
					<path class="st2" d="M75.3,96.8c0,0,0,0.3,0,0.4c-0.2,4.1-0.4,5.6-0.9,6.1c-0.2,0.3-0.5,0.4-0.8,0.4s-1,0-1.6,0
						c0-0.2-0.1-0.5-0.2-0.8c0.7,0.1,1.3,0.1,1.6,0.1c0.2,0,0.3,0,0.5-0.1c0.4-0.3,0.6-1.7,0.8-5.3h-3.4c-0.1,2.1-0.8,4.5-3.7,6.3
						c-0.1-0.2-0.4-0.5-0.6-0.6c2.7-1.6,3.3-3.8,3.5-5.7h-3.2v-0.7h3.2c0-0.1,0-0.3,0-0.4v-1.7h0.8v1.7c0,0.1,0,0.3,0,0.4L75.3,96.8
						L75.3,96.8z"/>
					<path class="st2" d="M78.2,94.8c-0.2,0.5-0.3,1-0.5,1.5h1.7v6.5h-2.8v0.8h-0.7v-7.3H77c0.1-0.5,0.3-1.1,0.4-1.6L78.2,94.8z
						 M78.7,96.9h-2.1V99h2.1V96.9z M78.7,102v-2.4h-2.1v2.4H78.7z M84.2,96.6c-0.2,4.6-0.3,6.1-0.7,6.6c-0.2,0.3-0.4,0.4-0.8,0.4
						c-0.3,0-0.9,0-1.5,0c0-0.2-0.1-0.5-0.2-0.7c0.6,0.1,1.2,0.1,1.5,0.1c0.2,0,0.3,0,0.4-0.1c0.3-0.4,0.5-1.9,0.6-5.8H81
						c-0.3,0.7-0.6,1.3-0.9,1.7c-0.1-0.1-0.4-0.3-0.6-0.4c0.7-0.9,1.2-2.3,1.5-3.6l0.7,0.2c-0.1,0.5-0.3,1-0.4,1.4h3L84.2,96.6
						L84.2,96.6z M82,101.1c-0.3-0.6-1-1.6-1.5-2.3l0.6-0.3c0.6,0.7,1.2,1.7,1.6,2.3L82,101.1z"/>
					<path class="st2" d="M89.3,97c-0.5,0.1-1.1,0.3-1.8,0.4c-0.5,1.4-1.4,3.1-2.2,4.2l-0.8-0.4c0.8-1,1.7-2.5,2.1-3.7
						c-0.3,0-0.6,0-0.9,0c-0.4,0-0.8,0-1.1,0l-0.1-0.7c0.4,0,0.8,0.1,1.2,0.1c0.3,0,0.7,0,1.1,0c0.1-0.5,0.3-1.2,0.3-1.7l0.9,0.1
						c-0.1,0.4-0.2,1-0.4,1.5c0.5-0.1,1-0.2,1.5-0.4L89.3,97z M90.5,98.1c0,0.4,0,0.7,0,1.1s0,1,0.1,1.6c0.8,0.3,1.5,0.8,2,1.2
						l-0.4,0.7c-0.4-0.4-0.9-0.8-1.6-1.1c0,0.1,0,0.3,0,0.4c0,0.8-0.5,1.4-1.7,1.4c-1.1,0-2-0.5-2-1.4s0.9-1.5,2-1.5
						c0.3,0,0.6,0,0.9,0.1c0-0.8-0.1-1.8-0.1-2.5C89.7,98.1,90.5,98.1,90.5,98.1z M89.8,101.3c-0.3-0.1-0.6-0.1-1-0.1
						c-0.7,0-1.2,0.3-1.2,0.8s0.4,0.8,1.1,0.8c0.8,0,1.1-0.4,1.1-0.9C89.8,101.7,89.8,101.5,89.8,101.3z M92.4,98.4
						c-0.5-0.4-1.6-1.1-2.3-1.4l0.4-0.6c0.7,0.3,1.8,1,2.3,1.3L92.4,98.4z"/>
					<path class="st2" d="M97.6,94.6c1,1.6,2.8,3.1,4.4,3.9c-0.2,0.2-0.4,0.4-0.5,0.6c-1.6-0.9-3.3-2.4-4.2-3.8
						c-0.8,1.3-2.4,2.8-4.1,3.8c-0.1-0.2-0.3-0.4-0.5-0.6c1.7-1,3.4-2.6,4.2-4L97.6,94.6L97.6,94.6z M97.8,102.8h3.8v0.7h-8.4v-0.7
						h1.2v-3.7h0.7v3.7H97v-5.5h0.8v2.3h2.9v0.7h-2.9V102.8z"/>
					<path class="st2" d="M107.3,101.4c0.9,0.7,2.3,1.3,3.6,1.6c-0.2,0.2-0.4,0.4-0.5,0.7c-1.3-0.4-2.8-1.1-3.8-2v2.2h-0.7v-2.1
						c-1,0.9-2.4,1.6-3.7,2c-0.1-0.2-0.3-0.5-0.5-0.6c1.2-0.3,2.6-0.9,3.5-1.6h-3.3V101h3.9v-0.7h-3v-0.6h3V99h-3.5v-0.6h2.2
						c-0.1-0.3-0.3-0.7-0.5-1l0.4-0.1H102v-0.6h1.6c-0.1-0.4-0.5-1-0.8-1.4l0.6-0.2c0.3,0.4,0.7,1.1,0.8,1.5l-0.5,0.2h1.2V95h0.7
						v1.8h1.2V95h0.7v1.8h1.2l-0.4-0.1c0.3-0.4,0.6-1.1,0.8-1.5l0.8,0.2c-0.3,0.5-0.6,1.1-0.9,1.4h1.5v0.6h-2
						c-0.2,0.4-0.4,0.8-0.6,1.1h2.3v0.6h-3.6v0.7h3.1v0.6h-3.1v0.7h4v0.6h-3.3L107.3,101.4L107.3,101.4z M104.8,97
						c0.2,0.3,0.4,0.7,0.5,1l-0.3,0.1h2.3h-0.1c0.2-0.3,0.4-0.7,0.5-1L104.8,97L104.8,97z"/>
					<path class="st2" d="M112.4,95.5c-0.1,0.2-0.1,0.5-0.2,0.7c-0.2,0.9-0.5,2.7-0.5,3.8c0,0.5,0,0.9,0.1,1.4
						c0.2-0.4,0.4-1,0.5-1.4l0.4,0.3c-0.2,0.7-0.6,1.7-0.7,2.2c0,0.1-0.1,0.3-0.1,0.4v0.4h-0.7c-0.2-0.7-0.4-1.8-0.4-3.2
						c0-1.5,0.3-3.2,0.4-4c0-0.2,0.1-0.5,0.1-0.7L112.4,95.5z M114.7,100.3c-0.1,0.4-0.1,0.6-0.1,0.9c0,0.4,0.3,0.9,1.7,0.9
						c0.9,0,1.6-0.1,2.4-0.3v0.8c-0.6,0.1-1.4,0.2-2.5,0.2c-1.7,0-2.4-0.5-2.4-1.5c0-0.4,0.1-0.7,0.2-1.2L114.7,100.3z M114.3,96.3
						c1.1,0.2,3.1,0.1,4.1,0v0.8c-1.1,0.1-3,0.1-4.1,0V96.3z"/>
					<path class="st2" d="M123.4,98c0,0.6,0.1,1.6,0.1,2.5c1.3,0.3,2.4,1,3.1,1.7l-0.5,0.7c-0.6-0.6-1.5-1.3-2.6-1.6
						c0,0.3,0,0.5,0,0.7c0,0.8-0.5,1.5-1.8,1.5c-1.4,0-2.4-0.4-2.4-1.6c0-0.9,0.8-1.6,2.5-1.6c0.3,0,0.6,0,0.8,0.1
						c0-0.8-0.1-1.7-0.1-2.3c0-0.6,0-1.4,0-1.8s0-0.8-0.1-1h1c0,0.2-0.1,0.7-0.1,1s0,0.6,0,1c0.8,0,2-0.1,2.9-0.2v0.8
						C125.5,97.8,124.2,97.9,123.4,98L123.4,98z M122.7,101c-0.3-0.1-0.6-0.1-1-0.1c-1,0-1.6,0.4-1.6,0.9s0.5,0.8,1.5,0.8
						c0.7,0,1.1-0.3,1.1-1C122.7,101.5,122.7,101.3,122.7,101z"/>
					<path class="st2" d="M133.1,96.1c-0.2,0.1-0.4,0.3-0.5,0.4c-0.5,0.4-1.8,1.5-2.6,2.2c0.4-0.1,0.9-0.2,1.3-0.2
						c1.6,0,2.8,1,2.8,2.3c0,1.6-1.3,2.6-3.4,2.6c-1.3,0-2.2-0.6-2.2-1.4c0-0.7,0.6-1.3,1.5-1.3c1.2,0,1.9,0.8,2,1.7
						c0.8-0.3,1.2-0.9,1.2-1.7c0-1-1-1.7-2.2-1.7c-1.6,0-2.5,0.7-3.8,2l-0.6-0.6c0.8-0.7,2.1-1.7,2.7-2.2c0.5-0.5,1.8-1.5,2.3-1.9
						c-0.5,0-2.5,0.1-3,0.1c-0.2,0-0.5,0-0.7,0.1v-0.8c0.2,0,0.5,0,0.7,0c0.5,0,2.9-0.1,3.4-0.1c0.3,0,0.4,0,0.5-0.1L133.1,96.1z
						 M131.4,102.6c-0.1-0.8-0.6-1.3-1.3-1.3c-0.5,0-0.8,0.3-0.8,0.6c0,0.5,0.6,0.8,1.3,0.8C130.9,102.7,131.1,102.6,131.4,102.6z"
						/>
					<path class="st2" d="M135.4,99.5c0.5-0.5,1.3-1.6,2-2.3c0.5-0.6,0.9-0.7,1.7-0.1c0.6,0.5,1.4,1.4,2.1,2.1
						c0.7,0.7,1.7,1.8,2.4,2.7l-0.6,0.7c-0.7-0.9-1.6-1.9-2.2-2.6c-0.7-0.8-1.5-1.7-1.9-2s-0.5-0.3-0.9,0.1
						c-0.5,0.6-1.3,1.7-1.8,2.2c-0.2,0.3-0.4,0.6-0.6,0.8l-0.7-0.8C134.9,100,135.1,99.8,135.4,99.5z"/>
					<path class="st2" d="M144.8,100l-0.8,0.3c-0.1-0.5-0.7-1.9-0.9-2.2l0.7-0.3C144.1,98.2,144.6,99.5,144.8,100z M149.8,97.8
						c-0.1,0.2-0.1,0.4-0.1,0.5c-0.3,1.1-0.7,2.2-1.4,3.1c-0.9,1.2-2.1,1.9-3.3,2.4l-0.7-0.7c1.2-0.3,2.4-1.1,3.2-2.1
						c0.7-0.9,1.2-2.1,1.4-3.4L149.8,97.8z M147,99.4l-0.7,0.3c-0.1-0.4-0.6-1.7-0.8-2.2l0.7-0.2C146.4,97.6,146.8,99,147,99.4z"/>
					<path class="st2" d="M152.5,98.1c1.3,0.4,3.2,1.1,4.3,1.6l-0.4,0.8c-1.1-0.6-2.8-1.2-3.9-1.6v3.3c0,0.3,0,0.9,0.1,1.2h-1
						c0-0.3,0.1-0.8,0.1-1.2v-5.8c0-0.3,0-0.7-0.1-1h1c0,0.3-0.1,0.7-0.1,1L152.5,98.1L152.5,98.1z M155.5,97.6
						c-0.2-0.5-0.6-1.1-0.9-1.5l0.5-0.2c0.3,0.4,0.7,1,0.9,1.5L155.5,97.6z M156.7,97.1c-0.3-0.5-0.6-1-0.9-1.5l0.5-0.3
						c0.3,0.3,0.7,1,0.9,1.5L156.7,97.1z"/>
					<path class="st2" d="M159.4,96.1l0.9,0.2c-0.1,0.2-0.1,0.5-0.2,0.7c-0.1,0.6-0.5,2.1-0.9,3.1c-0.4,0.9-0.9,1.9-1.5,2.7
						l-0.8-0.4c0.6-0.8,1.2-1.9,1.5-2.7C158.8,98.8,159.2,97.3,159.4,96.1z M161.8,96.3l0.8-0.3c0.4,0.7,1,2.1,1.5,3.2
						c0.4,1,0.9,2.5,1.2,3.4l-0.9,0.3c-0.2-1-0.7-2.4-1.1-3.4C162.9,98.4,162.3,97,161.8,96.3z"/>
					<path class="st2" d="M169.9,100.9c1.5-1,2.8-2.4,3.3-3.7l0.5,0.8c-0.7,1.2-1.8,2.6-3.4,3.5c-1,0.6-2.3,1.2-3.9,1.6l-0.5-0.8
						C167.6,102.1,168.9,101.5,169.9,100.9z M169.3,97.7l-0.6,0.6c-0.5-0.5-1.7-1.6-2.5-2.1l0.6-0.6
						C167.5,96.1,168.7,97.2,169.3,97.7z"/>
					<path class="st2" d="M181.5,98.2c0.2,0,0.5,0,0.8,0V99c-0.2,0-0.5,0-0.8,0h-2.7c0,1.1-0.2,2-0.6,2.7c-0.4,0.7-1.1,1.4-2,1.8
						l-0.7-0.5c0.8-0.3,1.5-0.9,1.9-1.5c0.4-0.7,0.5-1.5,0.6-2.5h-3c-0.3,0-0.6,0-0.9,0v-0.8c0.3,0,0.6,0,0.9,0H181.5z M176.2,96.4
						c-0.3,0-0.7,0-0.9,0v-0.8c0.3,0,0.6,0.1,0.9,0.1h4c0.3,0,0.6,0,0.9-0.1v0.8c-0.3,0-0.6,0-0.9,0H176.2z"/>
					<path class="st2" d="M188.9,97.6c-0.5,0.5-1.4,1.2-2.3,1.8v3.5c0,0.3,0,0.7,0,0.9h-0.9c0-0.1,0-0.6,0-0.9v-3.1
						c-0.8,0.4-2,1-3.1,1.3l-0.4-0.7c1.3-0.3,2.6-0.9,3.5-1.4c1-0.6,2.1-1.4,2.6-2.1L188.9,97.6z"/>
					<path class="st2" d="M193.4,100.9c1.5-1,2.8-2.4,3.3-3.7l0.5,0.8c-0.7,1.2-1.8,2.6-3.4,3.5c-1,0.6-2.3,1.2-3.9,1.6l-0.5-0.8
						C191.1,102.1,192.4,101.5,193.4,100.9z M192.8,97.7l-0.6,0.6c-0.5-0.5-1.7-1.6-2.5-2.1l0.6-0.6C191,96.1,192.2,97.2,192.8,97.7
						z"/>
					<path class="st2" d="M203.4,96.7c0.3,0,0.5,0,0.6-0.1l0.7,0.4c-0.1,0.1-0.2,0.4-0.2,0.5c-0.3,1-0.9,2.4-1.8,3.4
						c-0.9,1.1-2.1,2-4,2.7l-0.7-0.7c1.8-0.5,3.1-1.4,4-2.5c0.8-0.9,1.4-2.2,1.6-3.1h-3.4c-0.6,0.8-1.4,1.7-2.5,2.5l-0.7-0.5
						c1.7-1,2.7-2.5,3.1-3.4c0.1-0.2,0.2-0.5,0.3-0.8l0.9,0.3c-0.2,0.3-0.3,0.6-0.4,0.8c-0.1,0.1-0.1,0.3-0.2,0.4L203.4,96.7
						L203.4,96.7z M204.1,95c0.2,0.4,0.6,1,0.8,1.4l-0.5,0.2c-0.2-0.4-0.5-1-0.8-1.4L204.1,95z M205.2,94.6c0.3,0.4,0.6,1,0.8,1.4
						l-0.5,0.2c-0.2-0.4-0.5-1-0.8-1.4L205.2,94.6z"/>
					<path class="st2" d="M214.7,102.7v0.7h-9v-0.7h4.2v-1.2h-3.1v-0.7h3.1v-1.1h0.8v1.1h3v0.7h-3v1.3h4V102.7z M207.8,97.7
						c-0.1,0.9-0.5,1.7-1.5,2.4c-0.1-0.1-0.3-0.4-0.5-0.5c0.9-0.5,1.2-1.2,1.3-1.9h-1.2V97h1.3v-0.1v-1.3h-0.9v-0.7h4.5v0.7h-0.9V97
						h1.1v0.7h-1.1v2.1h-0.7v-2.1H207.8z M207.8,97.1h1.2v-1.4h-1.2V97.1L207.8,97.1z M212.2,98.5h-0.7v-3.3h0.7V98.5z M214.1,99.1
						c0,0.4-0.1,0.6-0.4,0.7c-0.3,0.1-0.8,0.1-1.5,0.1c0-0.2-0.1-0.5-0.2-0.7c0.6,0,1.1,0,1.2,0c0.1,0,0.2,0,0.2-0.2v-4.4h0.7V99.1z
						"/>
					<path class="st2" d="M218.5,102.5c0.3,0,0.6-0.1,0.8-0.1c1.3-0.3,2.5-1.2,2.5-2.9c0-1.5-0.9-2.7-2.6-2.9
						c-0.1,0.9-0.3,1.9-0.6,2.8c-0.6,2-1.4,3.1-2.3,3.1c-0.9,0-1.8-1-1.8-2.6c0-2.1,1.9-4,4.3-4c2.3,0,3.8,1.6,3.8,3.6
						c0,2.1-1.4,3.5-3.7,3.8L218.5,102.5z M217.9,99.3c0.2-0.8,0.4-1.8,0.5-2.7c-1.9,0.2-3.1,1.9-3.1,3.2c0,1.2,0.6,1.8,1,1.8
						C216.8,101.6,217.4,100.9,217.9,99.3z"/>
					<path class="st2" d="M58,111.9v3c0,0.4-0.1,0.6-0.3,0.7s-0.6,0.1-1.2,0.1c0-0.2-0.1-0.5-0.2-0.7c0.4,0,0.8,0,0.9,0
						c0.1,0,0.2,0,0.2-0.2V112l-1.2,0.4l-0.2-0.7c0.4-0.1,0.9-0.2,1.4-0.4v-2h-1.2v-0.7h1.2v-2h0.7v2h1.1v0.7h-1.1v1.8
						c0.3-0.1,0.7-0.2,1-0.3l0.1,0.7L58,111.9z M63,112.2c0.6,1,1.5,1.9,2.4,2.4c-0.2,0.1-0.4,0.4-0.5,0.6c-0.9-0.5-1.8-1.5-2.4-2.5
						v3.1h-0.7v-3.1c-0.6,1.1-1.6,2-2.6,2.5c-0.1-0.2-0.3-0.5-0.5-0.6c1-0.5,2-1.4,2.6-2.4h-2v-0.7h2.5v-1.1h0.7v1.1h2.6v0.7H63z
						 M64.8,107.4c-1.4,0.4-3.6,0.6-5.4,0.7c0-0.2-0.1-0.4-0.2-0.6c1.7-0.1,3.9-0.3,5-0.7L64.8,107.4z M60.1,110.5
						c-0.1-0.5-0.4-1.3-0.7-1.9l0.6-0.2c0.4,0.6,0.7,1.3,0.8,1.8L60.1,110.5z M61.9,110.2c0-0.5-0.2-1.3-0.5-1.9l0.6-0.1
						c0.3,0.6,0.5,1.3,0.5,1.8L61.9,110.2z M63.1,110.6c0.4-0.6,1-1.7,1.3-2.5l0.7,0.3c-0.4,0.8-0.9,1.8-1.4,2.4L63.1,110.6z"/>
					<path class="st2" d="M73.4,114.8c0,0.5-0.1,0.7-0.4,0.8c-0.3,0.1-0.9,0.1-1.9,0.1c0-0.2-0.1-0.5-0.2-0.7c0.7,0,1.4,0,1.6,0
						s0.3-0.1,0.3-0.3v-2h-2.7v2.9h-0.7v-2.9h-2.5c-0.1,1.1-0.5,2.2-1.2,3.1c-0.1-0.1-0.4-0.4-0.6-0.5c1.1-1.2,1.2-3,1.2-4.4v-3.6
						h7.3v7.5H73.4z M69.3,112v-1.7h-2.4v0.6c0,0.3,0,0.7,0,1.1H69.3z M66.9,108v1.6h2.4V108H66.9z M72.7,108H70v1.6h2.7V108z
						 M72.7,112v-1.7H70v1.7H72.7z"/>
					<path class="st2" d="M82.3,108.7c-0.1,0.1-0.2,0.2-0.2,0.3c-0.7,1.2-2,2.8-3.6,4.1c0.6,0.6,1.3,1.3,1.7,1.8l-0.7,0.6
						c-0.4-0.5-1.2-1.4-1.8-2c-0.6-0.6-1.8-1.6-2.3-2L76,111c0.4,0.3,1.2,0.9,1.9,1.5c1.5-1.1,2.6-2.6,3.1-3.5h-5.9
						c-0.4,0-0.8,0-1,0.1v-0.9c0.3,0,0.7,0.1,1,0.1h6c0.3,0,0.5,0,0.6-0.1L82.3,108.7z"/>
					<path class="st2" d="M84.3,112l-0.8,0.3c-0.1-0.5-0.7-1.9-0.9-2.2l0.7-0.3C83.6,110.2,84.1,111.5,84.3,112z M89.3,109.8
						c-0.1,0.2-0.1,0.4-0.1,0.5c-0.3,1.1-0.7,2.2-1.4,3.1c-0.9,1.2-2.1,1.9-3.3,2.4l-0.7-0.7c1.2-0.3,2.4-1.1,3.2-2.1
						c0.7-0.9,1.2-2.1,1.4-3.4L89.3,109.8z M86.5,111.4l-0.7,0.3c-0.1-0.4-0.6-1.7-0.8-2.2l0.7-0.2C85.9,109.6,86.4,111,86.5,111.4z
						"/>
					<path class="st2" d="M97.4,110.5c0.2,0,0.6,0,0.8,0v0.8c-0.2,0-0.5,0-0.8,0h-2.8c-0.1,1.9-0.8,3.2-2.6,4.2l-0.8-0.5
						c1.6-0.7,2.4-1.8,2.5-3.6h-3c-0.3,0-0.7,0-0.9,0v-0.8c0.2,0,0.6,0,0.9,0h3v-1.8c-1,0.1-2.1,0.1-2.9,0.1l-0.2-0.7
						c0.8,0,2.3,0,3.4-0.1c0.9-0.1,2.1-0.4,2.6-0.6l0.5,0.7l-0.6,0.1c-0.5,0.1-1.3,0.3-2,0.4v1.9L97.4,110.5L97.4,110.5z"/>
					<path class="st2" d="M102.2,112.9c1.5-1,2.8-2.4,3.3-3.7l0.5,0.8c-0.7,1.2-1.8,2.6-3.4,3.5c-1,0.6-2.3,1.2-3.9,1.6l-0.5-0.8
						C99.9,114.1,101.2,113.5,102.2,112.9z M101.6,109.7l-0.6,0.6c-0.5-0.5-1.7-1.6-2.5-2.1l0.6-0.6
						C99.7,108.1,101,109.2,101.6,109.7z"/>
					<path class="st2" d="M112.2,108.7c0.3,0,0.5,0,0.6-0.1l0.7,0.4c-0.1,0.1-0.2,0.4-0.2,0.5c-0.3,1-0.9,2.4-1.8,3.4
						c-0.9,1.1-2.1,2-4,2.7l-0.7-0.7c1.8-0.5,3.1-1.4,4-2.5c0.8-0.9,1.4-2.2,1.6-3.1H109c-0.6,0.8-1.4,1.7-2.5,2.5l-0.7-0.5
						c1.7-1,2.7-2.5,3.1-3.4c0.1-0.2,0.2-0.5,0.3-0.8l0.9,0.3c-0.2,0.3-0.3,0.6-0.4,0.8c-0.1,0.1-0.1,0.3-0.2,0.4L112.2,108.7
						L112.2,108.7z M112.9,107c0.2,0.4,0.6,1,0.8,1.4l-0.5,0.2c-0.2-0.4-0.5-1-0.8-1.4L112.9,107z M114,106.6c0.3,0.4,0.6,1,0.8,1.4
						l-0.5,0.2c-0.2-0.4-0.5-1-0.8-1.4L114,106.6z"/>
					<path class="st2" d="M121.6,107.8c-0.7,0.7-1.6,1.5-2.7,2.2v4.3c0,0.4,0,0.9,0.1,1.1h-1c0-0.2,0.1-0.7,0.1-1.1v-3.8
						c-1.1,0.6-2.4,1.2-3.8,1.6l-0.5-0.8c1.7-0.4,3.4-1.1,4.5-1.8c1-0.6,2.1-1.5,2.6-2.2L121.6,107.8z"/>
					<path class="st2" d="M121.5,111.7c0.5-0.5,1.3-1.6,2-2.3c0.5-0.6,0.9-0.7,1.7-0.1c0.6,0.5,1.4,1.4,2.1,2.1s1.7,1.8,2.4,2.7
						l-0.6,0.7c-0.7-0.9-1.6-1.9-2.2-2.7c-0.7-0.8-1.5-1.7-1.9-2s-0.6-0.3-0.9,0.1c-0.5,0.6-1.3,1.7-1.8,2.2
						c-0.2,0.3-0.4,0.6-0.6,0.8l-0.7-0.7C121.1,112.1,121.2,112,121.5,111.7z M128.1,109.8l-0.6,0.3c-0.2-0.5-0.6-1.1-0.9-1.6
						l0.6-0.2C127.4,108.6,127.9,109.3,128.1,109.8z M129.4,109.3l-0.6,0.3c-0.3-0.5-0.6-1.1-1-1.6l0.6-0.3
						C128.7,108.1,129.2,108.8,129.4,109.3z"/>
					<path class="st2" d="M134.1,112.9c1.5-1,2.8-2.4,3.3-3.7l0.5,0.8c-0.7,1.2-1.8,2.6-3.4,3.5c-1,0.6-2.3,1.2-3.9,1.6l-0.5-0.8
						C131.8,114.1,133.1,113.5,134.1,112.9z M133.5,109.7l-0.6,0.6c-0.5-0.5-1.7-1.6-2.5-2.1l0.6-0.6
						C131.6,108.1,132.9,109.2,133.5,109.7z"/>
					<path class="st2" d="M144.2,112.4c-1.1-0.6-2.8-1.3-3.9-1.6v3.3c0,0.3,0,0.8,0.1,1.2h-1c0-0.3,0.1-0.8,0.1-1.2v-5.8
						c0-0.3,0-0.7-0.1-1h1c0,0.3-0.1,0.7-0.1,1v1.6c1.3,0.4,3.2,1.1,4.3,1.6L144.2,112.4z"/>
				</g>
			</g>
			<g>
				<path class="st0" d="M8.7,92.1c-0.3-0.3-0.7-0.5-1.2-0.5c-0.4,0-0.8,0.3-0.9,0.7C6.5,92.8,7,93,7.4,93.1
					c0.7,0.3,1.4,0.6,1.2,1.5c-0.2,0.8-1,1.3-1.7,1.3s-1.4-0.4-1.8-0.8l0.4-0.5c0.3,0.4,0.8,0.8,1.4,0.8c0.4,0,0.9-0.3,1-0.7
					c0.1-0.6-0.3-0.8-0.8-1c-0.6-0.3-1.4-0.6-1.2-1.4C6.1,91.6,6.8,91,7.7,91c0.6,0,1,0.2,1.4,0.6L8.7,92.1z"/>
				<path class="st0" d="M10.3,93.5c0.4-1.9,1.5-2.5,2.4-2.5c1.7,0,1.5,1.7,1.4,2.5c-0.4,1.9-1.5,2.5-2.4,2.5
					C10.9,96,9.9,95.5,10.3,93.5z M13.5,93.5c0.2-0.8,0.2-1.9-0.8-1.9c-1.1,0-1.5,1.1-1.6,1.9c-0.2,0.8-0.2,1.9,0.8,1.9
					S13.3,94.3,13.5,93.5z"/>
				<path class="st0" d="M17.6,89.8h-1.4l0.1-0.6h2l-1.4,6.7h-0.7L17.6,89.8z"/>
				<path class="st0" d="M23.6,91.1h0.7l-0.5,2.3c-0.2,0.8-0.3,1.7-0.3,2.5h-0.6V95c-0.4,0.5-1.2,1-1.8,1c-0.9,0-1.1-0.7-0.9-1.6
					l0.7-3.3h0.7l-0.7,3.2c-0.1,0.5-0.3,1.2,0.3,1.2c0.7,0,1.6-0.7,1.9-2.4L23.6,91.1z"/>
				<path class="st0" d="M28.9,91.7h-1.7l-0.6,2.7c-0.1,0.5-0.2,1,0.4,1c0.5,0,0.9-0.4,1.2-0.8l0.6,0.2c-0.5,0.7-1.1,1.3-1.9,1.3
					s-1.2-0.4-0.9-1.8l0.5-2.5h-1l0.1-0.6h1l0.3-1.5h0.7l-0.3,1.5H29L28.9,91.7z"/>
				<path class="st0" d="M32.2,91.7h-1.4l0.1-0.6h2l-1,4.8h-0.7L32.2,91.7z M33.4,89.9c-0.1,0.3-0.4,0.6-0.7,0.6s-0.5-0.2-0.4-0.6
					c0.1-0.3,0.4-0.6,0.7-0.6S33.5,89.5,33.4,89.9z"/>
				<path class="st0" d="M35.1,93.5c0.4-1.9,1.5-2.5,2.4-2.5c1.7,0,1.5,1.7,1.4,2.5c-0.4,1.9-1.5,2.5-2.4,2.5S34.7,95.5,35.1,93.5z
					 M38.2,93.5c0.2-0.8,0.2-1.9-0.8-1.9c-1.1,0-1.5,1.1-1.6,1.9c-0.2,0.8-0.2,1.9,0.8,1.9S38.1,94.3,38.2,93.5z"/>
				<path class="st0" d="M40.4,95.9h-0.7l0.5-2.4c0.2-0.8,0.3-1.6,0.3-2.4h0.6V92c0.5-0.6,1.2-1,1.8-1c0.8,0,1,0.7,0.8,1.5L43,95.9
					h-0.7l0.7-3.2c0.1-0.5,0.3-1.2-0.3-1.2s-1.6,0.6-1.9,2.3L40.4,95.9z"/>
			</g>
		</g>
		<line class="st3" x1="4" y1="24.6" x2="253" y2="24.6"/>
	</g>
	<g>
		<g>
			<g>
				
					<image style="overflow:visible;enable-background:new    ;" width="359" height="206" xlink:href="5866B3A7D9D41AFF.jpg"  transform="matrix(0.4688 0 0 0.4688 44.8004 117.3)">
				</image>
			</g>
		</g>
	</g>
</g>
</svg>
