<?xml version="1.0" encoding="utf-8"?>
<!-- Generator: Adobe Illustrator 21.1.0, SVG Export Plug-In . SVG Version: 6.00 Build 0)  -->
<svg version="1.1" id="レイヤー_1" xmlns="http://www.w3.org/2000/svg" xmlns:xlink="http://www.w3.org/1999/xlink" x="0px"
	 y="0px" viewBox="0 0 129.2 76.2" style="enable-background:new 0 0 129.2 76.2;" xml:space="preserve">
<style type="text/css">
	.st0{fill:#33CC66;}
	.st1{font-family:'Arial-BoldMT';}
	.st2{font-size:40px;}
	.st3{enable-background:new    ;}
	.st4{fill:#FFFFFF;}
</style>
<title>アセット 4</title>
<g>
	<rect x="-0.1" y="46.7" class="st0" width="129.2" height="30"/>
</g>
<text transform="matrix(1.01 0 0 1 0.3398 36.7002)" class="st0 st1 st2">A</text>
<text transform="matrix(1.01 0 0 1 26.3726 36.7002)" class="st0 st1 st2">B</text>
<text transform="matrix(1.01 0 0 1 51.5977 36.7002)" class="st0 st1 st2">O</text>
<text transform="matrix(1.01 0 0 1 78.9536 36.7002)" class="st0 st1 st2">U</text>
<text transform="matrix(1.01 0 0 1 105.1577 36.7002)" class="st0 st1 st2">T</text>
<g>
	<g class="st3">
		<g>
			<path class="st4" d="M52.3,60.1c0.4,0.6,1.4,2.4,1.6,2.8l-0.6,0.8c-0.2-0.5-0.7-1.5-1.1-2.3v7.7h-1v-7.7
				c-0.5,1.8-1.1,3.5-1.7,4.6c-0.1-0.3-0.4-0.7-0.5-0.9c0.9-1.4,1.8-4,2.2-6.3h-1.9v-1h2v-3.6l1.3,0.1c0,0.1-0.1,0.2-0.3,0.2v3.3
				h1.5v1h-1.5V60.1z M57.1,63c0.7,1,1.5,2.4,1.8,3.3L58,66.7c-0.1-0.2-0.2-0.5-0.3-0.8c-1.4,0.5-2.8,1.1-3.7,1.4
				c0,0.1-0.1,0.2-0.2,0.3l-0.5-1.1l1.1-0.3V54.9h3.8v6.9h-2.8v4.1c0.7-0.2,1.3-0.4,2-0.7c-0.3-0.6-0.7-1.3-1-1.8L57.1,63z
				 M57.2,55.8h-1.9v2h1.9V55.8z M55.3,60.8h1.9v-2.1h-1.9V60.8z M62,67.5c0,0.6,0.1,0.7,0.4,0.7h0.5c0.4,0,0.5-0.2,0.6-0.5
				c0-0.3,0-0.8,0-1.6c0.2,0.2,0.5,0.3,0.8,0.4c0,1.9-0.1,2.6-1.3,2.6h-0.7C61,69,61,68.3,61,67.4v-2.3c-0.9,1.6-2.1,3-3.9,4
				c-0.1-0.2-0.4-0.5-0.6-0.7c2.7-1.5,4-3.8,4.8-6.5h-2.7v-0.9h0.9v-5.1h-0.7v-0.9h5.2v0.9H63c-0.1,1.7-0.3,3.5-0.6,5.1h1.6v0.9
				h-1.9c-0.1,0.4-0.2,0.8-0.3,1.2l0.4,0c0,0.1-0.1,0.2-0.3,0.2V67.5z M60.3,60.9h1.1c0.3-1.6,0.5-3.3,0.6-5.1h-1.7V60.9z"/>
		</g>
	</g>
	<g class="st3">
		<g>
			<path class="st4" d="M80,64.1h-3.3c-0.5,1.1-1.2,1.9-2.1,2.6c1.9,0.5,3.6,1,4.9,1.5l-0.7,0.9c-1.4-0.6-3.3-1.2-5.4-1.7
				c-1.8,0.9-4.3,1.4-7.6,1.7c-0.1-0.3-0.3-0.7-0.4-1c2.7-0.1,4.8-0.5,6.4-1.1c-1-0.2-2.1-0.5-3.2-0.7l-0.4,0.5l-1-0.4
				c0.5-0.7,1.2-1.5,1.8-2.4h-3.9v-0.9h4.5c0.4-0.6,0.8-1.1,1.1-1.6h-4.2v-4.1h3.6V56h-4.9v-1h14.5v1h-5v1.5h3.7v4.1h-7.2l0.8,0.2
				c0,0.1-0.2,0.2-0.4,0.1c-0.3,0.4-0.5,0.8-0.8,1.3h9V64.1z M67.6,58.3v2.3h2.6v-2.3H67.6z M70.3,64.1c-0.4,0.5-0.7,1-1.1,1.5
				c1.3,0.2,2.7,0.5,4,0.8c1-0.6,1.7-1.3,2.3-2.3H70.3z M71.2,56v1.5h2.6V56H71.2z M71.2,60.7h2.6v-2.3h-2.6V60.7z M77.5,58.3h-2.6
				v2.3h2.6V58.3z"/>
		</g>
	</g>
</g>
</svg>
