<?xml version="1.0" encoding="utf-8"?>
<!-- Generator: Adobe Illustrator 21.1.0, SVG Export Plug-In . SVG Version: 6.00 Build 0)  -->
<svg version="1.1" id="レイヤー_1" xmlns="http://www.w3.org/2000/svg" xmlns:xlink="http://www.w3.org/1999/xlink" x="0px"
	 y="0px" viewBox="0 0 123.2 76.2" style="enable-background:new 0 0 123.2 76.2;" xml:space="preserve">
<style type="text/css">
	.st0{fill:#33CC66;}
	.st1{font-family:'Arial-BoldMT';}
	.st2{font-size:40px;}
	.st3{letter-spacing:-1;}
	.st4{fill:#FFFFFF;}
	.st5{font-family:'KozGoPr6N-Regular-83pv-RKSJ-H';}
	.st6{font-size:16px;}
</style>
<title>アセット 3</title>
<rect y="46.2" class="st0" width="123.2" height="30"/>
<text transform="matrix(1.01 0 0 1 1.7363 37.7002)" class="st0 st1 st2 st3">V</text>
<text transform="matrix(1.01 0 0 1 26.5981 37.7002)" class="st0 st1 st2">O</text>
<text transform="matrix(1.01 0 0 1 56.9647 37.7002)" class="st0 st1 st2">I</text>
<text transform="matrix(1.01 0 0 1 69.0649 37.7002)" class="st0 st1 st2 st3">C</text>
<text transform="matrix(1.01 0 0 1 96.2421 37.7002)" class="st0 st1 st2">E</text>
<text transform="matrix(1 0 0 1 7.3604 67.7803)" class="st4 st5 st6">卒</text>
<text transform="matrix(1 0 0 1 23.1602 67.7803)" class="st4 st5 st6">業</text>
<text transform="matrix(1 0 0 1 39.1553 67.7803)" class="st4 st5 st6">生</text>
<text transform="matrix(1 0 0 1 54.9297 67.7803)" class="st4 st5 st6 st3">か</text>
<text transform="matrix(1 0 0 1 69.8047 67.7803)" class="st4 st5 st6 st3">ら</text>
<text transform="matrix(1 0 0 1 84.75 67.7803)" class="st4 st5 st6">の</text>
<text transform="matrix(1 0 0 1 99.7803 67.7803)" class="st4 st5 st6">声</text>
</svg>
