<svg xmlns="http://www.w3.org/2000/svg" viewBox="0 0 361.9 100.71"><defs><style>.cls-1{fill:#fff;stroke-width:0.71px;}.cls-1,.cls-5{stroke:#221714;}.cls-1,.cls-4,.cls-5{stroke-linecap:round;stroke-linejoin:round;}.cls-2{opacity:0.8;}.cls-3{fill:#080103;}.cls-4,.cls-5{fill:none;}.cls-4{stroke:#fff;stroke-width:2px;}.cls-5{stroke-width:0.28px;}.cls-6{fill:#221714;}</style></defs><title>アセット 1</title><g id="レイヤー_2" data-name="レイヤー 2"><g id="more"><rect class="cls-1" x="307.08" y="26.94" width="45.87" height="31.67" transform="translate(22.53 170.03) rotate(-29.87)"/><rect class="cls-1" x="37.72" y="61.88" width="45.87" height="31.67" transform="translate(119.44 156.84) rotate(-178.64)"/><rect class="cls-1" x="21.79" y="7.16" width="45.87" height="31.67" transform="translate(79.07 59.73) rotate(-160.29)"/><rect class="cls-1" x="311.68" y="61.88" width="45.87" height="31.67" transform="translate(623.43 263.7) rotate(-160.29)"/><rect class="cls-1" x="3.51" y="37.34" width="45.87" height="31.67" transform="translate(-12.13 8.02) rotate(-14.06)"/><rect class="cls-1" x="80.02" y="62.23" width="45.87" height="31.67" transform="translate(-10.45 16.14) rotate(-8.53)"/><rect class="cls-1" x="101.48" y="7.88" width="45.87" height="31.67" transform="translate(-2.03 30.93) rotate(-14.06)"/><rect class="cls-1" x="65.9" y="22.73" width="45.87" height="31.67" transform="translate(3.13 -6.53) rotate(4.28)"/><rect class="cls-1" x="284.43" y="46.2" width="45.87" height="31.67" transform="translate(-5.8 46.3) rotate(-8.53)"/><rect class="cls-1" x="270.3" y="6.7" width="45.87" height="31.67" transform="translate(2.5 -21.84) rotate(4.28)"/><rect class="cls-1" x="133.68" y="64.98" width="45.87" height="31.67" transform="translate(6.48 -11.47) rotate(4.28)"/><rect class="cls-1" x="248.6" y="56.62" width="45.87" height="31.67" transform="translate(9.56 -29.29) rotate(6.28)"/><rect class="cls-1" x="132.22" y="26.94" width="45.87" height="31.67" transform="translate(-5.74 38.97) rotate(-14.06)"/><rect class="cls-1" x="158.39" y="5.71" width="45.87" height="31.67" transform="translate(2.12 -13.49) rotate(4.28)"/><rect class="cls-1" x="247.05" y="15.83" width="45.87" height="31.67" transform="translate(-1.71 40.42) rotate(-8.53)"/><rect class="cls-1" x="212.14" y="43.91" width="45.87" height="31.67" transform="translate(-7.47 58.9) rotate(-14.06)"/><rect class="cls-1" x="187.15" y="63.2" width="45.87" height="31.67" transform="matrix(0.99, -0.15, 0.15, 0.99, -9.4, 32.05)"/><rect class="cls-1" x="163.58" y="37.34" width="45.87" height="31.67" transform="translate(-1.71 99.95) rotate(-29.87)"/><rect class="cls-1" x="204.6" y="13.79" width="45.87" height="31.67" transform="translate(25.81 -79.72) rotate(21.04)"/><rect class="cls-1" x="98.56" y="50.71" width="45.87" height="31.67" transform="translate(5.31 -8.89) rotate(4.28)"/><g class="cls-2"><path class="cls-3" d="M146.29,48.78h-2.51V46.56h5V54a12.75,12.75,0,0,1-4.06.65c-5.52,0-7-3.36-7-7s1.39-7.36,6.95-7.36a14.19,14.19,0,0,1,3.16.4l-.45,2.42a8.06,8.06,0,0,0-2.63-.43c-2.83,0-4.13,1.8-4.13,5,0,3,1.26,4.64,4.2,4.64a5.71,5.71,0,0,0,1.46-.18Z"/><path class="cls-3" d="M156.8,40.56h2.47l5.32,13.85h-3l-1.21-3.34h-5.05l-1.17,3.34H151.5Zm3,8.44L158,43.5,156,49Z"/><path class="cls-3" d="M170.44,52.08h5.25v2.33h-7.9V40.56h2.65Z"/><path class="cls-3" d="M181.86,52.08h5.25v2.33h-7.9V40.56h2.65Z"/><path class="cls-3" d="M193.25,46.24h4.42v2.22h-4.42v3.63h5.41v2.33h-8V40.56h7.7v2.33h-5.07Z"/><path class="cls-3" d="M215.1,40.56h3.21l3.34,5.77,3.25-5.77H228l-5.14,7.92v5.93h-2.69V48.47Z"/><path class="cls-3" d="M209.07,50.84c-.67-1.44-1.14-1.89-2.13-1.89h-1.68v5.47h-2.53V40.56h3.43c3.21,0,5.81.56,5.81,3.86a3.28,3.28,0,0,1-2.31,3.45,2.91,2.91,0,0,1,1.46,1.48c.52,1.06,1.66,3.59,2.25,5.07h-2.87C210.21,53.47,209.54,51.87,209.07,50.84Zm.27-6.12c0-1.61-1.25-1.91-2.89-1.91h-1.19v4h2.31A1.93,1.93,0,0,0,209.34,44.72Z"/></g><path class="cls-4" d="M146.29,48.78h-2.51V46.56h5V54a12.75,12.75,0,0,1-4.06.65c-5.52,0-7-3.36-7-7s1.39-7.36,6.95-7.36a14.19,14.19,0,0,1,3.16.4l-.45,2.42a8.06,8.06,0,0,0-2.63-.43c-2.83,0-4.13,1.8-4.13,5,0,3,1.26,4.64,4.2,4.64a5.71,5.71,0,0,0,1.46-.18Z"/><path class="cls-4" d="M156.8,40.56h2.47l5.32,13.85h-3l-1.21-3.34h-5.05l-1.17,3.34H151.5Zm3,8.44L158,43.5,156,49Z"/><path class="cls-4" d="M170.44,52.08h5.25v2.33h-7.9V40.56h2.65Z"/><path class="cls-4" d="M181.86,52.08h5.25v2.33h-7.9V40.56h2.65Z"/><path class="cls-4" d="M193.25,46.24h4.42v2.22h-4.42v3.63h5.41v2.33h-8V40.56h7.7v2.33h-5.07Z"/><path class="cls-4" d="M215.1,40.56h3.21l3.34,5.77,3.25-5.77H228l-5.14,7.92v5.93h-2.69V48.47Z"/><path class="cls-4" d="M209.07,50.84c-.67-1.44-1.14-1.89-2.13-1.89h-1.68v5.47h-2.53V40.56h3.43c3.21,0,5.81.56,5.81,3.86a3.28,3.28,0,0,1-2.31,3.45,2.91,2.91,0,0,1,1.46,1.48c.52,1.06,1.66,3.59,2.25,5.07h-2.87C210.21,53.47,209.54,51.87,209.07,50.84Zm.27-6.12c0-1.61-1.25-1.91-2.89-1.91h-1.19v4h2.31A1.93,1.93,0,0,0,209.34,44.72Z"/><path class="cls-5" d="M146.29,48.78h-2.51V46.56h5V54a12.75,12.75,0,0,1-4.06.65c-5.52,0-7-3.36-7-7s1.39-7.36,6.95-7.36a14.19,14.19,0,0,1,3.16.4l-.45,2.42a8.06,8.06,0,0,0-2.63-.43c-2.83,0-4.13,1.8-4.13,5,0,3,1.26,4.64,4.2,4.64a5.71,5.71,0,0,0,1.46-.18Z"/><path class="cls-5" d="M156.8,40.56h2.47l5.32,13.85h-3l-1.21-3.34h-5.05l-1.17,3.34H151.5Zm3,8.44L158,43.5,156,49Z"/><path class="cls-5" d="M170.44,52.08h5.25v2.33h-7.9V40.56h2.65Z"/><path class="cls-5" d="M181.86,52.08h5.25v2.33h-7.9V40.56h2.65Z"/><path class="cls-5" d="M193.25,46.24h4.42v2.22h-4.42v3.63h5.41v2.33h-8V40.56h7.7v2.33h-5.07Z"/><path class="cls-5" d="M215.1,40.56h3.21l3.34,5.77,3.25-5.77H228l-5.14,7.92v5.93h-2.69V48.47Z"/><path class="cls-5" d="M209.07,50.84c-.67-1.44-1.14-1.89-2.13-1.89h-1.68v5.47h-2.53V40.56h3.43c3.21,0,5.81.56,5.81,3.86a3.28,3.28,0,0,1-2.31,3.45,2.91,2.91,0,0,1,1.46,1.48c.52,1.06,1.66,3.59,2.25,5.07h-2.87C210.21,53.47,209.54,51.87,209.07,50.84Zm.27-6.12c0-1.61-1.25-1.91-2.89-1.91h-1.19v4h2.31A1.93,1.93,0,0,0,209.34,44.72Z"/><path class="cls-6" d="M146.29,48.78h-2.51V46.56h5V54a12.75,12.75,0,0,1-4.06.65c-5.52,0-7-3.36-7-7s1.39-7.36,6.95-7.36a14.19,14.19,0,0,1,3.16.4l-.45,2.42a8.06,8.06,0,0,0-2.63-.43c-2.83,0-4.13,1.8-4.13,5,0,3,1.26,4.64,4.2,4.64a5.71,5.71,0,0,0,1.46-.18Z"/><path class="cls-6" d="M156.8,40.56h2.47l5.32,13.85h-3l-1.21-3.34h-5.05l-1.17,3.34H151.5Zm3,8.44L158,43.5,156,49Z"/><path class="cls-6" d="M170.44,52.08h5.25v2.33h-7.9V40.56h2.65Z"/><path class="cls-6" d="M181.86,52.08h5.25v2.33h-7.9V40.56h2.65Z"/><path class="cls-6" d="M193.25,46.24h4.42v2.22h-4.42v3.63h5.41v2.33h-8V40.56h7.7v2.33h-5.07Z"/><path class="cls-6" d="M215.1,40.56h3.21l3.34,5.77,3.25-5.77H228l-5.14,7.92v5.93h-2.69V48.47Z"/><path class="cls-6" d="M209.07,50.84c-.67-1.44-1.14-1.89-2.13-1.89h-1.68v5.47h-2.53V40.56h3.43c3.21,0,5.81.56,5.81,3.86a3.28,3.28,0,0,1-2.31,3.45,2.91,2.91,0,0,1,1.46,1.48c.52,1.06,1.66,3.59,2.25,5.07h-2.87C210.21,53.47,209.54,51.87,209.07,50.84Zm.27-6.12c0-1.61-1.25-1.91-2.89-1.91h-1.19v4h2.31A1.93,1.93,0,0,0,209.34,44.72Z"/><g class="cls-2"><path class="cls-6" d="M118.15,66.93V64.4h-.82v-1h.82V61.53h1.09v1.85H120v1h-.73v2.26l.8-.21.09,1c-.79.29-2,.69-2.66.92l-.27-1.17ZM125,63.14c0,2.48,0,3.74-.31,4a.93.93,0,0,1-.53.15h-.64l-.13-1.05h.39s.07,0,.09,0a10,10,0,0,0,.08-2l-.69.29v3h-1.08V64.94l-.67.28v2.17c0,.8.15.92.61.93h1.53c.46,0,.51-.07.54-.81l1.07.19c-.15,1.48-.35,1.69-1.53,1.71-.53,0-1.21,0-1.71,0-1.27,0-1.62-.39-1.62-2V65.69l-.53.21-.39-1,.93-.39V62.32h1.1v1.74l.67-.28V61.54h1.08v1.77l.68-.29Z"/><path class="cls-6" d="M131.89,62.79l.23.13a4.71,4.71,0,0,0-.68-.89l.57-.39a4.86,4.86,0,0,1,.78,1.06l-.49.32.52.28a7.75,7.75,0,0,1-4.7,6l-.85-1a5.87,5.87,0,0,0,4.08-4.36h-4.91V62.79Zm2-.45-.59.38a4.25,4.25,0,0,0-.76-1.05l.57-.39A4.59,4.59,0,0,1,133.89,62.34Z"/><path class="cls-6" d="M140.59,64.15l.85.59a6.77,6.77,0,0,1-4.3,4.58l-.77-1.07a4.91,4.91,0,0,0,3.51-3h-5.07V64.15Zm0-1.94v1.11h-4.93V62.2Z"/><path class="cls-6" d="M145.32,63.47c0-.51.06-1.05.06-1.64h1.22c0,.57,0,1.11-.08,1.64h2.78a23.62,23.62,0,0,1-.41,4.86,1.32,1.32,0,0,1-1.47,1c-.39,0-.84,0-1.26-.05V68.07a10,10,0,0,0,1,.06.47.47,0,0,0,.48-.27,12.25,12.25,0,0,0,.33-3.27h-1.63a6.27,6.27,0,0,1-2.87,4.71l-.86-.9a4.94,4.94,0,0,0,2.52-3.81h-2.35V63.47Z"/><path class="cls-6" d="M153.58,62.36v2.76a4.56,4.56,0,0,1-2.12,4.09l-1-.87a3.33,3.33,0,0,0,1.85-3.26V62.36Zm2.46-.14v5a8.1,8.1,0,0,0,2.13-2l.53,1.16a12.76,12.76,0,0,1-3,2.61l-.94-.57v-6.2Z"/><path class="cls-6" d="M162.91,64.82V63.6c-.71.12-1.42.21-2.06.27l-.33-1a19.13,19.13,0,0,0,5.15-1l.57,1a14.83,14.83,0,0,1-2.07.58v1.46H167v1.1h-2.82c-.1,1.55-.69,2.57-2.6,3.39l-.86-1c1.71-.63,2.12-1.28,2.2-2.39h-3.13v-1.1Z"/><path class="cls-6" d="M169.55,65.13l-.32-1.46,1.09-.25.33,1.49,2.53-.5.86.51a15.93,15.93,0,0,1-1.29,2.44l-.91-.47a7.15,7.15,0,0,0,.76-1.29l-1.73.34.69,3.15-1.08.26-.7-3.2-1.52.3-.22-1Z"/><path class="cls-6" d="M182.72,64.94v1.25h-7V64.94Z"/><path class="cls-6" d="M191.19,65.4c-.64.21-1.47.5-2.23.8a14.81,14.81,0,0,1,.07,1.49h-1.11c0-.17,0-.32,0-.46s0-.39,0-.56c-.66.33-1.12.69-1.12,1s.55.56,1.67.56a10.84,10.84,0,0,0,2.18-.21l.1,1.08a14,14,0,0,1-2.27.15c-1.77,0-2.84-.51-2.84-1.53,0-.86,1-1.54,2.1-2.12-.1-.21-.23-.31-.38-.31a2.3,2.3,0,0,0-1.54.69,10.65,10.65,0,0,0-.92,1l-.93-.75a8.82,8.82,0,0,0,1.79-2.49h-1.49v-1h1.94a8.7,8.7,0,0,0,.33-1.06l1.19.24q-.12.42-.26.82h2.44v1h-2.87a5,5,0,0,1-.5.86,2.4,2.4,0,0,1,1.05-.28,1.12,1.12,0,0,1,1.12.78c.75-.32,1.5-.6,2-.84Z"/><path class="cls-6" d="M197.63,66.57c0-.2.05-.41.08-.65h-2.62c0,.11-.07.21-.09.31l-1.15-.08c.28-.82.72-2.31,1-3.35h-1v1H192.7v-2h7.46v2H199v-1H196c0,.17-.09.36-.14.55h2.93v1h-3.18c-.06.21-.12.43-.18.63H199q-.09.91-.18,1.65h1.59v1h-1.75c-.18,1-.4,1.64-.69,1.82a1.63,1.63,0,0,1-.77.18c-.27,0-.86,0-1.22,0l-.2-1.11c.33,0,.87,0,1.11,0a.59.59,0,0,0,.27-.06c.12-.08.23-.34.33-.83h-5v-1Z"/><path class="cls-6" d="M206.3,68h-2.11l.62.27a11.28,11.28,0,0,1-2.39,1.25l-1-.62a10.33,10.33,0,0,0,2.07-.91h-2.18v-.86h8V68h-2.11c.71.33,1.35.67,1.94,1l-1.13.52a25.7,25.7,0,0,0-2.26-1.23Zm-1.62-4.94V62.8h-3.35V62h3.35v-.42h1.17V62h3.38v.84h-3.38v.29H208V66.9h-5.48V63.09Zm-1,1.11h3.2v-.33h-3.2Zm0,1h3.2v-.33h-3.2Zm0,1h3.2V65.8h-3.2Z"/><path class="cls-6" d="M214.57,62.64c.76-.06,1.71-.16,2.37-.25l.15,1.17a12.1,12.1,0,0,0-1.4.18A2.53,2.53,0,0,0,215,64a2.92,2.92,0,0,0-1.52,2.41c0,.92.8,1.53,2.92,1.62l-.15,1.17c-2.54-.09-4-1-4-2.74a3.5,3.5,0,0,1,1.38-2.7c-.86.09-2.35.2-3.38.26l-.09-1.15C211.39,62.85,213.66,62.71,214.57,62.64ZM216,64.57a5.73,5.73,0,0,1,.69,1.09l-.59.33a5.31,5.31,0,0,0-.67-1.09Zm1-.49a5.27,5.27,0,0,1,.69,1.08l-.6.33a5.08,5.08,0,0,0-.65-1.09Z"/><path class="cls-6" d="M219.6,66.73a10.23,10.23,0,0,1-.45,2.23l-.91-.29a8.27,8.27,0,0,0,.44-2.11Zm1.16,2.82H219.7v-3.3l-1.26.13-.19-1,.46,0c.22-.28.45-.57.65-.87a7.26,7.26,0,0,0-1-1.08l.53-.74.17.15a11.72,11.72,0,0,0,.69-1.28l.93.39a14.58,14.58,0,0,1-1,1.53l.22.26a15.19,15.19,0,0,0,.86-1.4l1,.45a27.82,27.82,0,0,1-1.82,2.54l.85-.05a6.2,6.2,0,0,0-.34-.57l.81-.43a6.41,6.41,0,0,1,.84,1.71l-.86.43a2.12,2.12,0,0,0-.09-.31l-.36,0Zm1-3.05a9.09,9.09,0,0,1,.36,1.69l-.93.23a7.68,7.68,0,0,0-.33-1.69Zm.67-.91-.75-.74a2.59,2.59,0,0,0,1.47-2h-1.25v-1h4.36c0,2.13-.11,3.24-.42,3.44a1,1,0,0,1-.57.15h-.79c0-.32-.09-.63-.14-1,.18,0,.46,0,.6,0a.25.25,0,0,0,.13,0,5.54,5.54,0,0,0,.15-1.63h-1A3.64,3.64,0,0,1,222.38,65.59Zm.78,3.67v.3h-1V65.72H226v3.84H225v-.3Zm1.79-1V66.72h-1.79v1.55Z"/><path class="cls-6" d="M233,64.48a9.76,9.76,0,0,1-1.89-1.91,9.27,9.27,0,0,1-1.86,1.92h1v1.85a3.7,3.7,0,0,1-1.76,3.23l-.93-.75a2.66,2.66,0,0,0,1.54-2.49V64.61a8.49,8.49,0,0,1-1.36.81l-.68-.93a7.78,7.78,0,0,0,3.53-2.94h1.08a8.21,8.21,0,0,0,3.63,2.94l-.74,1a9.17,9.17,0,0,1-1.36-.81v4.94h-1.17V64.48Z"/><path class="cls-6" d="M240.58,67v2.58h-1.17V67h-1.85v.35h-1.12V63.08h3V61.55h1.17v1.53h3.11v4.24h-1.16V67Zm-1.17-1.07V64.15h-1.85V65.9Zm3.13,0V64.15h-2V65.9Z"/><path class="cls-6" d="M247.46,67.42v1.39h-1.34V67.42Zm0-5.19v2.19l-.13,2.21h-1.06l-.13-2.21V62.23Z"/></g><path class="cls-4" d="M118.15,66.93V64.4h-.82v-1h.82V61.53h1.09v1.85H120v1h-.73v2.26l.8-.21.09,1c-.79.29-2,.69-2.66.92l-.27-1.17ZM125,63.14c0,2.48,0,3.74-.31,4a.93.93,0,0,1-.53.15h-.64l-.13-1.05h.39s.07,0,.09,0a10,10,0,0,0,.08-2l-.69.29v3h-1.08V64.94l-.67.28v2.17c0,.8.15.92.61.93h1.53c.46,0,.51-.07.54-.81l1.07.19c-.15,1.48-.35,1.69-1.53,1.71-.53,0-1.21,0-1.71,0-1.27,0-1.62-.39-1.62-2V65.69l-.53.21-.39-1,.93-.39V62.32h1.1v1.74l.67-.28V61.54h1.08v1.77l.68-.29Z"/><path class="cls-4" d="M131.89,62.79l.23.13a4.71,4.71,0,0,0-.68-.89l.57-.39a4.86,4.86,0,0,1,.78,1.06l-.49.32.52.28a7.75,7.75,0,0,1-4.7,6l-.85-1a5.87,5.87,0,0,0,4.08-4.36h-4.91V62.79Zm2-.45-.59.38a4.25,4.25,0,0,0-.76-1.05l.57-.39A4.59,4.59,0,0,1,133.89,62.34Z"/><path class="cls-4" d="M140.59,64.15l.85.59a6.77,6.77,0,0,1-4.3,4.58l-.77-1.07a4.91,4.91,0,0,0,3.51-3h-5.07V64.15Zm0-1.94v1.11h-4.93V62.2Z"/><path class="cls-4" d="M145.32,63.47c0-.51.06-1.05.06-1.64h1.22c0,.57,0,1.11-.08,1.64h2.78a23.62,23.62,0,0,1-.41,4.86,1.32,1.32,0,0,1-1.47,1c-.39,0-.84,0-1.26-.05V68.07a10,10,0,0,0,1,.06.47.47,0,0,0,.48-.27,12.25,12.25,0,0,0,.33-3.27h-1.63a6.27,6.27,0,0,1-2.87,4.71l-.86-.9a4.94,4.94,0,0,0,2.52-3.81h-2.35V63.47Z"/><path class="cls-4" d="M153.58,62.36v2.76a4.56,4.56,0,0,1-2.12,4.09l-1-.87a3.33,3.33,0,0,0,1.85-3.26V62.36Zm2.46-.14v5a8.1,8.1,0,0,0,2.13-2l.53,1.16a12.76,12.76,0,0,1-3,2.61l-.94-.57v-6.2Z"/><path class="cls-4" d="M162.91,64.82V63.6c-.71.12-1.42.21-2.06.27l-.33-1a19.13,19.13,0,0,0,5.15-1l.57,1a14.83,14.83,0,0,1-2.07.58v1.46H167v1.1h-2.82c-.1,1.55-.69,2.57-2.6,3.39l-.86-1c1.71-.63,2.12-1.28,2.2-2.39h-3.13v-1.1Z"/><path class="cls-4" d="M169.55,65.13l-.32-1.46,1.09-.25.33,1.49,2.53-.5.86.51a15.93,15.93,0,0,1-1.29,2.44l-.91-.47a7.15,7.15,0,0,0,.76-1.29l-1.73.34.69,3.15-1.08.26-.7-3.2-1.52.3-.22-1Z"/><path class="cls-4" d="M182.72,64.94v1.25h-7V64.94Z"/><path class="cls-4" d="M191.19,65.4c-.64.21-1.47.5-2.23.8a14.81,14.81,0,0,1,.07,1.49h-1.11c0-.17,0-.32,0-.46s0-.39,0-.56c-.66.33-1.12.69-1.12,1s.55.56,1.67.56a10.84,10.84,0,0,0,2.18-.21l.1,1.08a14,14,0,0,1-2.27.15c-1.77,0-2.84-.51-2.84-1.53,0-.86,1-1.54,2.1-2.12-.1-.21-.23-.31-.38-.31a2.3,2.3,0,0,0-1.54.69,10.65,10.65,0,0,0-.92,1l-.93-.75a8.82,8.82,0,0,0,1.79-2.49h-1.49v-1h1.94a8.7,8.7,0,0,0,.33-1.06l1.19.24q-.12.42-.26.82h2.44v1h-2.87a5,5,0,0,1-.5.86,2.4,2.4,0,0,1,1.05-.28,1.12,1.12,0,0,1,1.12.78c.75-.32,1.5-.6,2-.84Z"/><path class="cls-4" d="M197.63,66.57c0-.2.05-.41.08-.65h-2.62c0,.11-.07.21-.09.31l-1.15-.08c.28-.82.72-2.31,1-3.35h-1v1H192.7v-2h7.46v2H199v-1H196c0,.17-.09.36-.14.55h2.93v1h-3.18c-.06.21-.12.43-.18.63H199q-.09.91-.18,1.65h1.59v1h-1.75c-.18,1-.4,1.64-.69,1.82a1.63,1.63,0,0,1-.77.18c-.27,0-.86,0-1.22,0l-.2-1.11c.33,0,.87,0,1.11,0a.59.59,0,0,0,.27-.06c.12-.08.23-.34.33-.83h-5v-1Z"/><path class="cls-4" d="M206.3,68h-2.11l.62.27a11.28,11.28,0,0,1-2.39,1.25l-1-.62a10.33,10.33,0,0,0,2.07-.91h-2.18v-.86h8V68h-2.11c.71.33,1.35.67,1.94,1l-1.13.52a25.7,25.7,0,0,0-2.26-1.23Zm-1.62-4.94V62.8h-3.35V62h3.35v-.42h1.17V62h3.38v.84h-3.38v.29H208V66.9h-5.48V63.09Zm-1,1.11h3.2v-.33h-3.2Zm0,1h3.2v-.33h-3.2Zm0,1h3.2V65.8h-3.2Z"/><path class="cls-4" d="M214.57,62.64c.76-.06,1.71-.16,2.37-.25l.15,1.17a12.1,12.1,0,0,0-1.4.18A2.53,2.53,0,0,0,215,64a2.92,2.92,0,0,0-1.52,2.41c0,.92.8,1.53,2.92,1.62l-.15,1.17c-2.54-.09-4-1-4-2.74a3.5,3.5,0,0,1,1.38-2.7c-.86.09-2.35.2-3.38.26l-.09-1.15C211.39,62.85,213.66,62.71,214.57,62.64ZM216,64.57a5.73,5.73,0,0,1,.69,1.09l-.59.33a5.31,5.31,0,0,0-.67-1.09Zm1-.49a5.27,5.27,0,0,1,.69,1.08l-.6.33a5.08,5.08,0,0,0-.65-1.09Z"/><path class="cls-4" d="M219.6,66.73a10.23,10.23,0,0,1-.45,2.23l-.91-.29a8.27,8.27,0,0,0,.44-2.11Zm1.16,2.82H219.7v-3.3l-1.26.13-.19-1,.46,0c.22-.28.45-.57.65-.87a7.26,7.26,0,0,0-1-1.08l.53-.74.17.15a11.72,11.72,0,0,0,.69-1.28l.93.39a14.58,14.58,0,0,1-1,1.53l.22.26a15.19,15.19,0,0,0,.86-1.4l1,.45a27.82,27.82,0,0,1-1.82,2.54l.85-.05a6.2,6.2,0,0,0-.34-.57l.81-.43a6.41,6.41,0,0,1,.84,1.71l-.86.43a2.12,2.12,0,0,0-.09-.31l-.36,0Zm1-3.05a9.09,9.09,0,0,1,.36,1.69l-.93.23a7.68,7.68,0,0,0-.33-1.69Zm.67-.91-.75-.74a2.59,2.59,0,0,0,1.47-2h-1.25v-1h4.36c0,2.13-.11,3.24-.42,3.44a1,1,0,0,1-.57.15h-.79c0-.32-.09-.63-.14-1,.18,0,.46,0,.6,0a.25.25,0,0,0,.13,0,5.54,5.54,0,0,0,.15-1.63h-1A3.64,3.64,0,0,1,222.38,65.59Zm.78,3.67v.3h-1V65.72H226v3.84H225v-.3Zm1.79-1V66.72h-1.79v1.55Z"/><path class="cls-4" d="M233,64.48a9.76,9.76,0,0,1-1.89-1.91,9.27,9.27,0,0,1-1.86,1.92h1v1.85a3.7,3.7,0,0,1-1.76,3.23l-.93-.75a2.66,2.66,0,0,0,1.54-2.49V64.61a8.49,8.49,0,0,1-1.36.81l-.68-.93a7.78,7.78,0,0,0,3.53-2.94h1.08a8.21,8.21,0,0,0,3.63,2.94l-.74,1a9.17,9.17,0,0,1-1.36-.81v4.94h-1.17V64.48Z"/><path class="cls-4" d="M240.58,67v2.58h-1.17V67h-1.85v.35h-1.12V63.08h3V61.55h1.17v1.53h3.11v4.24h-1.16V67Zm-1.17-1.07V64.15h-1.85V65.9Zm3.13,0V64.15h-2V65.9Z"/><path class="cls-4" d="M247.46,67.42v1.39h-1.34V67.42Zm0-5.19v2.19l-.13,2.21h-1.06l-.13-2.21V62.23Z"/><path class="cls-6" d="M118.15,66.93V64.4h-.82v-1h.82V61.53h1.09v1.85H120v1h-.73v2.26l.8-.21.09,1c-.79.29-2,.69-2.66.92l-.27-1.17ZM125,63.14c0,2.48,0,3.74-.31,4a.93.93,0,0,1-.53.15h-.64l-.13-1.05h.39s.07,0,.09,0a10,10,0,0,0,.08-2l-.69.29v3h-1.08V64.94l-.67.28v2.17c0,.8.15.92.61.93h1.53c.46,0,.51-.07.54-.81l1.07.19c-.15,1.48-.35,1.69-1.53,1.71-.53,0-1.21,0-1.71,0-1.27,0-1.62-.39-1.62-2V65.69l-.53.21-.39-1,.93-.39V62.32h1.1v1.74l.67-.28V61.54h1.08v1.77l.68-.29Z"/><path class="cls-6" d="M131.89,62.79l.23.13a4.71,4.71,0,0,0-.68-.89l.57-.39a4.86,4.86,0,0,1,.78,1.06l-.49.32.52.28a7.75,7.75,0,0,1-4.7,6l-.85-1a5.87,5.87,0,0,0,4.08-4.36h-4.91V62.79Zm2-.45-.59.38a4.25,4.25,0,0,0-.76-1.05l.57-.39A4.59,4.59,0,0,1,133.89,62.34Z"/><path class="cls-6" d="M140.59,64.15l.85.59a6.77,6.77,0,0,1-4.3,4.58l-.77-1.07a4.91,4.91,0,0,0,3.51-3h-5.07V64.15Zm0-1.94v1.11h-4.93V62.2Z"/><path class="cls-6" d="M145.32,63.47c0-.51.06-1.05.06-1.64h1.22c0,.57,0,1.11-.08,1.64h2.78a23.62,23.62,0,0,1-.41,4.86,1.32,1.32,0,0,1-1.47,1c-.39,0-.84,0-1.26-.05V68.07a10,10,0,0,0,1,.06.47.47,0,0,0,.48-.27,12.25,12.25,0,0,0,.33-3.27h-1.63a6.27,6.27,0,0,1-2.87,4.71l-.86-.9a4.94,4.94,0,0,0,2.52-3.81h-2.35V63.47Z"/><path class="cls-6" d="M153.58,62.36v2.76a4.56,4.56,0,0,1-2.12,4.09l-1-.87a3.33,3.33,0,0,0,1.85-3.26V62.36Zm2.46-.14v5a8.1,8.1,0,0,0,2.13-2l.53,1.16a12.76,12.76,0,0,1-3,2.61l-.94-.57v-6.2Z"/><path class="cls-6" d="M162.91,64.82V63.6c-.71.12-1.42.21-2.06.27l-.33-1a19.13,19.13,0,0,0,5.15-1l.57,1a14.83,14.83,0,0,1-2.07.58v1.46H167v1.1h-2.82c-.1,1.55-.69,2.57-2.6,3.39l-.86-1c1.71-.63,2.12-1.28,2.2-2.39h-3.13v-1.1Z"/><path class="cls-6" d="M169.55,65.13l-.32-1.46,1.09-.25.33,1.49,2.53-.5.86.51a15.93,15.93,0,0,1-1.29,2.44l-.91-.47a7.15,7.15,0,0,0,.76-1.29l-1.73.34.69,3.15-1.08.26-.7-3.2-1.52.3-.22-1Z"/><path class="cls-6" d="M182.72,64.94v1.25h-7V64.94Z"/><path class="cls-6" d="M191.19,65.4c-.64.21-1.47.5-2.23.8a14.81,14.81,0,0,1,.07,1.49h-1.11c0-.17,0-.32,0-.46s0-.39,0-.56c-.66.33-1.12.69-1.12,1s.55.56,1.67.56a10.84,10.84,0,0,0,2.18-.21l.1,1.08a14,14,0,0,1-2.27.15c-1.77,0-2.84-.51-2.84-1.53,0-.86,1-1.54,2.1-2.12-.1-.21-.23-.31-.38-.31a2.3,2.3,0,0,0-1.54.69,10.65,10.65,0,0,0-.92,1l-.93-.75a8.82,8.82,0,0,0,1.79-2.49h-1.49v-1h1.94a8.7,8.7,0,0,0,.33-1.06l1.19.24q-.12.42-.26.82h2.44v1h-2.87a5,5,0,0,1-.5.86,2.4,2.4,0,0,1,1.05-.28,1.12,1.12,0,0,1,1.12.78c.75-.32,1.5-.6,2-.84Z"/><path class="cls-6" d="M197.63,66.57c0-.2.05-.41.08-.65h-2.62c0,.11-.07.21-.09.31l-1.15-.08c.28-.82.72-2.31,1-3.35h-1v1H192.7v-2h7.46v2H199v-1H196c0,.17-.09.36-.14.55h2.93v1h-3.18c-.06.21-.12.43-.18.63H199q-.09.91-.18,1.65h1.59v1h-1.75c-.18,1-.4,1.64-.69,1.82a1.63,1.63,0,0,1-.77.18c-.27,0-.86,0-1.22,0l-.2-1.11c.33,0,.87,0,1.11,0a.59.59,0,0,0,.27-.06c.12-.08.23-.34.33-.83h-5v-1Z"/><path class="cls-6" d="M206.3,68h-2.11l.62.27a11.28,11.28,0,0,1-2.39,1.25l-1-.62a10.33,10.33,0,0,0,2.07-.91h-2.18v-.86h8V68h-2.11c.71.33,1.35.67,1.94,1l-1.13.52a25.7,25.7,0,0,0-2.26-1.23Zm-1.62-4.94V62.8h-3.35V62h3.35v-.42h1.17V62h3.38v.84h-3.38v.29H208V66.9h-5.48V63.09Zm-1,1.11h3.2v-.33h-3.2Zm0,1h3.2v-.33h-3.2Zm0,1h3.2V65.8h-3.2Z"/><path class="cls-6" d="M214.57,62.64c.76-.06,1.71-.16,2.37-.25l.15,1.17a12.1,12.1,0,0,0-1.4.18A2.53,2.53,0,0,0,215,64a2.92,2.92,0,0,0-1.52,2.41c0,.92.8,1.53,2.92,1.62l-.15,1.17c-2.54-.09-4-1-4-2.74a3.5,3.5,0,0,1,1.38-2.7c-.86.09-2.35.2-3.38.26l-.09-1.15C211.39,62.85,213.66,62.71,214.57,62.64ZM216,64.57a5.73,5.73,0,0,1,.69,1.09l-.59.33a5.31,5.31,0,0,0-.67-1.09Zm1-.49a5.27,5.27,0,0,1,.69,1.08l-.6.33a5.08,5.08,0,0,0-.65-1.09Z"/><path class="cls-6" d="M219.6,66.73a10.23,10.23,0,0,1-.45,2.23l-.91-.29a8.27,8.27,0,0,0,.44-2.11Zm1.16,2.82H219.7v-3.3l-1.26.13-.19-1,.46,0c.22-.28.45-.57.65-.87a7.26,7.26,0,0,0-1-1.08l.53-.74.17.15a11.72,11.72,0,0,0,.69-1.28l.93.39a14.58,14.58,0,0,1-1,1.53l.22.26a15.19,15.19,0,0,0,.86-1.4l1,.45a27.82,27.82,0,0,1-1.82,2.54l.85-.05a6.2,6.2,0,0,0-.34-.57l.81-.43a6.41,6.41,0,0,1,.84,1.71l-.86.43a2.12,2.12,0,0,0-.09-.31l-.36,0Zm1-3.05a9.09,9.09,0,0,1,.36,1.69l-.93.23a7.68,7.68,0,0,0-.33-1.69Zm.67-.91-.75-.74a2.59,2.59,0,0,0,1.47-2h-1.25v-1h4.36c0,2.13-.11,3.24-.42,3.44a1,1,0,0,1-.57.15h-.79c0-.32-.09-.63-.14-1,.18,0,.46,0,.6,0a.25.25,0,0,0,.13,0,5.54,5.54,0,0,0,.15-1.63h-1A3.64,3.64,0,0,1,222.38,65.59Zm.78,3.67v.3h-1V65.72H226v3.84H225v-.3Zm1.79-1V66.72h-1.79v1.55Z"/><path class="cls-6" d="M233,64.48a9.76,9.76,0,0,1-1.89-1.91,9.27,9.27,0,0,1-1.86,1.92h1v1.85a3.7,3.7,0,0,1-1.76,3.23l-.93-.75a2.66,2.66,0,0,0,1.54-2.49V64.61a8.49,8.49,0,0,1-1.36.81l-.68-.93a7.78,7.78,0,0,0,3.53-2.94h1.08a8.21,8.21,0,0,0,3.63,2.94l-.74,1a9.17,9.17,0,0,1-1.36-.81v4.94h-1.17V64.48Z"/><path class="cls-6" d="M240.58,67v2.58h-1.17V67h-1.85v.35h-1.12V63.08h3V61.55h1.17v1.53h3.11v4.24h-1.16V67Zm-1.17-1.07V64.15h-1.85V65.9Zm3.13,0V64.15h-2V65.9Z"/><path class="cls-6" d="M247.46,67.42v1.39h-1.34V67.42Zm0-5.19v2.19l-.13,2.21h-1.06l-.13-2.21V62.23Z"/><g class="cls-2"><path class="cls-6" d="M145.34,27.14l.57-.68,3.6,7.47-.57.68Z"/><path class="cls-6" d="M155.27,33.58h2.49v1.11H154V28.11h1.26Z"/><path class="cls-6" d="M160.34,30.81h2.1v1.05h-2.1v1.72h2.57v1.11h-3.82V28.11h3.66v1.11h-2.41Z"/><path class="cls-6" d="M165.47,34.69V29.21h-1.74V28.11h4.76v1.11h-1.75v5.47Z"/><path class="cls-6" d="M170.38,29.72l-.85,0a13.81,13.81,0,0,0,.37-2l1.06.06A9.93,9.93,0,0,1,170.38,29.72Z"/><path class="cls-6" d="M176.86,29.43a3.33,3.33,0,0,0-1.3-.33c-.4,0-1,.11-1,.74,0,.41.45.63,1,.91.93.45,1.77.89,1.77,2.07a1.86,1.86,0,0,1-2.12,2,5.76,5.76,0,0,1-2.1-.39l.32-1.16a4.48,4.48,0,0,0,1.72.43c.4,0,.88-.17.88-.78,0-.45-.36-.74-1.2-1.11s-1.55-.78-1.55-1.87A1.87,1.87,0,0,1,175.43,28a4.54,4.54,0,0,1,1.78.33Z"/><path class="cls-6" d="M181.3,31.47c0-1.76.65-3.49,3.3-3.49a6.66,6.66,0,0,1,1.49.19l-.21,1.15a3.92,3.92,0,0,0-1.26-.21c-1.34,0-2,.86-2,2.38s.72,2.17,2,2.17a4.74,4.74,0,0,0,1.33-.21l.13,1.17a6,6,0,0,1-1.5.19c-2.62,0-3.32-1.6-3.32-3.33Z"/><path class="cls-6" d="M188.89,34.69h-1.28V28.11h1.28v2.66h2.88V28.11H193v6.58h-1.28V31.88h-2.88Z"/><path class="cls-6" d="M196.29,30.81h2.1v1.05h-2.1v1.72h2.57v1.11H195V28.11h3.66v1.11h-2.41Z"/><path class="cls-6" d="M200.15,31.47c0-1.76.65-3.49,3.3-3.49a6.66,6.66,0,0,1,1.49.19l-.21,1.15a3.92,3.92,0,0,0-1.26-.21c-1.34,0-2,.86-2,2.38s.72,2.17,2,2.17a4.74,4.74,0,0,0,1.33-.21l.13,1.17a6,6,0,0,1-1.5.19c-2.62,0-3.32-1.6-3.32-3.33Z"/><path class="cls-6" d="M211.79,34.69h-1.7l-2.35-3.15v3.15h-1.28V28.11h1.28v3.24L210,28.11h1.59L209,31.35Z"/><path class="cls-6" d="M214.19,28.11V30.3l-.13,2.21H213l-.13-2.21V28.11Zm0,5.19v1.39h-1.33V33.3Z"/><path class="cls-6" d="M219,35.67h-.88l3.4-7.57h.88Z"/></g><path class="cls-4" d="M145.34,27.14l.57-.68,3.6,7.47-.57.68Z"/><path class="cls-4" d="M155.27,33.58h2.49v1.11H154V28.11h1.26Z"/><path class="cls-4" d="M160.34,30.81h2.1v1.05h-2.1v1.72h2.57v1.11h-3.82V28.11h3.66v1.11h-2.41Z"/><path class="cls-4" d="M165.47,34.69V29.21h-1.74V28.11h4.76v1.11h-1.75v5.47Z"/><path class="cls-4" d="M170.38,29.72l-.85,0a13.81,13.81,0,0,0,.37-2l1.06.06A9.93,9.93,0,0,1,170.38,29.72Z"/><path class="cls-4" d="M176.86,29.43a3.33,3.33,0,0,0-1.3-.33c-.4,0-1,.11-1,.74,0,.41.45.63,1,.91.93.45,1.77.89,1.77,2.07a1.86,1.86,0,0,1-2.12,2,5.76,5.76,0,0,1-2.1-.39l.32-1.16a4.48,4.48,0,0,0,1.72.43c.4,0,.88-.17.88-.78,0-.45-.36-.74-1.2-1.11s-1.55-.78-1.55-1.87A1.87,1.87,0,0,1,175.43,28a4.54,4.54,0,0,1,1.78.33Z"/><path class="cls-4" d="M181.3,31.47c0-1.76.65-3.49,3.3-3.49a6.66,6.66,0,0,1,1.49.19l-.21,1.15a3.92,3.92,0,0,0-1.26-.21c-1.34,0-2,.86-2,2.38s.72,2.17,2,2.17a4.74,4.74,0,0,0,1.33-.21l.13,1.17a6,6,0,0,1-1.5.19c-2.62,0-3.32-1.6-3.32-3.33Z"/><path class="cls-4" d="M188.89,34.69h-1.28V28.11h1.28v2.66h2.88V28.11H193v6.58h-1.28V31.88h-2.88Z"/><path class="cls-4" d="M196.29,30.81h2.1v1.05h-2.1v1.72h2.57v1.11H195V28.11h3.66v1.11h-2.41Z"/><path class="cls-4" d="M200.15,31.47c0-1.76.65-3.49,3.3-3.49a6.66,6.66,0,0,1,1.49.19l-.21,1.15a3.92,3.92,0,0,0-1.26-.21c-1.34,0-2,.86-2,2.38s.72,2.17,2,2.17a4.74,4.74,0,0,0,1.33-.21l.13,1.17a6,6,0,0,1-1.5.19c-2.62,0-3.32-1.6-3.32-3.33Z"/><path class="cls-4" d="M211.79,34.69h-1.7l-2.35-3.15v3.15h-1.28V28.11h1.28v3.24L210,28.11h1.59L209,31.35Z"/><path class="cls-4" d="M214.19,28.11V30.3l-.13,2.21H213l-.13-2.21V28.11Zm0,5.19v1.39h-1.33V33.3Z"/><path class="cls-4" d="M219,35.67h-.88l3.4-7.57h.88Z"/><path class="cls-6" d="M145.34,27.14l.57-.68,3.6,7.47-.57.68Z"/><path class="cls-6" d="M155.27,33.58h2.49v1.11H154V28.11h1.26Z"/><path class="cls-6" d="M160.34,30.81h2.1v1.05h-2.1v1.72h2.57v1.11h-3.82V28.11h3.66v1.11h-2.41Z"/><path class="cls-6" d="M165.47,34.69V29.21h-1.74V28.11h4.76v1.11h-1.75v5.47Z"/><path class="cls-6" d="M170.38,29.72l-.85,0a13.81,13.81,0,0,0,.37-2l1.06.06A9.93,9.93,0,0,1,170.38,29.72Z"/><path class="cls-6" d="M176.86,29.43a3.33,3.33,0,0,0-1.3-.33c-.4,0-1,.11-1,.74,0,.41.45.63,1,.91.93.45,1.77.89,1.77,2.07a1.86,1.86,0,0,1-2.12,2,5.76,5.76,0,0,1-2.1-.39l.32-1.16a4.48,4.48,0,0,0,1.72.43c.4,0,.88-.17.88-.78,0-.45-.36-.74-1.2-1.11s-1.55-.78-1.55-1.87A1.87,1.87,0,0,1,175.43,28a4.54,4.54,0,0,1,1.78.33Z"/><path class="cls-6" d="M181.3,31.47c0-1.76.65-3.49,3.3-3.49a6.66,6.66,0,0,1,1.49.19l-.21,1.15a3.92,3.92,0,0,0-1.26-.21c-1.34,0-2,.86-2,2.38s.72,2.17,2,2.17a4.74,4.74,0,0,0,1.33-.21l.13,1.17a6,6,0,0,1-1.5.19c-2.62,0-3.32-1.6-3.32-3.33Z"/><path class="cls-6" d="M188.89,34.69h-1.28V28.11h1.28v2.66h2.88V28.11H193v6.58h-1.28V31.88h-2.88Z"/><path class="cls-6" d="M196.29,30.81h2.1v1.05h-2.1v1.72h2.57v1.11H195V28.11h3.66v1.11h-2.41Z"/><path class="cls-6" d="M200.15,31.47c0-1.76.65-3.49,3.3-3.49a6.66,6.66,0,0,1,1.49.19l-.21,1.15a3.92,3.92,0,0,0-1.26-.21c-1.34,0-2,.86-2,2.38s.72,2.17,2,2.17a4.74,4.74,0,0,0,1.33-.21l.13,1.17a6,6,0,0,1-1.5.19c-2.62,0-3.32-1.6-3.32-3.33Z"/><path class="cls-6" d="M211.79,34.69h-1.7l-2.35-3.15v3.15h-1.28V28.11h1.28v3.24L210,28.11h1.59L209,31.35Z"/><path class="cls-6" d="M214.19,28.11V30.3l-.13,2.21H213l-.13-2.21V28.11Zm0,5.19v1.39h-1.33V33.3Z"/><path class="cls-6" d="M219,35.67h-.88l3.4-7.57h.88Z"/></g></g></svg>