<?xml version="1.0" encoding="utf-8"?>
<!-- Generator: Adobe Illustrator 21.0.0, SVG Export Plug-In . SVG Version: 6.00 Build 0)  -->
<svg version="1.1" id="レイヤー_1" xmlns="http://www.w3.org/2000/svg" xmlns:xlink="http://www.w3.org/1999/xlink" x="0px"
	 y="0px" width="107.8px" height="64.5px" viewBox="0 0 107.8 64.5" style="enable-background:new 0 0 107.8 64.5;"
	 xml:space="preserve">
<style type="text/css">
	.st0{fill:#FFFFFF;}
	.st1{fill:none;stroke:#070001;stroke-miterlimit:10;}
	.st2{fill:#070001;}
	.st3{fill:#D8281C;}
	.st4{fill:none;}
</style>
<rect x="-24.9" y="-12.1" class="st0" width="1198.3" height="97.8"/>
<rect x="-23.2" y="-12.1" class="st1" width="1198.3" height="1522"/>
<g>
	<g>
		<g>
			<path class="st2" d="M0.9,57.9c0-0.4,0-0.7-0.1-1h1c0,0.3-0.1,0.5-0.1,1V59h0.2c0.3,0,0.4,0,0.6,0v0.9c-0.2,0-0.3,0-0.6,0H1.7V62
				c0.3-0.2,0.4-0.2,0.8-0.4v0.9c-0.8,0.4-1.3,0.6-2.1,0.9c-0.2,0.1-0.3,0.1-0.4,0.2l-0.2-1c0.3,0,0.5-0.1,1-0.3v-2.6H0.7
				c-0.3,0-0.5,0-0.7,0v-0.9c0.2,0,0.3,0,0.6,0h0.3V57.9z M3.9,63.1c0,0.2,0.1,0.2,0.2,0.3c0.2,0,0.6,0.1,1.1,0.1c1,0,1.3,0,1.4-0.2
				c0.1-0.1,0.1-0.4,0.1-1c0.3,0.1,0.6,0.2,0.9,0.3c-0.1,1.7-0.3,1.8-2.6,1.8c-1.7,0-2-0.2-2-0.9v-2.9c-0.1,0-0.1,0-0.2,0.1
				c-0.3,0.1-0.3,0.1-0.5,0.2L2.1,60c0.2,0,0.5-0.1,0.8-0.2H3v-1.1c0-0.4,0-0.6,0-0.9h1c0,0.3,0,0.5,0,0.8v0.9l0.8-0.3v-1.4
				c0-0.4,0-0.6,0-0.8h1c0,0.3-0.1,0.5-0.1,0.9v1.2l1.2-0.4c0.3-0.1,0.5-0.2,0.7-0.3c0,0.4,0,0.4,0,0.9c0,1.2-0.1,1.9-0.2,2.3
				c-0.1,0.5-0.3,0.6-0.9,0.6c-0.1,0-0.2,0-0.4,0c0-0.3-0.1-0.6-0.2-0.8c0.2,0,0.3,0.1,0.5,0.1s0.3,0,0.3-0.2c0-0.3,0.1-0.8,0.1-1.6
				l-1,0.3v2.1c0,0.3,0,0.6,0,0.8h-1c0-0.3,0-0.5,0-0.9v-2l-0.9,0.3V63.1z"/>
			<path class="st2" d="M16.9,59.8c0,0.1,0,0.1-0.1,0.2c0,0,0,0.1-0.1,0.1c-0.3,0.8-0.6,1.6-0.9,2.1c0.2,0.6,0.4,1.1,0.5,1.1
				s0.1-0.5,0.2-1c0.3,0.3,0.4,0.4,0.6,0.5c-0.1,0.8-0.2,1.1-0.3,1.4c-0.1,0.2-0.3,0.3-0.4,0.3c-0.4,0-0.8-0.5-1.2-1.4
				c-0.5,0.6-1,1-1.7,1.5c-0.2-0.3-0.3-0.5-0.7-0.7c0.5-0.3,1.1-0.7,1.4-1c-0.4,0.1-1.1,0.3-2,0.5c-0.4,0.1-0.7,0.2-0.9,0.2
				l-0.1-0.9c-0.5,0.2-0.9,0.4-1.7,0.8c-0.1,0-0.1,0.1-0.2,0.1l-0.2-1c0.2,0,0.5-0.1,0.9-0.3v-2.4H9.8c-0.2,0-0.4,0-0.6,0V59
				c0.2,0,0.4,0,0.6,0H10v-1.2c0-0.4,0-0.7-0.1-0.9h1c0,0.3-0.1,0.5-0.1,0.9V59h0.1c0.2,0,0.4,0,0.6,0v0.9c-0.2,0-0.3,0-0.6,0h-0.1
				v2c0.3-0.1,0.4-0.2,0.7-0.4v0.9c-0.1,0.1-0.2,0.1-0.3,0.2c0.8-0.1,1.8-0.3,3-0.6v0.7c0.2-0.2,0.3-0.4,0.5-0.7
				c-0.3-1-0.4-1.8-0.5-3.3h-1.9c-0.4,0-0.7,0-0.9,0v-0.9c0.2,0,0.6,0.1,1,0.1h1.9c0-0.2,0-0.3,0-0.4c0-0.3,0-0.5-0.1-0.7h1
				c0,0.2-0.1,0.4-0.1,0.9c0,0,0,0.2,0,0.3h0.7c0.1,0,0.1,0,0.2,0c-0.3-0.3-0.5-0.5-0.8-0.7l0.5-0.4c0.4,0.2,0.5,0.3,0.9,0.7
				L16.2,58c0.2,0,0.4,0,0.6,0v0.9c-0.2,0-0.6,0-0.9,0h-0.6c0,0.9,0.1,1.5,0.2,2.2c0.3-0.6,0.4-1.1,0.5-1.5L16.9,59.8z M11.9,59.9
				c0-0.4,0-0.4,0-0.5c0.1,0,0.3,0,0.5,0h1.3c0.2,0,0.4,0,0.5,0c0,0.1,0,0.2,0,0.4v1.6c0,0.2,0,0.4,0,0.5c-0.1,0-0.3,0-0.5,0h-1.2
				c-0.2,0-0.4,0-0.5,0c0-0.2,0-0.3,0-0.5v-1.5H11.9z M12.7,61.1h0.7v-0.9h-0.7V61.1z"/>
			<path class="st2" d="M22.1,58.9c-1.6,0-2.6,0.1-2.9,0.1l0,0c-0.2,0-0.2-0.3-0.3-1.2c0.4,0.1,1,0.1,2.3,0.1c1.2,0,2.5,0,2.7-0.1
				c0.2,0,0.2,0,0.4-0.1h0.1c0.1,0,0.3,0.1,0.6,0.5c0.2,0.2,0.2,0.3,0.2,0.4c0,0.1,0,0.1-0.1,0.2c-0.1,0.1-0.1,0.1-0.3,0.7
				c-0.5,1.5-1.4,2.9-2.7,3.9c-0.5,0.4-1,0.7-1.1,0.7s-0.1,0-0.3-0.2c-0.2-0.2-0.4-0.4-0.6-0.5c1.3-0.6,2-1.2,2.6-2s1-1.6,1.2-2.5
				C23.1,58.9,23.1,58.9,22.1,58.9z M25.9,58c-0.2,0.2-0.3,0.2-0.4,0.2s-0.1,0-0.2-0.3c-0.1-0.2-0.3-0.5-0.5-0.7v-0.1
				c0-0.1,0.3-0.3,0.4-0.3s0.2,0.1,0.4,0.4c0.2,0.3,0.4,0.5,0.4,0.6C26,57.9,26,57.9,25.9,58z M26.3,57.6c-0.2-0.4-0.4-0.6-0.6-0.8
				v-0.1c0,0,0-0.1,0.2-0.2c0.1-0.1,0.2-0.1,0.2-0.1c0.1,0,0.3,0.2,0.6,0.6c0.1,0.2,0.2,0.3,0.2,0.3s0,0.1-0.1,0.2
				C26.6,57.6,26.4,57.6,26.3,57.6L26.3,57.6z"/>
			<path class="st2" d="M28.8,60.4C28.7,60.4,28.7,60.4,28.8,60.4c-0.3,0-0.3-0.3-0.4-1.2c0.4,0.1,1,0.1,2.6,0.1c1.7,0,2.2,0,2.4,0
				c0.1,0,0.2,0,0.3-0.1c0.1,0,0.1,0,0.2,0c0.1,0,0.2,0.1,0.4,0.2c0.2,0.3,0.4,0.5,0.4,0.6s0,0.2-0.1,0.3s-0.1,0.1-0.3,0.5
				c-0.6,1.3-1.2,2.1-2.3,2.7c-0.5,0.3-1.2,0.7-1.4,0.7c-0.1,0-0.2-0.1-0.3-0.2c-0.2-0.3-0.3-0.4-0.6-0.5c1-0.3,1.9-0.8,2.5-1.4
				c0.5-0.5,0.8-1.1,1.1-1.8C30,60.3,29.4,60.3,28.8,60.4z M31.6,57.3c0.9,0,0.9,0,1.9-0.1c0,0,0,0,0.1,0s0.2,0.1,0.2,0.3
				c0,0.1,0,0.2,0,0.3l0,0c0,0.3,0,0.4-0.1,0.4c0,0-0.1,0-0.2,0c-0.2,0-0.8,0-1.1,0c-1.3,0-2.2,0-2.7,0.1h-0.1
				c-0.2,0-0.3-0.1-0.3-1.1C29.8,57.3,30.3,57.3,31.6,57.3z"/>
			<path class="st2" d="M43.9,59.4c0,0.1,0.1,0.1,0.1,0.2c0,0.1,0,0.1-0.1,0.3c-0.5,0.6-1,1.1-1.8,1.7c-0.9,0.7-1.6,1.1-2.6,1.6
				c-0.7,0.3-0.7,0.3-0.8,0.4c-0.1,0.1-0.1,0.1-0.2,0.1c-0.1,0-0.1-0.1-0.3-0.3c-0.2-0.3-0.3-0.6-0.4-0.9c0.9-0.2,1.9-0.7,2.9-1.3
				c1.3-0.8,2.2-1.7,2.8-2.8C43.6,58.8,43.6,59,43.9,59.4z M38.1,58c0.1-0.2,0.2-0.2,0.3-0.2c0.2,0,0.8,0.4,1.4,0.9
				c0.3,0.3,0.4,0.4,0.4,0.5s-0.2,0.3-0.4,0.5S39.5,60,39.4,60c-0.1,0-0.1,0-0.4-0.3c-0.2-0.2-0.7-0.6-0.9-0.7
				c-0.3-0.2-0.3-0.2-0.4-0.2l-0.1-0.1C37.7,58.5,37.9,58.2,38.1,58z"/>
			<path class="st2" d="M46.9,60.5c-0.1,0-0.2,0-0.2,0h-0.1h-0.1c-0.1,0-0.1,0-0.2-0.1c0-0.2-0.1-0.5-0.1-0.9
				c0.5,0.1,1.7,0.1,3.4,0.1c1.5,0,3.2,0,3.4-0.1h0.1c0.1,0,0.1,0,0.1,0.6c0,0.4,0,0.4-0.1,0.4c0,0,0,0-0.1,0c-0.4,0-0.6,0-2.6,0
				c0,0.7-0.1,0.9-0.2,1.3c-0.3,1-0.8,1.7-1.6,2.2c-0.2,0.2-0.4,0.2-0.5,0.2c0,0-0.1,0-0.1-0.1c-0.3-0.3-0.4-0.4-0.7-0.6
				c1.5-0.7,2.1-1.5,2.1-3.1C48,60.5,47.6,60.5,46.9,60.5z M47.8,57.6c0.2,0,0.4,0,0.5,0c0.4,0,0.6,0,1.1,0c1.3,0,1.9,0,2.4-0.1l0,0
				c0.1,0,0.1,0.1,0.1,0.3c0,0,0,0.1,0,0.2c0,0.1,0,0.1,0,0.2c0,0.2,0,0.3-0.2,0.3c-0.1,0-0.7,0-1.3,0c-0.1,0-0.3,0-0.7,0
				c-1.1,0-1.9,0-2.2,0.1c0,0,0,0-0.1,0s-0.1,0-0.1-0.1c0-0.2-0.1-0.6-0.1-0.9C47.5,57.6,47.6,57.6,47.8,57.6z M52.7,58.2
				c-0.2-0.3-0.4-0.6-0.6-0.9c0-0.1,0-0.1,0-0.1c0-0.1,0-0.1,0.2-0.2c0.1-0.1,0.2-0.1,0.2-0.1c0.1,0,0.2,0.1,0.4,0.3
				c0.3,0.3,0.5,0.6,0.5,0.7c0,0.1,0,0.1-0.1,0.2C53,58.2,52.9,58.3,52.7,58.2C52.8,58.3,52.8,58.3,52.7,58.2z M53.9,57.6
				c-0.1,0.1-0.2,0.1-0.2,0.1s-0.1,0-0.1-0.1c-0.2-0.3-0.4-0.6-0.7-0.8v-0.1c0-0.1,0.4-0.3,0.4-0.3c0.1,0,0.1,0,0.2,0.1
				c0.3,0.2,0.6,0.7,0.6,0.8C54.2,57.4,54.1,57.5,53.9,57.6z"/>
			<path class="st2" d="M58.1,61.4c-0.7,0.4-1.6,0.9-1.7,0.9c-0.1,0-0.1,0-0.2-0.2c-0.1-0.2-0.3-0.3-0.5-0.5c1.1-0.4,2.3-1,3.3-1.9
				c0.4-0.4,0.6-0.6,0.8-0.9c0.5,0.3,0.8,0.6,0.8,0.8c0,0.1,0,0.1-0.1,0.1c-0.1,0.1-0.2,0.1-0.5,0.3c-0.2,0.2-0.5,0.5-0.9,0.7v1.4
				c0,0.8,0,1.5,0,1.9v0.1c0,0.1-0.1,0.2-0.6,0.2c-0.3,0-0.4,0-0.4-0.1l0,0l0,0c0,0,0-0.1,0-0.2c0-0.2,0-1,0-1.8
				C58.1,62.2,58.1,61.4,58.1,61.4z"/>
			<path class="st2" d="M70,59.4c0,0.1,0.1,0.1,0.1,0.2c0,0.1,0,0.1-0.1,0.3c-0.5,0.6-1,1.1-1.8,1.7c-0.9,0.7-1.6,1.1-2.6,1.6
				c-0.7,0.3-0.7,0.3-0.8,0.4c-0.1,0.1-0.1,0.1-0.2,0.1s-0.1-0.1-0.3-0.3c-0.2-0.3-0.3-0.6-0.4-0.9c0.9-0.2,1.9-0.7,2.9-1.3
				c1.3-0.8,2.2-1.7,2.8-2.8C69.7,58.8,69.8,59,70,59.4z M64.3,58c0.1-0.2,0.2-0.2,0.3-0.2c0.2,0,0.8,0.4,1.4,0.9
				c0.3,0.3,0.4,0.4,0.4,0.5s-0.2,0.3-0.4,0.5c-0.2,0.2-0.3,0.3-0.4,0.3s-0.1,0-0.4-0.3c-0.2-0.2-0.7-0.6-0.9-0.7
				c-0.3-0.2-0.3-0.2-0.4-0.2l-0.1-0.1C63.9,58.5,64,58.2,64.3,58z"/>
			<path class="st2" d="M75,59.2C74.4,60,73.3,61,73.1,61c-0.1,0-0.1,0-0.3-0.2c-0.1-0.1-0.4-0.3-0.6-0.4c0.6-0.3,1.2-0.8,1.7-1.4
				c0.5-0.6,0.8-1.1,1.1-1.9c0.4,0.1,0.6,0.2,0.9,0.4c0.1,0.1,0.2,0.1,0.2,0.2c0,0.1,0,0.1-0.1,0.2c-0.1,0.1-0.2,0.2-0.4,0.5h1.3
				c0.5,0,0.6,0,0.8-0.1h0.1c0.1,0,0.3,0.1,0.5,0.5c0.2,0.2,0.2,0.3,0.2,0.4c0,0.1,0,0.1-0.1,0.3c-0.1,0.1-0.2,0.2-0.3,0.4
				c-0.9,1.7-1.8,2.8-3.2,3.8c-0.6,0.4-1.4,0.9-1.6,0.9c-0.1,0-0.1,0-0.2-0.1c-0.1-0.2-0.4-0.3-0.7-0.5c1.3-0.6,2.2-1.2,3-2.1
				c0.6-0.6,1-1.2,1.4-1.9c0.1-0.1,0.1-0.3,0.3-0.5L75,59.2z M79.1,58.3c-0.2,0.2-0.3,0.2-0.4,0.2s-0.1,0-0.2-0.3
				c-0.1-0.2-0.3-0.5-0.5-0.7v-0.1c0-0.1,0.3-0.3,0.4-0.3s0.2,0.1,0.4,0.4c0.2,0.3,0.4,0.5,0.4,0.6S79.2,58.2,79.1,58.3z M79.5,57.8
				c-0.2-0.4-0.4-0.6-0.6-0.8v-0.1c0,0,0-0.1,0.2-0.2c0.1-0.1,0.2-0.1,0.2-0.1c0.1,0,0.3,0.2,0.6,0.6c0.1,0.2,0.2,0.3,0.2,0.3
				s0,0.1-0.1,0.2C79.8,57.8,79.6,57.9,79.5,57.8C79.5,57.9,79.5,57.9,79.5,57.8z"/>
			<path class="st2" d="M82.1,57.9c-0.3,0-0.5,0-0.7,0V57c0.2,0,0.5,0,0.8,0h1.5c0.4,0,0.5,0,0.8,0v1c-0.2,0-0.4,0-0.7,0h-0.4
				c-0.1,0.7-0.3,1.2-0.5,1.8h1c0.3,0,0.3,0,0.5,0c0,0.2,0,0.3,0,0.6v2.9c0,0.3,0,0.5,0,0.7h-0.8v-0.4h-0.7v0.8H82
				c0-0.2,0-0.5,0-0.8v-1.5c0-0.3,0-0.4,0-0.8c-0.1,0.3-0.3,0.4-0.5,0.8c-0.1-0.5-0.1-0.7-0.3-1c0.5-0.4,0.8-1,1.1-1.8
				c0.1-0.4,0.2-0.6,0.3-1.1h-0.5V57.9z M82.7,62.7h0.7v-2.2h-0.7V62.7z M85.4,57.9c-0.3,0-0.5,0-0.7,0V57c0.2,0,0.5,0.1,0.9,0.1H88
				c0.4,0,0.6,0,0.9-0.1v1c-0.3,0-0.4,0-0.8,0v2h0.1c0.4,0,0.6,0,0.8,0v0.9c-0.2,0-0.4,0-0.8,0h-0.1v2.7c0,0.4,0,0.7,0.1,1h-1
				c0-0.4,0.1-0.6,0.1-1v-2.7h-1c0,0.7-0.1,1.2-0.2,1.7c-0.2,0.9-0.5,1.5-1,2.2c-0.2-0.3-0.4-0.4-0.8-0.6c0.5-0.6,0.8-1.1,1-1.9
				c0.1-0.4,0.1-0.7,0.2-1.3c-0.4,0-0.6,0-0.8,0v-0.9c0.2,0,0.4,0,0.8,0L85.4,57.9L85.4,57.9z M87.2,59.9v-2h-1v2H87.2z"/>
			<path class="st2" d="M95.4,60.9c0.4,0,0.6,0,0.9,0c0,0.2,0,0.4,0,0.7v1.6c0,0.2,0.1,0.3,0.4,0.3c0.6,0,0.7,0,0.8-0.2
				c0.1-0.2,0.1-0.6,0.1-1.3c0.3,0.1,0.4,0.2,0.9,0.3c-0.1,2-0.2,2-1.8,2c-0.4,0-0.8-0.1-0.9-0.1c-0.2-0.1-0.3-0.3-0.3-0.6v-0.1
				v-1.8h-1.2c-0.2,0.7-0.5,1.2-1,1.7s-1.1,0.8-2,1.1c-0.2-0.4-0.3-0.5-0.5-0.8c1-0.3,1.5-0.6,1.9-0.9c0.3-0.3,0.5-0.6,0.7-1h-1.2
				c-0.4,0-0.7,0-0.9,0v-0.9c0.3,0,0.5,0.1,0.9,0.1h1.3c0-0.2,0-0.4,0-0.5c0-0.2,0-0.3,0-0.5h1c0,0.2,0,0.2-0.1,0.7
				c0,0.1,0,0.2,0,0.3h1V60.9z M93.9,57.4c0-0.2,0-0.4,0-0.5h1c0,0.2,0,0.3,0,0.5v0.2h2.3c0.4,0,0.6,0,0.9,0c0,0.2,0,0.3,0,0.6v0.6
				c0,0.3,0,0.4,0,0.6h-0.5c-0.1,0.5-0.2,0.7-0.4,0.8c-0.2,0.1-0.6,0.1-1.4,0.1c-0.9,0-1.1-0.1-1.1-0.6v-1.3H94
				c-0.1,0.6-0.2,0.8-0.4,1.1c-0.4,0.5-0.8,0.8-2.1,1.1c-0.1-0.3-0.3-0.5-0.5-0.8c1-0.2,1.3-0.3,1.7-0.6c0.2-0.2,0.4-0.5,0.4-0.8
				h-1.4v1h-0.9c0-0.2,0-0.4,0-0.6v-0.6c0-0.3,0-0.4,0-0.6c0.3,0,0.5,0,0.9,0h2.2V57.4z M97.2,58.4h-1.7v0.9c0,0.2,0.1,0.2,0.5,0.2
				s0.6,0,0.6-0.2c0-0.1,0-0.2,0-0.5c0.2,0.1,0.3,0.1,0.5,0.1L97.2,58.4L97.2,58.4z"/>
			<path class="st2" d="M103.5,60.8c0,0.4,0,0.5,0,0.7c-0.1,0-0.3,0-0.8,0h-1.4c-0.1,1.4-0.3,2.1-0.7,3c-0.3-0.3-0.4-0.5-0.7-0.7
				c0.5-0.9,0.7-1.7,0.7-4c0-0.5,0-0.8,0-1.1c0.3,0,0.5,0,0.9,0h1.3c0.4,0,0.6,0,0.8,0c0,0.2,0,0.4,0,0.8v1.3H103.5z M100.2,57.1
				c0.2,0,0.5,0,0.9,0h1.8c0.5,0,0.7,0,0.9,0V58c-0.2,0-0.4,0-0.9,0H101c-0.4,0-0.6,0-0.8,0V57.1z M102.7,60.7v-1.2h-1.3v0.6
				c0,0.3,0,0.4,0,0.6C101.4,60.7,102.7,60.7,102.7,60.7z M105,60.2c-0.1,1-0.2,1.7-0.4,2.3c-0.3,0.8-0.5,1.2-1.3,2
				c-0.2-0.3-0.4-0.5-0.7-0.7c0.6-0.6,1-1.1,1.2-1.8c0.2-0.6,0.3-1.5,0.3-3.1c0-0.8,0-1,0-1.3c1,0,2.5-0.3,3.1-0.7l0.5,0.8
				c-0.2,0-0.2,0.1-0.4,0.1c-0.9,0.3-1.4,0.4-2.3,0.5v1h1.9c0.4,0,0.6,0,0.8,0v0.9c-0.2,0-0.4,0-0.7,0h-0.1v3.3c0,0.4,0,0.6,0,0.9
				h-1c0-0.3,0.1-0.5,0.1-0.9v-3.3H105z"/>
		</g>
		<g>
			<g>
				<path class="st2" d="M41.9,48.5c0-0.3,0-0.3,0-0.8c-0.1,0-0.1,0-0.2,0c-0.5,0-1,0-1.3-0.1c-0.1,0-0.1,0-0.1-0.1
					c0-0.2,0-0.3,0.1-0.6c0.4,0.1,0.9,0.1,1.3,0.1c0,0,0.1,0,0.2,0v-0.5c0-0.2,0-0.4,0-0.6c0.3,0,0.6,0,0.8,0.1
					c0.1,0,0.2,0.1,0.2,0.1s0,0-0.1,0.2c0,0.1-0.1,0.1-0.1,0.6c0.4,0,0.7-0.1,1.1-0.2l0,0c0,0,0,0,0.1,0.2c0,0.1,0.1,0.3,0.1,0.4
					c0,0,0,0.1-0.1,0.1c-0.2,0.1-0.8,0.2-1.3,0.2c0,0.5,0,0.5,0,0.8c0.5-0.1,0.7-0.1,1.3-0.3c0,0,0,0,0.1,0c0,0,0.1,0,0.1,0.2
					c0.1,0.2,0.1,0.4,0.1,0.4s0,0.1-0.1,0.1c-0.4,0.1-1.1,0.3-1.5,0.4c0,0.3,0,0.4,0.1,0.9c0.4,0.1,0.5,0.2,0.8,0.3
					c0.3,0.2,0.5,0.3,0.8,0.5c0.1,0,0.1,0.1,0.1,0.1s-0.1,0.2-0.2,0.4c-0.2,0.2-0.2,0.3-0.3,0.3c0,0,0,0-0.1,0
					c-0.4-0.4-0.7-0.6-1.2-0.8c0,0.3-0.1,0.5-0.3,0.7S41.7,52,41.2,52c-0.9,0-1.4-0.4-1.4-1c0-0.3,0.1-0.5,0.3-0.7
					c0.3-0.2,0.7-0.4,1.2-0.4c0.2,0,0.3,0,0.5,0c0-0.4,0-0.6-0.1-0.8c-0.2,0-0.3,0-0.3,0c-0.5,0-1.1-0.1-1.4-0.2
					c-0.1,0-0.1-0.1-0.1-0.1c0-0.1,0-0.3,0.1-0.6c0.4,0.1,1,0.2,1.5,0.2C41.7,48.5,41.7,48.5,41.9,48.5L41.9,48.5z M41.4,50.6
					c-0.4,0-0.7,0.1-0.7,0.4c0,0.2,0.2,0.3,0.6,0.3c0.5,0,0.7-0.2,0.7-0.5v-0.1C41.8,50.6,41.6,50.6,41.4,50.6z"/>
				<path class="st2" d="M47.3,47.9c-0.4,0-0.4,0-0.4-0.1s-0.1-0.4-0.1-0.7c0.3,0,0.5,0,0.8,0c0.2,0,0.5,0,0.8,0
					c0.1-0.4,0.1-0.6,0.1-0.8c0-0.1,0-0.2,0-0.4c0.3,0,0.7,0.1,0.9,0.1c0.1,0,0.1,0,0.1,0.1c0,0,0,0.1-0.1,0.2
					c-0.1,0.1-0.1,0.3-0.1,0.5c0,0.1,0,0.2,0,0.3c0.6-0.1,1.1-0.2,1.5-0.3c0.1,0,0.1,0,0.1,0c0.1,0,0.1,0,0.1,0.2s0.1,0.4,0.1,0.5
					s0,0.1-0.2,0.1c-0.5,0.1-1.2,0.2-1.7,0.3c-0.2,0.8-0.3,1.1-0.6,1.6c0.4-0.3,0.6-0.4,0.9-0.5c0.3-0.1,0.6-0.2,0.9-0.2
					c0.5,0,0.9,0.1,1.2,0.4c0.2,0.2,0.4,0.6,0.4,1c0,0.5-0.2,0.9-0.8,1.3c-0.4,0.3-1,0.5-1.6,0.6c-0.1,0-0.2,0-0.3,0s-0.2,0-0.2-0.1
					c-0.1-0.2-0.2-0.4-0.4-0.6c0.6,0,1.1-0.1,1.6-0.3s0.8-0.5,0.8-0.9c0-0.5-0.3-0.8-0.8-0.8c-0.8,0-1.7,0.5-2.2,1.2L48,50.7
					c-0.1,0-0.6-0.4-0.6-0.5c0,0,0,0,0.1-0.1c0.4-0.5,0.7-1.2,0.8-2.1C48.1,47.9,47.4,47.9,47.3,47.9z"/>
				<path class="st2" d="M55.9,50.3c-0.3,0.6-0.8,0.9-1.3,0.9c-0.7,0-1.2-0.7-1.2-1.7c0-1.1,0.6-2,1.5-2.5c0.5-0.2,1-0.4,1.6-0.4
					c1.5,0,2.5,1,2.5,2.4c0,1.2-0.6,2.1-1.7,2.6c-0.2,0.1-0.4,0.2-0.5,0.2s-0.1,0-0.2-0.2c-0.1-0.2-0.2-0.3-0.4-0.4
					c1.4-0.4,2.1-1,2.1-2.2c0-0.6-0.2-1.1-0.7-1.4c-0.2-0.2-0.4-0.2-0.8-0.3C56.5,48.8,56.3,49.6,55.9,50.3z M54.9,47.9
					c-0.5,0.4-0.7,1-0.7,1.6c0,0.5,0.2,0.8,0.5,0.8s0.7-0.5,1-1.3c0.2-0.5,0.3-0.9,0.4-1.7C55.4,47.5,55.2,47.6,54.9,47.9z"/>
				<path class="st2" d="M60.4,47c0.2,0,0.3,0,0.5,0h1.3c0.2,0,0.3,0,0.4,0v0.7c-0.1,0-0.2,0-0.5,0h-1.2c-0.2,0-0.4,0-0.5,0V47z
					 M60.6,52c0-0.2,0-0.4,0-0.6v-1c0-0.2,0-0.3,0-0.5c0.2,0,0.2,0,0.5,0h1c0.2,0,0.3,0,0.4,0c0,0.2,0,0.2,0,0.5v1.1
					c0,0.2,0,0.4,0,0.5h-0.6v-0.2h-0.7V52H60.6z M60.6,46.1c0.2,0,0.3,0,0.5,0H62c0.3,0,0.4,0,0.5,0v0.7c-0.1,0-0.3,0-0.5,0h-1
					c-0.2,0-0.4,0-0.5,0L60.6,46.1L60.6,46.1z M65.4,48.4c-0.1,0-0.2,0-0.4,0h-0.9c-0.2,0-0.3,0-0.4,0V48c-0.2,0.3-0.4,0.4-0.7,0.7
					c-0.2-0.2-0.2-0.3-0.4-0.5v0.4c-0.1,0-0.2,0-0.4,0h-1.1c-0.2,0-0.3,0-0.4,0V48c0.1,0,0.2,0,0.4,0h1.1c0.2,0,0.3,0,0.4,0v0.1
					c0.4-0.3,0.8-0.6,1-1h-0.1c-0.3,0-0.4,0-0.6,0v-0.7c0.2,0,0.4,0,0.7,0h0.3c0.1-0.2,0.2-0.4,0.2-0.6l0.8,0.1
					c-0.2,0.4-0.2,0.4-0.2,0.5h1.1c0.3,0,0.5,0,0.7,0v0.7c-0.2,0-0.3,0-0.7,0h-0.4c0.1,0.2,0.3,0.4,0.6,0.6c0.2,0.1,0.3,0.2,0.7,0.3
					c-0.2,0.2-0.3,0.4-0.4,0.6c-0.4-0.2-0.6-0.4-0.9-0.7C65.4,47.9,65.4,48.4,65.4,48.4z M60.6,48.9c0.1,0,0.2,0,0.4,0h1.1
					c0.2,0,0.3,0,0.4,0v0.6c-0.1,0-0.2,0-0.4,0H61c-0.2,0-0.3,0-0.4,0V48.9z M61.2,51.1h0.7v-0.7h-0.7V51.1z M63.3,49.4
					c-0.3,0-0.4,0-0.5,0v-0.7c0.2,0,0.2,0,0.5,0h2.5c0.3,0,0.4,0,0.6,0v0.7c-0.2,0-0.4,0-0.6,0h-1.4c-0.1,0.2-0.1,0.3-0.2,0.5h1.4
					c0.3,0,0.4,0,0.5,0c0,0.1,0,0.1,0,0.3c-0.1,0.7-0.2,1.2-0.3,1.4c-0.2,0.3-0.4,0.4-1,0.4c-0.2,0-0.4,0-0.7,0
					c0-0.3-0.1-0.4-0.2-0.7c0.4,0.1,0.7,0.1,0.9,0.1c0.3,0,0.4-0.1,0.5-0.9h-1.4c-0.1,0.1-0.1,0.2-0.2,0.3L63,50.7
					c0.3-0.5,0.5-0.8,0.7-1.3H63.3z M65,47.8c0.1,0,0.1,0,0.2,0c-0.2-0.3-0.3-0.4-0.5-0.7h-0.3c-0.2,0.3-0.3,0.5-0.5,0.7
					c0.1,0,0.1,0,0.2,0H65z"/>
				<path class="st2" d="M69.4,48.5c0-0.1,0-0.1,0.3-0.6c0,0.1,0.1,0.2,0.2,0.3c0,0.1,0.1,0.1,0.1,0.2c0,0,0,0.1-0.2,0.3
					c-0.1,0.2-0.3,0.6-0.4,0.8s-0.1,0.2-0.3,0.2c-0.2,0-0.4,0-0.4-0.1s-0.1-0.4-0.1-0.9c0-0.7,0-1.2,0.2-2.4c0-0.1,0-0.2,0-0.4
					c0.5,0.1,0.9,0.3,0.9,0.4c0,0,0,0.1-0.1,0.1c-0.1,0.1-0.1,0.3-0.2,0.7C69.3,47.6,69.3,48.2,69.4,48.5
					C69.4,48.6,69.4,48.6,69.4,48.5z M72,46.5L72,46.5L72,46.5c0,0.1,0,0.2,0,0.3c0,0.1,0,0.1,0,0.3c0,0.1,0,0.1,0,0.3
					c0,0.3,0,0.7,0,0.8c0,1.3-0.3,2.3-1.1,3.2c-0.3,0.3-0.5,0.5-0.7,0.5c-0.1,0-0.1,0-0.2-0.1s-0.3-0.2-0.5-0.2c0.5-0.3,0.7-0.6,1-1
					c0.4-0.6,0.6-1.3,0.6-2.2s-0.1-1.5-0.2-2c0.3,0,0.5,0,0.7,0C71.9,46.3,72,46.3,72,46.5L72,46.5z"/>
				<path class="st2" d="M76.7,50.3c-0.3,0.6-0.8,0.9-1.3,0.9c-0.7,0-1.2-0.7-1.2-1.7c0-1.1,0.6-2,1.5-2.5c0.5-0.2,1-0.4,1.6-0.4
					c1.4,0,2.5,1,2.5,2.4c0,1.2-0.6,2.1-1.7,2.6c-0.2,0.1-0.4,0.2-0.5,0.2s-0.1,0-0.2-0.2s-0.2-0.3-0.4-0.4c1.4-0.4,2.1-1,2.1-2.2
					c0-0.6-0.2-1.1-0.7-1.4c-0.2-0.2-0.4-0.2-0.8-0.3C77.3,48.8,77.1,49.6,76.7,50.3z M75.7,47.9c-0.5,0.4-0.7,1-0.7,1.6
					c0,0.5,0.2,0.8,0.5,0.8s0.7-0.5,1-1.3c0.2-0.5,0.2-0.9,0.4-1.7C76.2,47.5,76,47.6,75.7,47.9z"/>
				<path class="st2" d="M82.9,47.2c-0.1,0.3-0.2,0.6-0.4,0.9c-0.2,0.4-0.5,0.7-1,1c-0.1-0.2-0.3-0.4-0.5-0.5
					c0.6-0.3,0.9-0.7,1.1-1.3h-0.2c-0.2,0-0.5,0-0.6,0v-0.7c0.2,0,0.4,0,0.7,0h0.4c0-0.2,0-0.3,0-0.4V46c0-0.1,0-0.1,0-0.2h0.7
					c0,0.1,0,0.1,0,0.3s0,0.2,0,0.4h0.7c0.2,0,0.4,0,0.6,0c0,0.1,0,0.1,0,0.4c0,0.8-0.1,1.3-0.2,1.6s-0.3,0.3-0.8,0.3c0,0,0,0-0.4,0
					c0-0.3-0.1-0.4-0.2-0.7c0.2,0,0.4,0.1,0.5,0.1s0.2,0,0.3-0.1c0.1-0.2,0.1-0.5,0.1-0.9C83.7,47.2,82.9,47.2,82.9,47.2z
					 M86.3,49.4c0.4,0,0.6,0,0.8,0V50c-0.2,0-0.4,0-0.8,0H85c0.3,0.3,0.7,0.5,1.1,0.7s0.7,0.3,1.2,0.4c-0.2,0.2-0.3,0.4-0.4,0.7
					c-1-0.3-1.8-0.8-2.4-1.5c0,0.2,0,0.4,0,0.5v0.5c0,0.3,0,0.5,0.1,0.7h-0.8c0-0.2,0-0.4,0-0.7v-0.5c0-0.1,0-0.2,0-0.5
					c-0.5,0.6-1.3,1.1-2.3,1.5c-0.1-0.3-0.2-0.4-0.4-0.7c0.6-0.2,0.9-0.3,1.3-0.5s0.7-0.4,0.9-0.6H82c-0.3,0-0.6,0-0.8,0v-0.7
					c0.2,0,0.4,0,0.8,0h1.7v-0.2c0-0.2,0-0.3,0-0.4h0.8c0,0.1,0,0.2,0,0.4v0.2L86.3,49.4L86.3,49.4z M85.1,48.7c-0.2,0-0.4,0-0.6,0
					c0-0.2,0-0.3,0-0.5v-1.5c0-0.2,0-0.4,0-0.5c0.2,0,0.4,0,0.6,0h1.3c0.2,0,0.4,0,0.6,0c0,0.2,0,0.3,0,0.6v1.5c0,0.2,0,0.4,0,0.5
					c-0.2,0-0.4,0-0.6,0L85.1,48.7L85.1,48.7z M85.3,48.1h1v-1.3h-1V48.1z"/>
				<path class="st2" d="M89.3,46.3C89.3,46.3,89.3,46.2,89.3,46.3c0.4,0,0.7,0,0.8,0.1c0.1,0,0.1,0,0.1,0.1v0.1
					c-0.1,0.1-0.1,0.2-0.2,0.7c-0.1,0.6-0.2,1.3-0.2,2c0,0.4,0,0.6,0.1,1l0.4-0.7c0,0.1,0.1,0.3,0.2,0.4c0.1,0.1,0.1,0.1,0.1,0.1
					c0,0.1,0,0.1-0.1,0.3c-0.1,0.3-0.2,0.6-0.3,0.9c0,0.1,0,0.1-0.1,0.2c-0.1,0-0.3,0.1-0.4,0.1s-0.1,0-0.2-0.1
					c-0.2-0.5-0.3-1.4-0.3-2.1c0-0.6,0.1-1.4,0.2-2.3C89.2,46.7,89.3,46.5,89.3,46.3L89.3,46.3z M91.6,48.3c-0.4,0-0.5,0-0.5-0.1
					S91,47.9,91,47.6v-0.1c0.3,0,0.5,0,0.9,0c0.3,0,0.4,0,0.7,0c0-0.7-0.1-1.1-0.1-1.4c0.1,0,0.1,0,0.2,0c0.2,0,0.5,0,0.7,0.1
					c0.1,0,0.1,0.1,0.1,0.1v0.1c0,0.1-0.1,0.2-0.1,0.4c0,0.1,0,0.4,0,0.5c0,0,0,0,0,0.1c0.3-0.1,0.5-0.1,0.8-0.2h0.1
					c0,0,0.1,0,0.1,0.1s0.1,0.3,0.1,0.5c0,0.1,0,0.2-0.1,0.2s-0.5,0.1-0.9,0.2c0,0.2,0,0.3,0,0.4c0,1-0.1,1.7-0.4,2.3
					c-0.2,0.5-0.8,1.1-1,1.1c-0.1,0-0.1,0-0.2-0.1c-0.2-0.2-0.3-0.2-0.5-0.4c0.5-0.3,0.8-0.6,1-1s0.4-1,0.4-1.6c0,0,0-0.2,0-0.3
					s0-0.2,0-0.3C92.3,48.3,91.8,48.3,91.6,48.3z"/>
				<path class="st2" d="M97,47.7c0.1,0.4,0.3,0.8,0.7,1.2c-0.2,0.2-0.2,0.3-0.4,0.6c-0.2-0.2-0.3-0.5-0.4-0.7c0,0.1,0,0.2,0,0.2
					c0,0.2,0,0.2,0,0.7v1.7c0,0.4,0,0.6,0,0.8h-0.7c0-0.2,0-0.5,0-0.8V50c0-0.5,0-0.5,0-0.8c-0.2,0.6-0.4,1-0.6,1.4
					c-0.1-0.3-0.2-0.4-0.4-0.7c0.3-0.5,0.5-0.8,0.6-1.3c0.1-0.3,0.2-0.6,0.2-0.8h-0.2c-0.2,0-0.3,0-0.4,0V47c0.1,0,0.2,0,0.4,0h0.3
					v-0.5c0-0.3,0-0.5,0-0.7h0.7c0,0.2,0,0.4,0,0.7V47h0.1c0.2,0,0.3,0,0.4,0v0.7C97.3,47.7,97.2,47.7,97,47.7L97,47.7z M100.8,46.9
					c0.3,0,0.6,0,0.7,0v0.7c-0.2,0-0.5,0-0.7,0h-0.4c0.3,0.3,0.7,0.5,1.3,0.6c-0.2,0.2-0.2,0.3-0.3,0.6c-0.5-0.2-0.5-0.2-0.8-0.4
					v0.3c0,0,0,0.2,0,0.5c-0.1,0-0.2,0-0.5,0h-1.5c-0.2,0-0.3,0-0.5,0c0-0.1,0-0.1,0-0.2c0,0,0-0.2,0-0.3v-0.2
					c-0.2,0.1-0.3,0.2-0.5,0.3c-0.1-0.2-0.2-0.3-0.4-0.5c0.4-0.2,0.7-0.4,1-0.7h-0.3c-0.2,0-0.4,0-0.5,0V47c0.2,0,0.3,0,0.6,0h0.6
					c0.1-0.1,0.1-0.2,0.1-0.3c-0.4,0-1,0-1.2,0c0-0.2-0.1-0.4-0.2-0.6c0.2,0,0.3,0,0.4,0c0.5,0,1.4,0,1.8-0.1
					c0.5-0.1,0.9-0.1,1.2-0.2l0.4,0.6c-0.1,0-0.1,0-0.2,0c-0.3,0.1-1,0.1-1.4,0.2c-0.1,0.2-0.1,0.2-0.1,0.3
					C99.4,46.9,100.8,46.9,100.8,46.9z M99.1,51.3v0.3h-0.5c0-0.1,0-0.3,0-0.5v-0.7c0-0.2,0-0.3,0-0.4c0.1,0,0.2,0,0.4,0h1
					c0.2,0,0.3,0,0.4,0c0,0.1,0,0.2,0,0.4V51c0,0.2,0,0.3,0,0.4c0.1,0,0.1,0,0.2,0c0.2,0,0.2,0,0.2-0.1v-1.4h-2.6v1.4
					c0,0.4,0,0.6,0,0.7h-0.7c0-0.2,0-0.4,0-0.8v-1.4c0-0.2,0-0.4,0-0.6c0.2,0,0.3,0,0.6,0h2.7c0.3,0,0.5,0,0.7,0c0,0.2,0,0.5,0,0.7
					v1.4c0,0.3-0.1,0.4-0.2,0.5s-0.3,0.1-0.7,0.1c-0.1,0-0.1,0-0.4,0c0-0.3,0-0.4-0.1-0.6C100.1,51.3,99.1,51.3,99.1,51.3z
					 M99.1,47.5c-0.1,0.1-0.2,0.2-0.3,0.3h1.2c-0.2-0.2-0.2-0.2-0.3-0.3H99.1z M98.9,48.6h1.1v-0.3h-1.1V48.6z M99.1,50.8h0.8v-0.3
					h-0.8V50.8z"/>
			</g>
		</g>
		<g>
			<path class="st3" d="M7.4,47.3l10-6.7c0,0-1.3-12.3,19.4-9.4c0,0-11.3-10.2-22.5-5.1C1.9,31.7,7.4,47.3,7.4,47.3"/>
			<path class="st3" d="M39.5,30.2l10.9-1.9c0,0-5.1-6.3-3.1-11.3c2-5.1,13-14.7,27.4,8.9c0,0-6.4-20.6-16.9-24.5s-20.8,1.3-23,13
				C33,23.5,39.5,30.2,39.5,30.2"/>
			<path class="st3" d="M9.1,52.3c0,0,19.5-20.6,71.4-25.8l-1.8-7.1l23.1,17.5C101.8,36.9,51.4,27.6,9.1,52.3z"/>
		</g>
	</g>
	<rect x="-11.5" y="-12.1" class="st4" width="131.3" height="97.8"/>
</g>
</svg>
