<svg xmlns="http://www.w3.org/2000/svg" viewBox="0 0 90.66 49.55"><defs><style>.cls-1{fill:#fff;}</style></defs><title>アセット 1</title><g id="レイヤー_2" data-name="レイヤー 2"><g id="nav"><g id="_li_" data-name="&lt;li&gt;"><path class="cls-1" d="M1.13,44.8l9.48-6.31S9.35,26.83,29,29.54c0,0-10.74-9.69-21.3-4.86C-4,30.06,1.13,44.8,1.13,44.8"/><path class="cls-1" d="M31.61,28.61,42,26.78S37.13,20.82,39,16,51.32,2.11,64.94,24.42c0,0-6.06-19.5-16-23.2S29.26,2.46,27.1,13.58c-1.68,8.73,4.51,15,4.51,15"/><path class="cls-1" d="M2.79,49.55S21.23,30,70.44,25.13L68.74,18.4,90.66,34.94S42.88,26.2,2.79,49.55Z"/></g></g></g></svg>