<svg xmlns="http://www.w3.org/2000/svg" xmlns:xlink="http://www.w3.org/1999/xlink" viewBox="0 0 321.63 99.82"><defs><style>.cls-1,.cls-2,.cls-6{fill:none;}.cls-2,.cls-6{stroke:#231815;}.cls-2{stroke-width:10.8px;}.cls-3{fill:url(#_6_lpi_90_);}.cls-4{fill:#fff;}.cls-5{font-size:9.98px;fill:#231815;font-family:HelveticaNeue-CondensedBold, Helvetica Neue;font-weight:700;}.cls-6{stroke-width:2px;}</style><pattern id="_6_lpi_90_" data-name="6 lpi 90%" width="72" height="72" patternTransform="translate(34.84 76.99) rotate(-45) scale(0.33)" patternUnits="userSpaceOnUse" viewBox="0 0 72 72"><rect class="cls-1" width="72" height="72"/><line class="cls-2" x1="71.75" y1="66" x2="144.25" y2="66"/><line class="cls-2" x1="71.75" y1="42" x2="144.25" y2="42"/><line class="cls-2" x1="71.75" y1="18" x2="144.25" y2="18"/><line class="cls-2" x1="71.75" y1="54" x2="144.25" y2="54"/><line class="cls-2" x1="71.75" y1="30" x2="144.25" y2="30"/><line class="cls-2" x1="71.75" y1="6" x2="144.25" y2="6"/><line class="cls-2" x1="-0.25" y1="66" x2="72.25" y2="66"/><line class="cls-2" x1="-0.25" y1="42" x2="72.25" y2="42"/><line class="cls-2" x1="-0.25" y1="18" x2="72.25" y2="18"/><line class="cls-2" x1="-0.25" y1="54" x2="72.25" y2="54"/><line class="cls-2" x1="-0.25" y1="30" x2="72.25" y2="30"/><line class="cls-2" x1="-0.25" y1="6" x2="72.25" y2="6"/><line class="cls-2" x1="-72.25" y1="66" x2="0.25" y2="66"/><line class="cls-2" x1="-72.25" y1="42" x2="0.25" y2="42"/><line class="cls-2" x1="-72.25" y1="18" x2="0.25" y2="18"/><line class="cls-2" x1="-72.25" y1="54" x2="0.25" y2="54"/><line class="cls-2" x1="-72.25" y1="30" x2="0.25" y2="30"/><line class="cls-2" x1="-72.25" y1="6" x2="0.25" y2="6"/></pattern></defs><title>アセット 1</title><g id="レイヤー_2" data-name="レイヤー 2"><g id="more"><path class="cls-3" d="M307.63,99.82H14l-14-14V14L14,0H307.63l14,14V85.82Z"/><rect class="cls-4" x="136.07" y="67.12" width="82.07" height="14.42"/><text class="cls-5" transform="translate(138.72 77.22)">corporate web site</text><path class="cls-6" d="M137.53,32.05V28.17h-1.25V26.61h1.25V23.77h1.65v2.84h1.1v1.56h-1.1v3.47l1.21-.33.14,1.46c-1.2.45-3,1.06-4,1.41l-.42-1.79Zm10.42-5.81c0,3.8,0,5.74-.47,6.11a1.4,1.4,0,0,1-.81.24h-1L145.5,31h.59c.07,0,.1,0,.13-.05a15.47,15.47,0,0,0,.12-3.06l-1,.45v4.64h-1.64V29l-1,.43v3.32c0,1.22.22,1.41.92,1.43s1.64,0,2.33,0,.78-.1.82-1.25l1.62.29c-.22,2.27-.53,2.59-2.31,2.63-.81,0-1.83,0-2.59,0-1.92-.05-2.45-.59-2.45-3.1V30.15l-.81.33-.6-1.48,1.4-.61V25h1.66v2.67l1-.43V23.79h1.64v2.71l1-.45Z"/><path class="cls-6" d="M157.72,31.6l.12,1.26c-1.26.38-3.16.92-4.27,1.21l-.36-1.47c-1,.41-2.39.93-3.24,1.22l-.42-1.68,1.18-.3V28.12h-1V26.61h1V23.77h1.62v2.84h.83v1.51h-.83v3.27l.83-.25.16,1.39C154.47,32.33,156.45,31.91,157.72,31.6Zm3.91-3.09a11.19,11.19,0,0,1-1.83,4.36c.19.89.45,1.39.74,1.42s.31-.16.36-1.26l1.07.68c-.25,2.05-.71,2.48-1.74,2.31-.69-.1-1.2-.72-1.58-1.81a11.92,11.92,0,0,1-2.48,1.84l-1.26-1a9.76,9.76,0,0,0,3.3-2.54,39.21,39.21,0,0,1-.51-5.32h-4.29V25.76h4.24c0-.62,0-1.27,0-1.94h1.69c0,.68,0,1.33,0,1.94h1.29a5.36,5.36,0,0,0-1-1.29l1-.68a5.55,5.55,0,0,1,1.17,1.3l-1.21.67h1.26v1.42h-2.53c0,1.24.08,2.31.16,3.25a11.17,11.17,0,0,0,.71-2.37Zm-4.25-.62v3.52H153.6V27.9Zm-2.44,2.34H156V29.08h-1.07Z"/><path class="cls-6" d="M172.71,25.7l.35.2a7.18,7.18,0,0,0-1-1.37l.87-.59a7.44,7.44,0,0,1,1.18,1.63l-.74.49.79.43c-1,4.39-3.12,7.44-7.12,9.16l-1.29-1.51c3.72-1.43,5.55-3.73,6.18-6.69h-7.45V25.7Zm3-.7-.9.58A6.52,6.52,0,0,0,173.7,24l.87-.59A7.07,7.07,0,0,1,175.75,25Z"/><path class="cls-6" d="M186.49,27.78l1.29.91a10.34,10.34,0,0,1-6.52,7l-1.17-1.64c2.88-.91,4.73-2.59,5.33-4.57h-7.69V27.78Zm0-3v1.69h-7.47V24.8Z"/><path class="cls-6" d="M195.88,27.47,194.68,29a18.55,18.55,0,0,0-3.3-2.3l1.14-1.51A25.63,25.63,0,0,1,195.88,27.47Zm4.53,0,1.2,1.43a17.82,17.82,0,0,1-8.93,6.71l-1-1.8A15.16,15.16,0,0,0,200.42,27.48Z"/><path class="cls-6" d="M207.28,35.76l-1.39-1.47c2.61-1.1,3.16-2.26,3.24-4.43h-4.78V28.19H215.2v1.67H211C210.9,32.45,210.22,34.24,207.28,35.76ZM213.38,25v.33l.73-.6a6.71,6.71,0,0,1,1.18,1.41l-.74.6a7.2,7.2,0,0,0-1.17-1.39v1.33H205.8V25ZM215,23.38a7.42,7.42,0,0,1,1.22,1.41l-.75.6a6.39,6.39,0,0,0-1.2-1.39Z"/><path class="cls-6" d="M224.44,35.66h-1.68V31.29a19.78,19.78,0,0,1-2.91,1.5L219,31.38a16.73,16.73,0,0,0,6.81-4.62l1.26,1a15.55,15.55,0,0,1-2.62,2.38Z"/><path class="cls-6" d="M236.4,27.47,235.19,29a18.55,18.55,0,0,0-3.3-2.3L233,25.19A25.63,25.63,0,0,1,236.4,27.47Zm4.53,0,1.2,1.43a17.82,17.82,0,0,1-8.93,6.71l-1-1.8A15.16,15.16,0,0,0,240.93,27.48Z"/><path class="cls-6" d="M253.54,26.14l1.33.63c-1.07,4.6-3,7.32-7,9l-1.24-1.51a8.5,8.5,0,0,0,5.91-6.46h-3.52a17.09,17.09,0,0,1-3,3.44l-1.4-1.16a15,15,0,0,0,4.35-5.9l1.73.63c-.18.43-.42.89-.66,1.35Zm.27-2a8.51,8.51,0,0,1,1.26,1.55l-.84.66A7.18,7.18,0,0,0,253,24.77Zm1.64-.68A8.17,8.17,0,0,1,256.72,25l-.84.66a7.55,7.55,0,0,0-1.24-1.55Z"/><path class="cls-6" d="M262.65,28.31v6.53h-2.42v.71h-1.52V31.85c-.13.21-.26.42-.4.62L257.52,31a11.22,11.22,0,0,0,1.2-2.68,15.13,15.13,0,0,0,.55-2.63h-1.48V24.21h4.91v1.47h-1.85a19.11,19.11,0,0,1-.57,2.63Zm-1.56,5V29.79h-.86v3.53ZM264,28.94V25.77h-1V24.21h6.79v1.56h-1.06v3.17h1.16v1.58h-1.16v5.57H267V30.51h-1.35v.22c0,2.09-.35,3.94-1.78,5.37l-1.51-1A5.36,5.36,0,0,0,264,30.74v-.22h-1.12V28.94Zm3,0V25.77h-1.35v3.17Z"/><path class="cls-6" d="M280.21,30.3h.62l-.14,3.25c0,.63,0,.71.22.71a3.87,3.87,0,0,0,.55,0c.22,0,.25-.07.29-1l1.62.26c-.23,2.19-.55,2.36-1.85,2.4h-.86c-1.51-.05-1.78-.46-1.7-2.34l.08-1.77h-2.16c-.55,2.08-1.78,3.43-4.55,4.3l-1-1.41c2.31-.58,3.37-1.48,3.85-2.89h-3.35V30.3h3.66c.05-.43.08-.89.1-1.39l1.72,0c0,.49-.07.93-.12,1.37h3.05Zm-1-2.77c0,.51.05.59.35.59h.94c.26,0,.3-.05.31-.54l1.56.24c-.14,1.52-.43,1.75-1.75,1.77-.36,0-.9,0-1.22,0-1.53,0-1.82-.38-1.82-2.06v-1.2h-1c-.3,1.94-1.25,3-3.9,3.68l-.92-1.27c2.27-.39,3-1.12,3.24-2.4h-1.61v1.2h-1.7V24.88h4.65V23.79h1.78v1.09h4.76v2.65h-1.75v-1.2h-1.91Z"/><path class="cls-6" d="M287,26.61h3.33v4.66H287a12.38,12.38,0,0,1-.92,4.77l-1.53-.8a10.63,10.63,0,0,0,.85-4.78V26.61H287Zm3.64-2.31v1.52h-5.91V24.3Zm-1.95,5.48V28.12H287v1.66Zm6.89,6.32h-1.72V29.55h-1.29v.26a9.2,9.2,0,0,1-2,6.27l-1.55-.95a7.14,7.14,0,0,0,1.82-5.32V25.13h1a13.36,13.36,0,0,0,3.76-1.34l1,1.3a16.89,16.89,0,0,1-4,1.43V28h4.31v1.56h-1.31Z"/><path class="cls-6" d="M136.27,50.3a26.75,26.75,0,0,1,.75-6.21l1.85.33a21.15,21.15,0,0,0-.79,5.87,12.64,12.64,0,0,0,.73,4.69l-1.83.54a16.41,16.41,0,0,1-.7-5.2Zm10.07,4.36c-.84.08-1.79.13-2.55.13-2.35,0-4.14-.47-4.14-1.88a5.47,5.47,0,0,1,.55-2.08l1.6.28a3,3,0,0,0-.38,1.21c0,.62.75.82,2.34.82a14.9,14.9,0,0,0,2.59-.26Zm-2.09-8.83c.64,0,1.29,0,1.81,0l0,1.68c-.66-.05-1.46-.08-2.26-.08-1.26,0-2.7.08-3.86.2l-.1-1.67c1.29-.12,2.95-.16,4.43-.16Z"/><path class="cls-6" d="M157.44,45.53c2.83,0,4.63,1.65,4.63,4.34,0,3.15-1.9,5-7.37,5.15l-.36-1.87c4.46,0,5.81-1.13,5.81-3.15,0-1.63-1.05-2.65-3.08-2.65a24.4,24.4,0,0,0-5.73,1.27l-.44-1.93A42.88,42.88,0,0,1,157.44,45.53Z"/><path class="cls-6" d="M169.09,45.77a22.3,22.3,0,0,0-.21,2.79c0,2.76.73,4.38,1.43,4.38.38,0,.77-.76,1-1.92l1.51.68c-.49,2.25-1.32,3.28-2.4,3.28-1.55,0-3.31-2-3.31-6.39,0-.91,0-1.91.13-3Zm6.2-.5c2,2.11,2.57,4.24,2.69,7.29l-2,.17c0-3-.55-4.68-2.26-6.46Z"/><path class="cls-6" d="M189,45.31c1.16-.09,2.6-.25,3.6-.38l.22,1.79a18.24,18.24,0,0,0-2.12.28,3.82,3.82,0,0,0-1,.45,4.49,4.49,0,0,0-2.3,3.69c0,1.41,1.21,2.35,4.43,2.48l-.23,1.8c-3.86-.13-6.05-1.51-6.05-4.2a5.39,5.39,0,0,1,2.09-4.14c-1.3.13-3.56.3-5.13.39l-.14-1.76C184.14,45.63,187.58,45.42,189,45.31Z"/><path class="cls-6" d="M200.46,48.88c0-.5.09-1,.14-1.55h-2.52V45.69h2.72c.07-.58.14-1.16.22-1.71l2,.18c-.09.5-.18,1-.26,1.52h3.47v1.64h-3.72c-.06.54-.13,1.05-.18,1.55h3.63v1.63h-3.78c0,.5-.05.93-.05,1.26,0,1.55.55,2,2.4,2,1.55,0,2.3-.39,2.3-1.5a3.2,3.2,0,0,0-.39-1.48l1.75-.31a6,6,0,0,1,.38,1.92c0,2.17-1.51,3.09-4.05,3.09-2.95,0-4.21-1.13-4.21-3.68,0-.34,0-.79.05-1.33h-2.45V48.88Z"/><path class="cls-6" d="M219.41,48c2.27,0,3.62,1.24,3.62,3.31,0,2.38-1.51,3.9-5.68,4l-.3-1.66c3.27,0,4.28-.84,4.28-2.22,0-1.17-.71-1.79-2.22-1.79a17.33,17.33,0,0,0-4.33.95l-.4-1.7A34.13,34.13,0,0,1,219.41,48Z"/><path class="cls-6" d="M237.54,48.56c-3.5,1-6.77,2.21-6.77,3.76,0,.88.9,1.38,3.56,1.38a22.92,22.92,0,0,0,3.69-.3l.17,1.81a29.14,29.14,0,0,1-3.87.22c-3.57,0-5.39-1-5.39-3,0-1.42,1.08-2.52,2.79-3.48C231,47.67,231,46.2,231,44h1.86a10.49,10.49,0,0,0,.48,4.13c1.08-.46,2.3-.89,3.6-1.31Z"/><path class="cls-6" d="M249.35,53.74l-1.44,1a22.8,22.8,0,0,0-1.3-2,8.1,8.1,0,0,1-2.33,3.15l-1.38-1.12a6.13,6.13,0,0,0,2.57-4.57H243V48.66h2.52v-2h-.31a9.71,9.71,0,0,1-.86,1.73L243,47.67a9.71,9.71,0,0,0,1.38-4l1.53.24q-.1.65-.23,1.26h3.38v1.52h-1.85v2h2v1.55h-2c0,.21,0,.42-.07.64A29.17,29.17,0,0,1,249.35,53.74Zm1.88.95v.92h-1.7V44.73h5.28V55.44h-1.75v-.75Zm1.82-1.6V46.36h-1.82v6.73Z"/><path class="cls-6" d="M267.44,44.45l.85,1.26c-1,.79-2.42,2-3.29,2.88a4,4,0,0,1,1.21-.18,3.27,3.27,0,0,1,3.35,3.42c0,2.23-1.53,3.67-4.61,3.67-2.14,0-3.3-.89-3.3-2.22,0-1.16,1.05-2.09,2.6-2.09a2.52,2.52,0,0,1,2.66,2.35,1.76,1.76,0,0,0,.86-1.64,2,2,0,0,0-2.07-2,5.65,5.65,0,0,0-1.6.26,12.57,12.57,0,0,0-3.75,2.63l-1.17-1.37A53.41,53.41,0,0,0,265,46.3c-1,.1-3,.21-4.39.28l-.1-1.72A66.86,66.86,0,0,0,267.44,44.45Zm-3.18,8.13c-.64,0-1,.26-1,.66s.45.72,1.56.72a5.26,5.26,0,0,0,.66,0C265.34,53.07,265,52.59,264.26,52.59Z"/><path class="cls-4" d="M137.53,32.05V28.17h-1.25V26.61h1.25V23.77h1.65v2.84h1.1v1.56h-1.1v3.47l1.21-.33.14,1.46c-1.2.45-3,1.06-4,1.41l-.42-1.79Zm10.42-5.81c0,3.8,0,5.74-.47,6.11a1.4,1.4,0,0,1-.81.24h-1L145.5,31h.59c.07,0,.1,0,.13-.05a15.47,15.47,0,0,0,.12-3.06l-1,.45v4.64h-1.64V29l-1,.43v3.32c0,1.22.22,1.41.92,1.43s1.64,0,2.33,0,.78-.1.82-1.25l1.62.29c-.22,2.27-.53,2.59-2.31,2.63-.81,0-1.83,0-2.59,0-1.92-.05-2.45-.59-2.45-3.1V30.15l-.81.33-.6-1.48,1.4-.61V25h1.66v2.67l1-.43V23.79h1.64v2.71l1-.45Z"/><path class="cls-4" d="M157.72,31.6l.12,1.26c-1.26.38-3.16.92-4.27,1.21l-.36-1.47c-1,.41-2.39.93-3.24,1.22l-.42-1.68,1.18-.3V28.12h-1V26.61h1V23.77h1.62v2.84h.83v1.51h-.83v3.27l.83-.25.16,1.39C154.47,32.33,156.45,31.91,157.72,31.6Zm3.91-3.09a11.19,11.19,0,0,1-1.83,4.36c.19.89.45,1.39.74,1.42s.31-.16.36-1.26l1.07.68c-.25,2.05-.71,2.48-1.74,2.31-.69-.1-1.2-.72-1.58-1.81a11.92,11.92,0,0,1-2.48,1.84l-1.26-1a9.76,9.76,0,0,0,3.3-2.54,39.21,39.21,0,0,1-.51-5.32h-4.29V25.76h4.24c0-.62,0-1.27,0-1.94h1.69c0,.68,0,1.33,0,1.94h1.29a5.36,5.36,0,0,0-1-1.29l1-.68a5.55,5.55,0,0,1,1.17,1.3l-1.21.67h1.26v1.42h-2.53c0,1.24.08,2.31.16,3.25a11.17,11.17,0,0,0,.71-2.37Zm-4.25-.62v3.52H153.6V27.9Zm-2.44,2.34H156V29.08h-1.07Z"/><path class="cls-4" d="M172.71,25.7l.35.2a7.18,7.18,0,0,0-1-1.37l.87-.59a7.44,7.44,0,0,1,1.18,1.63l-.74.49.79.43c-1,4.39-3.12,7.44-7.12,9.16l-1.29-1.51c3.72-1.43,5.55-3.73,6.18-6.69h-7.45V25.7Zm3-.7-.9.58A6.52,6.52,0,0,0,173.7,24l.87-.59A7.07,7.07,0,0,1,175.75,25Z"/><path class="cls-4" d="M186.49,27.78l1.29.91a10.34,10.34,0,0,1-6.52,7l-1.17-1.64c2.88-.91,4.73-2.59,5.33-4.57h-7.69V27.78Zm0-3v1.69h-7.47V24.8Z"/><path class="cls-4" d="M195.88,27.47,194.68,29a18.55,18.55,0,0,0-3.3-2.3l1.14-1.51A25.63,25.63,0,0,1,195.88,27.47Zm4.53,0,1.2,1.43a17.82,17.82,0,0,1-8.93,6.71l-1-1.8A15.16,15.16,0,0,0,200.42,27.48Z"/><path class="cls-4" d="M207.28,35.76l-1.39-1.47c2.61-1.1,3.16-2.26,3.24-4.43h-4.78V28.19H215.2v1.67H211C210.9,32.45,210.22,34.24,207.28,35.76ZM213.38,25v.33l.73-.6a6.71,6.71,0,0,1,1.18,1.41l-.74.6a7.2,7.2,0,0,0-1.17-1.39v1.33H205.8V25ZM215,23.38a7.42,7.42,0,0,1,1.22,1.41l-.75.6a6.39,6.39,0,0,0-1.2-1.39Z"/><path class="cls-4" d="M224.44,35.66h-1.68V31.29a19.78,19.78,0,0,1-2.91,1.5L219,31.38a16.73,16.73,0,0,0,6.81-4.62l1.26,1a15.55,15.55,0,0,1-2.62,2.38Z"/><path class="cls-4" d="M236.4,27.47,235.19,29a18.55,18.55,0,0,0-3.3-2.3L233,25.19A25.63,25.63,0,0,1,236.4,27.47Zm4.53,0,1.2,1.43a17.82,17.82,0,0,1-8.93,6.71l-1-1.8A15.16,15.16,0,0,0,240.93,27.48Z"/><path class="cls-4" d="M253.54,26.14l1.33.63c-1.07,4.6-3,7.32-7,9l-1.24-1.51a8.5,8.5,0,0,0,5.91-6.46h-3.52a17.09,17.09,0,0,1-3,3.44l-1.4-1.16a15,15,0,0,0,4.35-5.9l1.73.63c-.18.43-.42.89-.66,1.35Zm.27-2a8.51,8.51,0,0,1,1.26,1.55l-.84.66A7.18,7.18,0,0,0,253,24.77Zm1.64-.68A8.17,8.17,0,0,1,256.72,25l-.84.66a7.55,7.55,0,0,0-1.24-1.55Z"/><path class="cls-4" d="M262.65,28.31v6.53h-2.42v.71h-1.52V31.85c-.13.21-.26.42-.4.62L257.52,31a11.22,11.22,0,0,0,1.2-2.68,15.13,15.13,0,0,0,.55-2.63h-1.48V24.21h4.91v1.47h-1.85a19.11,19.11,0,0,1-.57,2.63Zm-1.56,5V29.79h-.86v3.53ZM264,28.94V25.77h-1V24.21h6.79v1.56h-1.06v3.17h1.16v1.58h-1.16v5.57H267V30.51h-1.35v.22c0,2.09-.35,3.94-1.78,5.37l-1.51-1A5.36,5.36,0,0,0,264,30.74v-.22h-1.12V28.94Zm3,0V25.77h-1.35v3.17Z"/><path class="cls-4" d="M280.21,30.3h.62l-.14,3.25c0,.63,0,.71.22.71a3.87,3.87,0,0,0,.55,0c.22,0,.25-.07.29-1l1.62.26c-.23,2.19-.55,2.36-1.85,2.4h-.86c-1.51-.05-1.78-.46-1.7-2.34l.08-1.77h-2.16c-.55,2.08-1.78,3.43-4.55,4.3l-1-1.41c2.31-.58,3.37-1.48,3.85-2.89h-3.35V30.3h3.66c.05-.43.08-.89.1-1.39l1.72,0c0,.49-.07.93-.12,1.37h3.05Zm-1-2.77c0,.51.05.59.35.59h.94c.26,0,.3-.05.31-.54l1.56.24c-.14,1.52-.43,1.75-1.75,1.77-.36,0-.9,0-1.22,0-1.53,0-1.82-.38-1.82-2.06v-1.2h-1c-.3,1.94-1.25,3-3.9,3.68l-.92-1.27c2.27-.39,3-1.12,3.24-2.4h-1.61v1.2h-1.7V24.88h4.65V23.79h1.78v1.09h4.76v2.65h-1.75v-1.2h-1.91Z"/><path class="cls-4" d="M287,26.61h3.33v4.66H287a12.38,12.38,0,0,1-.92,4.77l-1.53-.8a10.63,10.63,0,0,0,.85-4.78V26.61H287Zm3.64-2.31v1.52h-5.91V24.3Zm-1.95,5.48V28.12H287v1.66Zm6.89,6.32h-1.72V29.55h-1.29v.26a9.2,9.2,0,0,1-2,6.27l-1.55-.95a7.14,7.14,0,0,0,1.82-5.32V25.13h1a13.36,13.36,0,0,0,3.76-1.34l1,1.3a16.89,16.89,0,0,1-4,1.43V28h4.31v1.56h-1.31Z"/><path class="cls-4" d="M136.27,50.3a26.75,26.75,0,0,1,.75-6.21l1.85.33a21.15,21.15,0,0,0-.79,5.87,12.64,12.64,0,0,0,.73,4.69l-1.83.54a16.41,16.41,0,0,1-.7-5.2Zm10.07,4.36c-.84.08-1.79.13-2.55.13-2.35,0-4.14-.47-4.14-1.88a5.47,5.47,0,0,1,.55-2.08l1.6.28a3,3,0,0,0-.38,1.21c0,.62.75.82,2.34.82a14.9,14.9,0,0,0,2.59-.26Zm-2.09-8.83c.64,0,1.29,0,1.81,0l0,1.68c-.66-.05-1.46-.08-2.26-.08-1.26,0-2.7.08-3.86.2l-.1-1.67c1.29-.12,2.95-.16,4.43-.16Z"/><path class="cls-4" d="M157.44,45.53c2.83,0,4.63,1.65,4.63,4.34,0,3.15-1.9,5-7.37,5.15l-.36-1.87c4.46,0,5.81-1.13,5.81-3.15,0-1.63-1.05-2.65-3.08-2.65a24.4,24.4,0,0,0-5.73,1.27l-.44-1.93A42.88,42.88,0,0,1,157.44,45.53Z"/><path class="cls-4" d="M169.09,45.77a22.3,22.3,0,0,0-.21,2.79c0,2.76.73,4.38,1.43,4.38.38,0,.77-.76,1-1.92l1.51.68c-.49,2.25-1.32,3.28-2.4,3.28-1.55,0-3.31-2-3.31-6.39,0-.91,0-1.91.13-3Zm6.2-.5c2,2.11,2.57,4.24,2.69,7.29l-2,.17c0-3-.55-4.68-2.26-6.46Z"/><path class="cls-4" d="M189,45.31c1.16-.09,2.6-.25,3.6-.38l.22,1.79a18.24,18.24,0,0,0-2.12.28,3.82,3.82,0,0,0-1,.45,4.49,4.49,0,0,0-2.3,3.69c0,1.41,1.21,2.35,4.43,2.48l-.23,1.8c-3.86-.13-6.05-1.51-6.05-4.2a5.39,5.39,0,0,1,2.09-4.14c-1.3.13-3.56.3-5.13.39l-.14-1.76C184.14,45.63,187.58,45.42,189,45.31Z"/><path class="cls-4" d="M200.46,48.88c0-.5.09-1,.14-1.55h-2.52V45.69h2.72c.07-.58.14-1.16.22-1.71l2,.18c-.09.5-.18,1-.26,1.52h3.47v1.64h-3.72c-.06.54-.13,1.05-.18,1.55h3.63v1.63h-3.78c0,.5-.05.93-.05,1.26,0,1.55.55,2,2.4,2,1.55,0,2.3-.39,2.3-1.5a3.2,3.2,0,0,0-.39-1.48l1.75-.31a6,6,0,0,1,.38,1.92c0,2.17-1.51,3.09-4.05,3.09-2.95,0-4.21-1.13-4.21-3.68,0-.34,0-.79.05-1.33h-2.45V48.88Z"/><path class="cls-4" d="M219.41,48c2.27,0,3.62,1.24,3.62,3.31,0,2.38-1.51,3.9-5.68,4l-.3-1.66c3.27,0,4.28-.84,4.28-2.22,0-1.17-.71-1.79-2.22-1.79a17.33,17.33,0,0,0-4.33.95l-.4-1.7A34.13,34.13,0,0,1,219.41,48Z"/><path class="cls-4" d="M237.54,48.56c-3.5,1-6.77,2.21-6.77,3.76,0,.88.9,1.38,3.56,1.38a22.92,22.92,0,0,0,3.69-.3l.17,1.81a29.14,29.14,0,0,1-3.87.22c-3.57,0-5.39-1-5.39-3,0-1.42,1.08-2.52,2.79-3.48C231,47.67,231,46.2,231,44h1.86a10.49,10.49,0,0,0,.48,4.13c1.08-.46,2.3-.89,3.6-1.31Z"/><path class="cls-4" d="M249.35,53.74l-1.44,1a22.8,22.8,0,0,0-1.3-2,8.1,8.1,0,0,1-2.33,3.15l-1.38-1.12a6.13,6.13,0,0,0,2.57-4.57H243V48.66h2.52v-2h-.31a9.71,9.71,0,0,1-.86,1.73L243,47.67a9.71,9.71,0,0,0,1.38-4l1.53.24q-.1.65-.23,1.26h3.38v1.52h-1.85v2h2v1.55h-2c0,.21,0,.42-.07.64A29.17,29.17,0,0,1,249.35,53.74Zm1.88.95v.92h-1.7V44.73h5.28V55.44h-1.75v-.75Zm1.82-1.6V46.36h-1.82v6.73Z"/><path class="cls-4" d="M267.44,44.45l.85,1.26c-1,.79-2.42,2-3.29,2.88a4,4,0,0,1,1.21-.18,3.27,3.27,0,0,1,3.35,3.42c0,2.23-1.53,3.67-4.61,3.67-2.14,0-3.3-.89-3.3-2.22,0-1.16,1.05-2.09,2.6-2.09a2.52,2.52,0,0,1,2.66,2.35,1.76,1.76,0,0,0,.86-1.64,2,2,0,0,0-2.07-2,5.65,5.65,0,0,0-1.6.26,12.57,12.57,0,0,0-3.75,2.63l-1.17-1.37A53.41,53.41,0,0,0,265,46.3c-1,.1-3,.21-4.39.28l-.1-1.72A66.86,66.86,0,0,0,267.44,44.45Zm-3.18,8.13c-.64,0-1,.26-1,.66s.45.72,1.56.72a5.26,5.26,0,0,0,.66,0C265.34,53.07,265,52.59,264.26,52.59Z"/><path class="cls-6" d="M23.8,73.68,34,66.9s-1.35-12.52,19.78-9.61c0,0-11.54-10.41-22.88-5.22C18.25,57.84,23.8,73.68,23.8,73.68"/><path class="cls-6" d="M56.55,56.29l11.11-2s-5.18-6.4-3.16-11.55,13.23-15,27.87,9c0,0-6.51-20.95-17.19-24.92S54,28.19,51.7,40.14c-1.81,9.38,4.85,16.15,4.85,16.15"/><path class="cls-6" d="M25.58,78.78s19.81-21,72.68-26.24l-1.82-7.22L120,63.09S68.65,53.7,25.58,78.78Z"/><path class="cls-4" d="M23.8,73.68,34,66.9s-1.35-12.52,19.78-9.61c0,0-11.54-10.41-22.88-5.22C18.25,57.84,23.8,73.68,23.8,73.68"/><path class="cls-4" d="M56.55,56.29l11.11-2s-5.18-6.4-3.16-11.55,13.23-15,27.87,9c0,0-6.51-20.95-17.19-24.92S54,28.19,51.7,40.14c-1.81,9.38,4.85,16.15,4.85,16.15"/><path class="cls-4" d="M25.58,78.78s19.81-21,72.68-26.24l-1.82-7.22L120,63.09S68.65,53.7,25.58,78.78Z"/></g></g></svg>