<svg xmlns="http://www.w3.org/2000/svg" viewBox="0 0 158 68.24"><defs><style>.cls-1{fill:#efb133;}.cls-2{fill:#fff;}.cls-3{fill:none;stroke:#efb145;stroke-miterlimit:10;stroke-width:0.75px;}</style></defs><title>アセット 1</title><g id="レイヤー_2" data-name="レイヤー 2"><g id="レイヤー_1-2" data-name="レイヤー 1"><rect class="cls-1" width="158" height="22.95"/><path class="cls-2" d="M49.21,8.21v9.11h-.81V16.8h-7v.52h-.78V8.22Zm-.8,7.86V8.94h-7v7.14Zm-.61-1.63v.66H42.08v-.66h2.42V12.69h-2V12h2V10.53H42.22v-.7h5.37v.7H45.22V12h2.1v.67h-2.1v1.76Zm-1.42-1.57A6.58,6.58,0,0,1,47.45,14l-.54.32a7.63,7.63,0,0,0-1-1.18Z"/><path class="cls-2" d="M60.76,16.27c0,.5-.12.76-.47.88a7,7,0,0,1-2,.14,2.86,2.86,0,0,0-.26-.79c.74,0,1.45,0,1.67,0s.25-.07.25-.26v-6h-3a7.19,7.19,0,0,1-.19,1.36,31.44,31.44,0,0,1,3,2.91l-.64.5a26.2,26.2,0,0,0-2.56-2.67A5.61,5.61,0,0,1,54,15.21a3.22,3.22,0,0,0-.56-.59,4.72,4.72,0,0,0,2.75-4.34h-3v7h-.77V9.52h3.81V7.72h.78V9.51h3.81Z"/><path class="cls-2" d="M64.3,12.89c.56-.57,1.43-1.74,2-2.48s1.16-.81,1.85-.12,1.43,1.67,2.1,2.38,1.66,1.78,2.6,2.62l-.66.75c-.79-.74-1.75-1.79-2.46-2.6s-1.47-1.76-2-2.3-.64-.41-1,0c-.48.61-1.34,1.77-1.87,2.4-.22.27-.45.59-.61.81l-.78-.81A6.13,6.13,0,0,0,64.3,12.89Z"/><path class="cls-2" d="M79.67,16a6.63,6.63,0,0,0,.89-.13,3.12,3.12,0,0,0,2.63-3.08,2.88,2.88,0,0,0-2.77-3,22,22,0,0,1-.62,3C79.18,14.87,78.35,16,77.38,16s-1.86-1.07-1.87-2.78A4.44,4.44,0,0,1,80.08,9a3.78,3.78,0,0,1,4,3.82c0,2.18-1.43,3.65-3.92,4ZM79,12.56a16.74,16.74,0,0,0,.57-2.8,3.63,3.63,0,0,0-3.21,3.36c0,1.31.61,1.89,1.06,1.89S78.45,14.31,79,12.56Z"/><path class="cls-2" d="M89.15,9.47a3.91,3.91,0,0,1-2,3.15,2.29,2.29,0,0,0-.48-.58,3.21,3.21,0,0,0,1.7-2.57h-1.5V8.79h1.6c0-.34.05-.71.06-1.09h.77c0,.38,0,.75-.08,1.09h2.16s0,.22,0,.32c-.11,1.88-.22,2.62-.47,2.9a.8.8,0,0,1-.6.27,8.17,8.17,0,0,1-1,0,1.77,1.77,0,0,0-.21-.69c.41,0,.77,0,.93,0a.34.34,0,0,0,.3-.11,5.2,5.2,0,0,0,.34-2ZM92.44,14a8.56,8.56,0,0,0,3.84,2.3,3.13,3.13,0,0,0-.51.65,9.35,9.35,0,0,1-3.86-2.55v2.83h-.8V14.37a9.9,9.9,0,0,1-3.85,2.71,3.79,3.79,0,0,0-.52-.64A9.28,9.28,0,0,0,90.53,14H86.94v-.7h4.16v-1h.8v1H96V14Zm3.37-2H92.16V8.52h3.66ZM95,9.21H92.89v2.17H95Z"/><path class="cls-2" d="M100.36,8.44c-.06.19-.14.47-.19.67a14.16,14.16,0,0,0-.29,5.47c.15-.44.36-1.06.54-1.58l.46.28a23.12,23.12,0,0,0-.67,2.29,2.71,2.71,0,0,0-.05.46l0,.36-.71.08a11.49,11.49,0,0,1-.55-3.3A28.07,28.07,0,0,1,99.32,9a4.43,4.43,0,0,0,.05-.69Zm6.93,2.62a16.29,16.29,0,0,1-1.68.19v.36c0,2.39,0,4.08-2.2,5.39l-.77-.61a3.5,3.5,0,0,0,1-.65c1.11-1,1.16-2.13,1.16-4.14v-.3c-.44,0-.89,0-1.33,0s-1.23,0-1.68-.07v-.84a11.6,11.6,0,0,0,1.67.11c.43,0,.87,0,1.31,0,0-.65,0-1.34-.07-1.61a6.21,6.21,0,0,0-.1-.62h1c0,.18,0,.38,0,.61s0,.91,0,1.56a12.44,12.44,0,0,0,1.69-.24Z"/><path class="cls-2" d="M111.95,11.42c.28.39,1,1.55,1.22,1.82l-.42.58c-.15-.34-.51-1-.8-1.51v4.9h-.71v-4.8A11.7,11.7,0,0,1,110,15.25a5.5,5.5,0,0,0-.41-.68,11.57,11.57,0,0,0,1.54-3.94h-1.32V9.91h1.4V7.64h.71V9.91h1.16v.72h-1.16ZM117.48,10a5.33,5.33,0,0,0,1.95,1.58,2.59,2.59,0,0,0-.49.57,5.43,5.43,0,0,1-1.09-.81v1.24h-3.35V11.36a6.18,6.18,0,0,1-1.12.83,1.62,1.62,0,0,0-.48-.51A5.26,5.26,0,0,0,114.76,10h-1.56V9.39h1.91a4.44,4.44,0,0,0,.26-.67c-.62,0-1.24.06-1.81.08a2,2,0,0,0-.18-.54,29.43,29.43,0,0,0,4.72-.47l.46.52a20,20,0,0,1-2.43.35,6.71,6.71,0,0,1-.26.73h3.3V10Zm1.53,6.4c0,.37-.07.57-.35.68a4.35,4.35,0,0,1-1.36.12,2.55,2.55,0,0,0-.25-.65c.49,0,.93,0,1.06,0s.18,0,.18-.16V13.69h-4.24v3.53h-.73V13.08H119Zm-3.6-.21v.46h-.59v-2.4h2.68V16.2Zm.15-6.19a6.12,6.12,0,0,1-.42.64h2a6.14,6.14,0,0,1-.44-.64Zm1.58,1.15h-2v.91h2Zm-1.73,3.6v.92h1.49v-.92Z"/><path class="cls-1" d="M10,47.27c.44-.19.89-.39,1.36-.57l.18.79c-1.26.6-2.61,1.18-3.66,1.64l-.34-.88c.44-.16,1-.38,1.63-.64V43.83H7.62V43H9.15V40.27H10V43h1.39v.85H10ZM16.85,50c.69,0,.81-.32.89-1.69a2.26,2.26,0,0,0,.8.35c-.14,1.62-.42,2.15-1.67,2.15H13.95c-1.35,0-1.75-.32-1.75-1.6V45.4l-.94.39L10.91,45l1.29-.55V41.24H13v2.88l1.6-.68V40.13h.85v3l1.57-.67.19-.17.17-.13.62.24,0,.17A42.22,42.22,0,0,1,17.87,47a.81.81,0,0,1-.63.79,5,5,0,0,1-1.12.08,2.57,2.57,0,0,0-.21-.76h.8c.18,0,.3,0,.36-.31s.08-1.61.08-3.5l-1.66.7v4.37h-.85v-4L13,45v4.12c0,.63.15.79.93.79Z"/><path class="cls-1" d="M24.26,47.82c-1.08.56-2.25,1.14-3.17,1.6l-.35-.87c.38-.16.83-.36,1.33-.58v-4.1H20.83V43h1.25V40.27h.83V43H24v.83H22.91v3.71L24,47Zm3.81.71L24,49.7l-.24-.83c1.07-.24,2.66-.68,4.19-1.08ZM31.33,44a15.34,15.34,0,0,1-1.74,4.11c.29,1.3.64,2.07,1.08,2.07.23,0,.33-.46.38-1.7a2.22,2.22,0,0,0,.63.46c-.13,1.58-.37,2.08-1.12,2.08s-1.24-.76-1.61-2a9.44,9.44,0,0,1-2,1.94,5.23,5.23,0,0,0-.66-.58A8.45,8.45,0,0,0,28.71,48a36.2,36.2,0,0,1-.5-5.27h-4v-.82h4c0-.57,0-1.16,0-1.74H29c0,.6,0,1.18,0,1.74h1.87a9.59,9.59,0,0,0-1.42-1.28l.51-.44a7.36,7.36,0,0,1,1.45,1.23l-.52.49h.63v.82H29a38.45,38.45,0,0,0,.33,4.18,14,14,0,0,0,1.14-3.06Zm-3.83-.15v3.43h-3V43.83Zm-.73.71H25.24v2h1.54Z"/><path class="cls-1" d="M43,42l.58.37a2.37,2.37,0,0,0-.18.6,11.84,11.84,0,0,1-1.78,4.4,9.13,9.13,0,0,1-4.7,3.18l-.81-.89a7.89,7.89,0,0,0,4.65-2.86,9.07,9.07,0,0,0,1.56-3.88H36.2c-.46,0-.88,0-1.18,0v-1a11.73,11.73,0,0,0,1.19.07h6a2.62,2.62,0,0,0,.51,0c-.25-.45-.61-1-.87-1.43l.64-.27a17.39,17.39,0,0,1,1,1.57Zm1-2.08a17.48,17.48,0,0,1,1,1.57l-.66.29a13.13,13.13,0,0,0-1-1.58Z"/><path class="cls-1" d="M57.13,44.37a2.16,2.16,0,0,0-.16.35,8.21,8.21,0,0,1-1.74,3.38A8.68,8.68,0,0,1,51,50.59l-.74-.85a8,8,0,0,0,4.2-2.18,6.09,6.09,0,0,0,1.42-2.63H49.52c-.29,0-.74,0-1.16,0V44a10.81,10.81,0,0,0,1.16.07H55.8a1.59,1.59,0,0,0,.66-.09Zm-7.71-3.15a7.42,7.42,0,0,0,1.07.06h4.68a7.4,7.4,0,0,0,1.08-.06v1c-.29,0-.69,0-1.1,0H50.5c-.37,0-.75,0-1.07,0Z"/><path class="cls-1" d="M66.31,47.62a11.22,11.22,0,0,0,4-4.38l.57,1a11.89,11.89,0,0,1-4,4.23,12.85,12.85,0,0,1-4.68,1.86l-.63-1A12.3,12.3,0,0,0,66.31,47.62Zm-.7-3.78-.75.75a24.68,24.68,0,0,0-3-2.49l.68-.73A26,26,0,0,1,65.61,43.84Z"/><path class="cls-1" d="M82.9,44.45a8.41,8.41,0,0,0,.93,0v1l-.93,0H79.66A7.2,7.2,0,0,1,79,48.6a5.81,5.81,0,0,1-2.35,2.18l-.88-.66A4.93,4.93,0,0,0,78,48.31a5.76,5.76,0,0,0,.69-3H75.11c-.37,0-.71,0-1,0v-1c.32,0,.67,0,1,0Zm-6.33-2.1c-.39,0-.79,0-1.1,0v-1a10.26,10.26,0,0,0,1.08.07h4.12a8.77,8.77,0,0,0,1.11-.07v1c-.35,0-.76,0-1.11,0Zm6.17,0a12.57,12.57,0,0,0-1-1.65l.63-.27a16.74,16.74,0,0,1,1,1.63Zm1-2.4a15.76,15.76,0,0,1,1,1.62l-.64.29a11.4,11.4,0,0,0-1-1.64Z"/><path class="cls-1" d="M95.58,43.62a14.65,14.65,0,0,1-2.71,2.16V50a6,6,0,0,0,.06,1h-1.1c0-.18,0-.67,0-1V46.35a20.82,20.82,0,0,1-3.74,1.53L87.64,47a15.75,15.75,0,0,0,4.14-1.63,12.28,12.28,0,0,0,3.07-2.46Z"/><path class="cls-1" d="M105.9,47.62a11.22,11.22,0,0,0,4-4.38l.57,1a11.89,11.89,0,0,1-4,4.23,12.85,12.85,0,0,1-4.68,1.86l-.63-1A12.3,12.3,0,0,0,105.9,47.62Zm-.7-3.78-.75.75a24.68,24.68,0,0,0-3-2.49l.68-.73A26,26,0,0,1,105.19,43.84Z"/><path class="cls-1" d="M121,42.57a2.29,2.29,0,0,0,.77-.11l.79.48a3.72,3.72,0,0,0-.27.63,11.67,11.67,0,0,1-2.11,4.11,10.61,10.61,0,0,1-4.74,3.24l-.87-.79a9.21,9.21,0,0,0,6.66-6.71h-4a11.51,11.51,0,0,1-3,2.93l-.82-.61a10,10,0,0,0,3.74-4,4.42,4.42,0,0,0,.37-1l1.1.37c-.19.31-.41.71-.52.93s-.18.33-.27.5Zm.77-2a17,17,0,0,1,1,1.63l-.64.29a13.38,13.38,0,0,0-1-1.64Zm1.31-.48a14.58,14.58,0,0,1,1,1.62l-.63.29a12.47,12.47,0,0,0-1-1.63Z"/><path class="cls-1" d="M137.17,47.64h-1.23v2.11h-.88v-.54H132.2V50c0,.55-.17.75-.52.88a7.13,7.13,0,0,1-2,.14,3,3,0,0,0-.31-.75c.71,0,1.43,0,1.63,0s.3-.08.3-.29v-.82h-3.85v-.68h3.85v-.89h-4.87v-.7h4.87V46.1h-3.74v-.66h3.74v-.83h-3.41v-2.1h3.41v-.69h-4.65V41.1h4.65v-1h.88v1h4.74v.73H132.2v.69h3.55v2.1H132.2v.83h3.74v1.49h1.23ZM131.32,44v-.86h-2.56V44Zm.88-.86V44h2.67v-.86Zm0,3.8h2.86V46.1H132.2Zm2.86.7H132.2v.89h2.86Z"/><path class="cls-1" d="M146.23,48.19a10.9,10.9,0,0,0,4.25,1.88,3.18,3.18,0,0,0-.6.79,11.26,11.26,0,0,1-4.48-2.44V51h-.87V48.47a12,12,0,0,1-4.45,2.35,3.79,3.79,0,0,0-.57-.75,11.49,11.49,0,0,0,4.21-1.88h-3.9v-.75h4.71v-.88H141v-.68h3.59V45h-4.18v-.73H143a5,5,0,0,0-.58-1.19l.42-.08h-2.91v-.76h1.89a9.19,9.19,0,0,0-.94-1.73l.75-.25a8.21,8.21,0,0,1,1,1.75l-.61.23h1.47V40.13h.82v2.11h1.42V40.13h.83v2.11H148l-.44-.14a13.51,13.51,0,0,0,.91-1.81l.91.24a16.64,16.64,0,0,1-1,1.72h1.85V43h-2.38c-.24.45-.5.92-.74,1.27h2.71V45h-4.31v.87h3.73v.68h-3.73v.88h4.78v.75Zm-3-5.18a4.66,4.66,0,0,1,.6,1.19l-.38.08h2.8l-.12,0a10.83,10.83,0,0,0,.61-1.24Z"/><rect class="cls-3" x="0.38" y="23.09" width="157.25" height="44.78"/></g></g></svg>