<svg xmlns="http://www.w3.org/2000/svg" viewBox="0 0 158 68.23"><defs><style>.cls-1{fill:#0065b2;}.cls-2{fill:#fff;}.cls-3{fill:none;stroke:#0065b2;stroke-miterlimit:10;stroke-width:0.75px;}</style></defs><title>アセット 2</title><g id="レイヤー_2" data-name="レイヤー 2"><g id="レイヤー_1-2" data-name="レイヤー 1"><rect class="cls-1" x="0.14" width="157.86" height="22.94"/><path class="cls-2" d="M41.2,11.3a7.22,7.22,0,0,0-1.75-1.11l.43-.57a7.48,7.48,0,0,1,1.79,1Zm-1.5,4.45a30.46,30.46,0,0,0,1.63-3.39l.6.44a32.11,32.11,0,0,1-1.54,3.4Zm2-7.15A7.68,7.68,0,0,0,40,7.42l.44-.56A7,7,0,0,1,42.14,8Zm2,.15a8,8,0,0,1-1.08,1.65A4.39,4.39,0,0,0,42,10a8,8,0,0,0,1.73-3.23l.78.17c-.13.39-.26.77-.42,1.13h5v.71Zm4.54,3.8a15.3,15.3,0,0,1-.12,1.6h1v.68H48a2.18,2.18,0,0,1-.35,1.08.87.87,0,0,1-.71.37,9.57,9.57,0,0,1-1.33,0,1.32,1.32,0,0,0-.2-.65h1.22a.42.42,0,0,0,.4-.15,1.71,1.71,0,0,0,.24-.68h-3.9l-.08.48-.75-.07c.15-.7.3-1.68.45-2.69H42v-.71h1.07c.1-.76.2-1.5.26-2.15h5V10c0,.67-.06,1.26-.08,1.8h.9v.71Zm-4.5,0c-.07.56-.16,1.1-.23,1.6H45c.06-.46.14-1,.2-1.6ZM44,10.37c0,.47-.11,1-.19,1.47h1.47c0-.5.09-1,.12-1.47Zm3.36,3.77c0-.42.09-.94.13-1.6H45.86c-.06.59-.13,1.13-.2,1.6Zm.18-2.31a13,13,0,0,1,.06-1.47H46.06c0,.46-.08,1-.12,1.47Z"/><path class="cls-2" d="M58.5,11.54a9.15,9.15,0,0,0,2.43,1.66,3.42,3.42,0,0,0-.56.66,9.51,9.51,0,0,1-1.87-1.3v3.72h-.8V11.79a12,12,0,0,1-1.57-2.06c-.76,3.31-2.33,5.4-4.33,6.52a3,3,0,0,0-.62-.58,7.57,7.57,0,0,0,3.1-3.09,13,13,0,0,0-2-1.49,7.63,7.63,0,0,1-.69.81,4.45,4.45,0,0,0-.64-.5,9.82,9.82,0,0,0,2.5-4.69l.77.16c-.14.49-.29,1-.47,1.45H55.9l.5.19a4.27,4.27,0,0,1-.16.88l.41-.16a9,9,0,0,0,1.07,1.53v-4h.8ZM53.45,9a12,12,0,0,1-.77,1.46,13.16,13.16,0,0,1,2,1.37A12.84,12.84,0,0,0,55.5,9Z"/><path class="cls-2" d="M63.62,11.89c.56-.57,1.43-1.75,2-2.48a1.07,1.07,0,0,1,1.85-.12c.7.69,1.46,1.71,2.13,2.38s1.66,1.78,2.6,2.62l-.66.75c-.79-.74-1.75-1.79-2.46-2.6s-1.47-1.76-2-2.3-.64-.41-1,0c-.48.61-1.34,1.77-1.87,2.4-.22.27-.45.59-.61.81l-.78-.81A6.12,6.12,0,0,0,63.62,11.89Z"/><path class="cls-2" d="M79,15a6.48,6.48,0,0,0,.89-.13,3.12,3.12,0,0,0,2.63-3.08,2.88,2.88,0,0,0-2.76-3h0a22,22,0,0,1-.62,3C78.48,13.86,77.66,15,76.69,15s-1.86-1.07-1.86-2.78A4.44,4.44,0,0,1,79.38,8a3.77,3.77,0,0,1,4,3.53q0,.14,0,.29c0,2.18-1.43,3.65-3.91,4Zm-.69-3.4a16.73,16.73,0,0,0,.57-2.8,3.62,3.62,0,0,0-3.21,3.36c0,1.31.61,1.89,1.06,1.89s1-.74,1.56-2.5Z"/><path class="cls-2" d="M88.44,8.46a3.91,3.91,0,0,1-2,3.15A2.28,2.28,0,0,0,86,11a3.21,3.21,0,0,0,1.7-2.57H86.2V7.78h1.6c0-.34.05-.71.06-1.09h.77a4.83,4.83,0,0,1-.08,1.09H90.7v.31c-.11,1.88-.22,2.63-.47,2.9a.8.8,0,0,1-.6.27,8.55,8.55,0,0,1-1,0,1.76,1.76,0,0,0-.21-.69h.92a.34.34,0,0,0,.3-.1,5.22,5.22,0,0,0,.34-2ZM91.74,13a8.55,8.55,0,0,0,3.83,2.3,3.12,3.12,0,0,0-.51.65A9.33,9.33,0,0,1,91.2,13.4v2.83h-.8V13.36a9.87,9.87,0,0,1-3.85,2.71,3.79,3.79,0,0,0-.51-.64A9.27,9.27,0,0,0,89.82,13H86.24v-.7H90.4v-1h.8v1h4.06V13Zm3.37-2H91.45V7.51H95.1Zm-.78-2.8H92.18v2.17h2.15Z"/><path class="cls-2" d="M99.65,7.44c-.06.19-.14.47-.19.67a14.16,14.16,0,0,0-.29,5.47c.15-.44.35-1.06.54-1.58l.46.28a23,23,0,0,0-.67,2.29,2.73,2.73,0,0,0-.05.46v.36l-.71.08a11.5,11.5,0,0,1-.55-3.3A28.05,28.05,0,0,1,98.61,8a4.37,4.37,0,0,0,.05-.69Zm6.92,2.62a16.26,16.26,0,0,1-1.68.19v.36c0,2.39,0,4.08-2.2,5.39l-.77-.61a3.52,3.52,0,0,0,1-.65c1.11-1,1.16-2.13,1.16-4.14v-.3h-1.32a13.65,13.65,0,0,1-1.68-.07V9.42a11.48,11.48,0,0,0,1.67.11h1.31A9.72,9.72,0,0,0,104,7.92a5.87,5.87,0,0,0-.09-.62h1V9.47a12.24,12.24,0,0,0,1.69-.24Z"/><path class="cls-2" d="M111.22,10.41c.28.39,1,1.55,1.22,1.83l-.42.58c-.15-.34-.51-1-.8-1.51v4.9h-.71v-4.8a11.69,11.69,0,0,1-1.2,2.84,5.54,5.54,0,0,0-.41-.68,11.58,11.58,0,0,0,1.54-3.94h-1.32V8.91h1.4V6.64h.71V8.9h1.15v.72h-1.15ZM116.75,9a5.31,5.31,0,0,0,1.94,1.58,2.6,2.6,0,0,0-.49.57,5.46,5.46,0,0,1-1.09-.81v1.24h-3.35V10.36a6.24,6.24,0,0,1-1.12.83,1.63,1.63,0,0,0-.48-.51A5.25,5.25,0,0,0,114,9h-1.55V8.39h1.91a4.47,4.47,0,0,0,.26-.67c-.62,0-1.24.06-1.81.08a2,2,0,0,0-.18-.54,29.36,29.36,0,0,0,4.71-.47l.46.52a20,20,0,0,1-2.42.35,6.88,6.88,0,0,1-.26.72h3.3V9Zm1.53,6.4c0,.37-.07.57-.35.68a4.35,4.35,0,0,1-1.35.12,2.6,2.6,0,0,0-.25-.65h1.06c.14,0,.18,0,.18-.16V12.68h-4.23v3.53h-.72V12.07h5.67Zm-3.59-.21v.46h-.59v-2.4h2.68v1.94ZM114.84,9a6.15,6.15,0,0,1-.42.64h2A6.19,6.19,0,0,1,116,9Zm1.58,1.15h-2v.91h2Zm-1.73,3.6v.92h1.49v-.92Z"/><path class="cls-1" d="M36.84,41.39A18.64,18.64,0,0,1,33.65,44v5.1a9,9,0,0,0,.07,1.28H32.56a11.09,11.09,0,0,0,.07-1.28v-4.5a23.84,23.84,0,0,1-4.48,1.86l-.55-.93a18.82,18.82,0,0,0,5.33-2.25,13.14,13.14,0,0,0,3.13-2.63Z"/><path class="cls-1" d="M46.22,47.49a11.22,11.22,0,0,0,4-4.38l.57,1a11.89,11.89,0,0,1-4,4.23,12.85,12.85,0,0,1-4.68,1.86l-.63-1A12.3,12.3,0,0,0,46.22,47.49Zm-.7-3.78-.75.75a24.69,24.69,0,0,0-3-2.49l.68-.73a26.08,26.08,0,0,1,3.06,2.47Z"/><path class="cls-1" d="M56.74,42l1.06.21c-.07.26-.17.61-.21.87a26.4,26.4,0,0,1-1.08,3.72,17.29,17.29,0,0,1-1.75,3.28l-1-.43A15.67,15.67,0,0,0,55.6,46.4,18.22,18.22,0,0,0,56.74,42Zm3,.19,1-.32a38.52,38.52,0,0,1,1.74,3.77c.49,1.18,1.12,3,1.43,4.08l-1.06.35A35.7,35.7,0,0,0,61.5,46a30.51,30.51,0,0,0-1.79-3.78Zm3.36.15-.64.29a13.65,13.65,0,0,0-1-1.66l.63-.26a13.76,13.76,0,0,1,1,1.63Zm1.33-.49-.64.29a11.36,11.36,0,0,0-1-1.64l.61-.23a13.9,13.9,0,0,1,1,1.58Z"/><path class="cls-1" d="M76.68,42.75c-.06.18-.13.49-.18.72a11,11,0,0,1-1.17,3.58,7.54,7.54,0,0,1-4.72,3.38l-.77-.89a7.15,7.15,0,0,0,4.47-2.73,8.78,8.78,0,0,0,1.13-3.48H68.77v2.13a4.32,4.32,0,0,0,0,.7h-1v-2.9a8,8,0,0,0,0-.92,10.46,10.46,0,0,0,1.11,0h2.63v-1a6.73,6.73,0,0,0-.06-.89h1.14a5.33,5.33,0,0,0-.07.89v1.11h2.67a2.35,2.35,0,0,0,.82-.09Z"/><path class="cls-1" d="M85.8,47.49a11.22,11.22,0,0,0,4-4.38l.57,1a11.89,11.89,0,0,1-4,4.23,12.85,12.85,0,0,1-4.68,1.86l-.7-.94A12.3,12.3,0,0,0,85.8,47.49Zm-.7-3.78-.75.75a24.69,24.69,0,0,0-3-2.49l.68-.73A26.08,26.08,0,0,1,85.11,43.71Z"/><path class="cls-1" d="M97.19,44.11a38.71,38.71,0,0,1,5.09,2l-.42,1a30.53,30.53,0,0,0-4.67-1.91v3.92a14,14,0,0,0,.07,1.41H96.12a13,13,0,0,0,.07-1.41v-7a7.55,7.55,0,0,0-.1-1.24h1.17c0,.37-.07.88-.07,1.24Zm3.59-.6a11.81,11.81,0,0,0-1.06-1.81l.66-.3a16,16,0,0,1,1.08,1.8Zm1.49-.61a12.87,12.87,0,0,0-1.11-1.79l.66-.31a16.17,16.17,0,0,1,1.12,1.76Z"/><path class="cls-1" d="M117.08,47.52h-1.23v2.11H115v-.54h-2.86v.82c0,.55-.17.75-.52.88a7.13,7.13,0,0,1-2,.14,3,3,0,0,0-.31-.75h1.63c.2,0,.3-.08.3-.29v-.82h-3.85v-.68h3.85V47.5h-4.87v-.7h4.87V46H107.5v-.66h3.74v-.83h-3.41v-2.1h3.41v-.69h-4.65V41h4.65V40h.88v1h4.74v.73h-4.74v.69h3.55v2.1h-3.55v.83h3.74V46.8h1.23Zm-5.85-3.65V43h-2.56v.86Zm.88-.86v.86h2.67V43Zm0,3.8H115V46h-2.86Zm2.86.7h-2.86v.89H115Z"/><path class="cls-1" d="M126.15,48.06a10.89,10.89,0,0,0,4.25,1.88,3.17,3.17,0,0,0-.6.79,11.25,11.25,0,0,1-4.48-2.47v2.6h-.87V48.35A12,12,0,0,1,120,50.7a3.79,3.79,0,0,0-.57-.75,11.5,11.5,0,0,0,4.21-1.88h-3.9v-.75h4.71v-.88h-3.59v-.68h3.59v-.87h-4.18v-.73h2.6a5,5,0,0,0-.58-1.19l.42-.08H119.8v-.76h1.89a9.25,9.25,0,0,0-.94-1.73l.75-.25a8.21,8.21,0,0,1,1,1.75l-.61.23h1.47V40h.82v2.11h1.42V40h.83v2.11h1.44l-.44-.14a13.51,13.51,0,0,0,.91-1.81l.91.24a16.64,16.64,0,0,1-1,1.72h1.85v.76h-2.38a14.29,14.29,0,0,1-.74,1.27h2.71v.73h-4.31v.87h3.73v.68h-3.73v.88h4.78v.75Zm-3-5.18a4.64,4.64,0,0,1,.6,1.19l-.38.08H126a10.91,10.91,0,0,0,.61-1.24Z"/><rect class="cls-3" x="0.38" y="23.08" width="157.25" height="44.78"/></g></g></svg>