<svg xmlns="http://www.w3.org/2000/svg" viewBox="0 0 158 68.23"><defs><style>.cls-1{fill:#2ba464;}.cls-2{fill:#fff;}.cls-3{fill:none;stroke:#2ba464;stroke-miterlimit:10;stroke-width:0.75px;}</style></defs><title>アセット 3</title><g id="レイヤー_2" data-name="レイヤー 2"><g id="レイヤー_1-2" data-name="レイヤー 1"><rect class="cls-1" x="0.14" width="157.86" height="22.94"/><path class="cls-2" d="M36.49,12.39c-.78.84-1.65,1.76-2.36,2.43l-.5-.64c.61-.57,1.55-1.53,2.44-2.46ZM35.85,9.6A11.67,11.67,0,0,0,34,8l.56-.56A11.61,11.61,0,0,1,36.43,9ZM40,10.71a5.54,5.54,0,0,0,3.34,4.91c-.14.18-.38.5-.5.69a5.93,5.93,0,0,1-3.24-4.14A6,6,0,0,1,36,16.32a3.46,3.46,0,0,0-.48-.63,5.57,5.57,0,0,0,3.72-5V9.39H37.91a9.92,9.92,0,0,1-1.16,2.13,4.68,4.68,0,0,0-.75-.44,10.12,10.12,0,0,0,1.87-4.32l.82.15c-.15.59-.3,1.15-.49,1.7h4.39l.57.31A13.77,13.77,0,0,1,42,11.69c-.17-.07-.46-.24-.65-.31a11.54,11.54,0,0,0,.81-2H40Z"/><path class="cls-2" d="M52.41,13.46V13h-2v.51h-.77V10.07h-2v4.7h6.74v.76H47.72v.77h-.8V10.08H45.35V9.33h1.56V7h.8V9.33h2V6.78h.77V9.33h2V6.9h.78V9.32h1.63v.75H53.18v3.39Zm0-1.2V10.07h-2v2.19Z"/><path class="cls-2" d="M60.47,7.06a14.22,14.22,0,0,1-1.12,2.12v7.1h-.79v-6a11.92,11.92,0,0,1-1.4,1.55,5.15,5.15,0,0,0-.45-.75,11.77,11.77,0,0,0,3-4.27Zm2.78,3.54c.36,2.78,1,4.66,2.17,4.76.3,0,.47-.6.58-1.81a3.16,3.16,0,0,0,.65.41c-.23,1.8-.65,2.34-1.19,2.31-1.72-.12-2.56-2.3-3-5.57L60,11l-.11-.73L62.39,10c-.08-1-.16-2-.2-3.11H63a27.61,27.61,0,0,0,.2,3l3.14-.4.11.74ZM65.61,9a11.24,11.24,0,0,0-1.7-1.7l.57-.38A11,11,0,0,1,66.21,8.6Z"/><path class="cls-2" d="M69.45,11.87c.56-.57,1.43-1.75,2-2.48a1.07,1.07,0,0,1,1.85-.12c.7.69,1.43,1.67,2.09,2.38s1.66,1.78,2.6,2.62l-.66.75c-.79-.74-1.75-1.79-2.46-2.6s-1.47-1.76-2-2.3-.64-.41-1,0c-.48.61-1.34,1.77-1.87,2.4-.22.27-.45.59-.61.81l-.78-.81A6.15,6.15,0,0,0,69.45,11.87Z"/><path class="cls-2" d="M84.8,14.94a6.4,6.4,0,0,0,.89-.13,3.12,3.12,0,0,0,2.63-3.08,2.88,2.88,0,0,0-2.76-3h0a22,22,0,0,1-.62,3C84.29,13.86,83.46,15,82.5,15s-1.86-1.07-1.86-2.78A4.44,4.44,0,0,1,85.2,7.93a3.77,3.77,0,0,1,4,3.53q0,.14,0,.29c0,2.18-1.43,3.64-3.91,4Zm-.7-3.4a16.73,16.73,0,0,0,.57-2.8,3.63,3.63,0,0,0-3.21,3.36c0,1.31.61,1.89,1.06,1.89S83.58,13.29,84.1,11.54Z"/><path class="cls-2" d="M94.27,8.45a3.91,3.91,0,0,1-2,3.15,2.28,2.28,0,0,0-.48-.58,3.2,3.2,0,0,0,1.7-2.57H92V7.77h1.6c0-.34.05-.71.06-1.09h.77a4.83,4.83,0,0,1-.08,1.09H96.5v.31C96.39,10,96.28,10.7,96,11a.81.81,0,0,1-.6.27,8.54,8.54,0,0,1-1,0,1.77,1.77,0,0,0-.21-.69h.92a.35.35,0,0,0,.3-.1,5.23,5.23,0,0,0,.34-2ZM97.56,13a8.55,8.55,0,0,0,3.84,2.3,3.16,3.16,0,0,0-.51.65A9.34,9.34,0,0,1,97,13.4v2.83h-.8V13.35a9.88,9.88,0,0,1-3.85,2.71,3.86,3.86,0,0,0-.52-.64A9.28,9.28,0,0,0,95.65,13H92.1v-.7h4.16v-1h.8v1h4V13Zm3.37-2H97.27V7.5h3.65Zm-.77-2.85H98v2.17h2.15Z"/><path class="cls-2" d="M105.47,7.42c-.06.19-.14.47-.19.67a14.16,14.16,0,0,0-.29,5.47c.15-.44.35-1.06.54-1.58l.46.28a23,23,0,0,0-.67,2.29,2.73,2.73,0,0,0-.05.46v.36l-.71.08a11.5,11.5,0,0,1-.55-3.3A28.07,28.07,0,0,1,104.43,8a4.36,4.36,0,0,0,.05-.69ZM112.39,10a16.4,16.4,0,0,1-1.68.19v.36c0,2.39,0,4.08-2.2,5.39l-.77-.61a3.53,3.53,0,0,0,1-.65c1.11-1,1.16-2.13,1.16-4.14v-.3h-1.32a13.65,13.65,0,0,1-1.68-.07V9.4a11.48,11.48,0,0,0,1.67.11h1.31a9.72,9.72,0,0,0-.07-1.61,5.87,5.87,0,0,0-.09-.62h1V9.45a12.31,12.31,0,0,0,1.69-.24Z"/><path class="cls-2" d="M117.05,10.4c.28.39,1,1.55,1.22,1.83l-.42.58c-.15-.34-.51-1-.8-1.51v4.9h-.71V11.4a11.69,11.69,0,0,1-1.2,2.84,5.54,5.54,0,0,0-.41-.68,11.59,11.59,0,0,0,1.54-3.94H115V8.89h1.4V6.62h.71V8.89h1.15v.72h-1.15ZM122.58,9a5.3,5.3,0,0,0,1.94,1.58,2.62,2.62,0,0,0-.49.57,5.46,5.46,0,0,1-1.09-.81v1.24h-3.35V10.34a6.24,6.24,0,0,1-1.12.83,1.63,1.63,0,0,0-.48-.51A5.26,5.26,0,0,0,119.86,9H118.3V8.37h1.91a4.49,4.49,0,0,0,.26-.67c-.62,0-1.24.06-1.81.08a2,2,0,0,0-.18-.54,29.42,29.42,0,0,0,4.71-.47l.46.52a20,20,0,0,1-2.42.35,6.92,6.92,0,0,1-.26.72h3.3V9Zm1.53,6.4c0,.37-.07.57-.35.68a4.37,4.37,0,0,1-1.35.12,2.61,2.61,0,0,0-.25-.65h1.06c.14,0,.18,0,.18-.16V12.67h-4.23V16.2h-.72V12.05h5.65Zm-3.59-.21v.46h-.59v-2.4h2.68v1.94ZM120.67,9a6.21,6.21,0,0,1-.42.64h2a6.24,6.24,0,0,1-.44-.64Zm1.58,1.15h-2v.91h2Zm-1.73,3.6v.92H122v-.92Z"/><path class="cls-1" d="M17.14,41.39A18.64,18.64,0,0,1,14,44v5.1a9,9,0,0,0,0,1.28H12.85a11.09,11.09,0,0,0,.07-1.28v-4.5a23.84,23.84,0,0,1-4.48,1.86l-.55-.93a18.82,18.82,0,0,0,5.33-2.24,13.14,13.14,0,0,0,3.13-2.63Z"/><path class="cls-1" d="M29.26,42.45a16.27,16.27,0,0,1-2.18,4.34,12,12,0,0,1-4.49,3.4l-.83-.87a10.35,10.35,0,0,0,4.5-3.16,12.24,12.24,0,0,0,2.24-5l1.14.31Q29.42,41.93,29.26,42.45Z"/><path class="cls-1" d="M34.75,46.06c.57-.58,1.61-1.91,2.36-2.79s1.12-.83,2-.12a30.18,30.18,0,0,1,2.47,2.47c.8.86,2,2.16,2.88,3.18l-.77.85c-.83-1.07-1.92-2.3-2.68-3.17a32,32,0,0,0-2.32-2.42c-.5-.42-.67-.41-1.07.09-.57.69-1.57,2-2.11,2.66-.25.31-.51.68-.69.92L34,46.85Zm7.88-2.28-.69.32a12.46,12.46,0,0,0-1.11-1.91l.68-.3A18.29,18.29,0,0,1,42.63,43.78Zm1.57-.63-.69.33a12.37,12.37,0,0,0-1.14-1.88l.62-.34A17.94,17.94,0,0,1,44.2,43.15Z"/><path class="cls-1" d="M47.68,44.82c.36,0,1,.06,1.66.06h6.53a7.26,7.26,0,0,0,1.29-.06V46c-.24,0-.74-.06-1.27-.06H49.34a12.85,12.85,0,0,0-1.66.06Z"/><path class="cls-1" d="M64.08,45.12l-.55.83a26.34,26.34,0,0,0-2.6-1.63l.52-.81A28.88,28.88,0,0,1,64.08,45.12ZM65.45,48A12.14,12.14,0,0,0,70,43.59l.57,1A14,14,0,0,1,66,48.84a14.8,14.8,0,0,1-4,1.48l-.55-1A12.63,12.63,0,0,0,65.45,48Zm.38-5.45-.56.81c-.57-.43-1.86-1.29-2.56-1.69l.54-.8c.74.43,2.07,1.3,2.59,1.68Z"/><path class="cls-1" d="M81.15,50.65v-.49h-5.8v-.9a8.9,8.9,0,0,0,1,0h4.8V47.17H75.77v-.91h5.37v-2H75.51v-.93h6.56v7.18Z"/><path class="cls-1" d="M92.51,47.49a11.22,11.22,0,0,0,4-4.38l.57,1a11.89,11.89,0,0,1-4,4.23A12.85,12.85,0,0,1,88.4,50.2l-.63-1A12.3,12.3,0,0,0,92.51,47.49Zm-.7-3.78-.75.75a24.69,24.69,0,0,0-3-2.49l.68-.73A26.08,26.08,0,0,1,91.81,43.71Z"/><path class="cls-1" d="M105.58,40.38v.55c.11,1.57.75,7.08,5.23,9.13a2.67,2.67,0,0,0-.66.73c-3.07-1.45-4.39-4.5-5-6.89a9.87,9.87,0,0,1-4.77,6.89,3.28,3.28,0,0,0-.71-.68c4.83-2.47,4.83-8.15,4.91-9.72Z"/><path class="cls-1" d="M117.44,46.69c-.26-.43-.88-1.26-1.37-1.91v6.09h-.88V45.15a12.27,12.27,0,0,1-1.89,3.56,3.92,3.92,0,0,0-.49-.83,11.91,11.91,0,0,0,2.25-4.48h-1.85v-.84h2V40h.88v2.55h1.62v.85h-1.62v.31c.44.48,1.63,1.87,1.93,2.22Zm6.39-3.28h-1.23v6.27c0,.61-.15.88-.55,1a6.88,6.88,0,0,1-2.1.18,4,4,0,0,0-.32-.91h1.76c.22,0,.3-.07.3-.29v-5A14.5,14.5,0,0,1,118.08,49a4,4,0,0,0-.63-.71,13.1,13.1,0,0,0,3.93-4.87h-3.24v-.85h3.55V40h.91v2.54h1.23Z"/><path class="cls-1" d="M137,47.51h-1.23v2.11h-.88v-.54H132v.82c0,.55-.17.75-.52.88a7.13,7.13,0,0,1-2,.14,3,3,0,0,0-.31-.75h1.63c.2,0,.3-.08.3-.29v-.82h-3.85v-.68h3.85v-.89h-4.87v-.7h4.87V46h-3.74V45.3h3.74v-.83h-3.41v-2.1h3.41v-.69h-4.65v-.73h4.65v-1h.9v1h4.74v.73H132v.69h3.55v2.1H132v.83h3.74v1.49H137Zm-5.85-3.65V43h-2.56v.86ZM132,43v.86h2.67V43Zm0,3.8h2.86V46H132Zm2.86.7H132v.89h2.86Z"/><path class="cls-1" d="M146,48.06a10.89,10.89,0,0,0,4.25,1.88,3.18,3.18,0,0,0-.6.79,11.25,11.25,0,0,1-4.43-2.47v2.6h-.87V48.35a12,12,0,0,1-4.45,2.35,3.79,3.79,0,0,0-.57-.75,11.49,11.49,0,0,0,4.21-1.88h-3.9v-.75h4.71v-.88h-3.59v-.68h3.59v-.87h-4.18v-.73h2.6a5,5,0,0,0-.58-1.19l.42-.08H139.7v-.76h1.89a9.25,9.25,0,0,0-.94-1.73l.75-.25a8.21,8.21,0,0,1,1,1.75l-.61.23h1.47V40h.82v2.11h1.42V40h.83v2.11h1.44l-.44-.14a13.51,13.51,0,0,0,.91-1.81l.91.24a16.64,16.64,0,0,1-1,1.72H150v.76h-2.38a14.29,14.29,0,0,1-.74,1.27h2.71v.73h-4.31v.87H149v.68h-3.73v.88H150v.75Zm-3-5.18a4.64,4.64,0,0,1,.6,1.19l-.38.08h2.68a10.91,10.91,0,0,0,.61-1.24Z"/><rect class="cls-3" x="0.38" y="23.08" width="157.25" height="44.78"/></g></g></svg>